<svg width="200" height="141" viewBox="0 0 200 141" fill="none" xmlns="http://www.w3.org/2000/svg">
<rect x="0.399737" y="0.819659" width="199.201" height="139.201" rx="15.5897" fill="url(#paint0_linear_114_158)"/>
<rect x="0.399737" y="0.819659" width="199.201" height="139.201" rx="15.5897" stroke="#323238" stroke-width="0.799474"/>
<path d="M21.5385 23.4199H20.4817C20.4192 23.1159 20.3098 22.8489 20.1536 22.6188C20.0002 22.3887 19.8127 22.1955 19.5911 22.0392C19.3723 21.8801 19.1294 21.7608 18.8624 21.6813C18.5953 21.6017 18.3169 21.562 18.0272 21.562C17.4988 21.562 17.0201 21.6955 16.5911 21.9625C16.165 22.2296 15.8255 22.623 15.5726 23.1429C15.3226 23.6628 15.1976 24.3006 15.1976 25.0563C15.1976 25.812 15.3226 26.4498 15.5726 26.9696C15.8255 27.4895 16.165 27.883 16.5911 28.15C17.0201 28.4171 17.4988 28.5506 18.0272 28.5506C18.3169 28.5506 18.5953 28.5108 18.8624 28.4313C19.1294 28.3517 19.3723 28.2338 19.5911 28.0776C19.8127 27.9185 20.0002 27.7239 20.1536 27.4938C20.3098 27.2608 20.4192 26.9938 20.4817 26.6926H21.5385C21.459 27.1387 21.3141 27.5378 21.1039 27.8901C20.8936 28.2424 20.6323 28.5421 20.3198 28.7892C20.0073 29.0336 19.6564 29.2196 19.2672 29.3475C18.8809 29.4753 18.4675 29.5392 18.0272 29.5392C17.2828 29.5392 16.6209 29.3574 16.0414 28.9938C15.4618 28.6301 15.0059 28.1131 14.6735 27.4426C14.3411 26.7722 14.1749 25.9767 14.1749 25.0563C14.1749 24.1358 14.3411 23.3404 14.6735 22.6699C15.0059 21.9995 15.4618 21.4824 16.0414 21.1188C16.6209 20.7551 17.2828 20.5733 18.0272 20.5733C18.4675 20.5733 18.8809 20.6373 19.2672 20.7651C19.6564 20.8929 20.0073 21.0804 20.3198 21.3276C20.6323 21.5719 20.8936 21.8702 21.1039 22.2225C21.3141 22.5719 21.459 22.9711 21.5385 23.4199ZM24.661 29.5733C24.2463 29.5733 23.8699 29.4952 23.5318 29.339C23.1937 29.1799 22.9252 28.9512 22.7264 28.6529C22.5275 28.3517 22.4281 27.9881 22.4281 27.562C22.4281 27.187 22.502 26.883 22.6497 26.65C22.7974 26.4142 22.9949 26.2296 23.242 26.0961C23.4892 25.9625 23.7619 25.8631 24.0602 25.7978C24.3613 25.7296 24.6639 25.6756 24.9679 25.6358C25.3656 25.5847 25.688 25.5463 25.9352 25.5208C26.1852 25.4924 26.367 25.4455 26.4806 25.3801C26.5971 25.3148 26.6554 25.2012 26.6554 25.0392V25.0051C26.6554 24.5847 26.5403 24.258 26.3102 24.025C26.0829 23.7921 25.7377 23.6756 25.2747 23.6756C24.7946 23.6756 24.4181 23.7807 24.1454 23.9909C23.8727 24.2012 23.6809 24.4256 23.5701 24.6642L22.6156 24.3233C22.786 23.9256 23.0133 23.6159 23.2974 23.3944C23.5843 23.1699 23.8968 23.0137 24.2349 22.9256C24.5758 22.8347 24.911 22.7892 25.2406 22.7892C25.4508 22.7892 25.6923 22.8148 25.965 22.8659C26.2406 22.9142 26.5062 23.0151 26.7619 23.1685C27.0204 23.3219 27.2349 23.5534 27.4054 23.8631C27.5758 24.1728 27.661 24.5875 27.661 25.1074V29.4199H26.6554V28.5336H26.6042C26.536 28.6756 26.4224 28.8276 26.2633 28.9895C26.1042 29.1515 25.8926 29.2892 25.6284 29.4029C25.3642 29.5165 25.0417 29.5733 24.661 29.5733ZM24.8145 28.6699C25.2122 28.6699 25.5474 28.5918 25.8201 28.4355C26.0957 28.2793 26.3031 28.0776 26.4423 27.8304C26.5843 27.5833 26.6554 27.3233 26.6554 27.0506V26.1301C26.6127 26.1813 26.519 26.2282 26.3741 26.2708C26.2321 26.3105 26.0673 26.3461 25.8798 26.3773C25.6951 26.4057 25.5147 26.4313 25.3386 26.454C25.1653 26.4739 25.0247 26.4909 24.9167 26.5051C24.6554 26.5392 24.411 26.5946 24.1838 26.6713C23.9593 26.7452 23.7775 26.8574 23.6383 27.008C23.502 27.1557 23.4338 27.3574 23.4338 27.6131C23.4338 27.9625 23.563 28.2267 23.8216 28.4057C24.0829 28.5819 24.4139 28.6699 24.8145 28.6699ZM29.1216 29.4199V22.8745H30.1273V29.4199H29.1216ZM29.633 21.7836C29.437 21.7836 29.2679 21.7168 29.1259 21.5833C28.9867 21.4498 28.9171 21.2892 28.9171 21.1017C28.9171 20.9142 28.9867 20.7537 29.1259 20.6202C29.2679 20.4867 29.437 20.4199 29.633 20.4199C29.829 20.4199 29.9966 20.4867 30.1358 20.6202C30.2779 20.7537 30.3489 20.9142 30.3489 21.1017C30.3489 21.2892 30.2779 21.4498 30.1358 21.5833C29.9966 21.7168 29.829 21.7836 29.633 21.7836ZM32.3443 22.8745L33.9125 25.5506L35.4806 22.8745H36.6397L34.5261 26.1472L36.6397 29.4199H35.4806L33.9125 26.8801L32.3443 29.4199H31.1852L33.2647 26.1472L31.1852 22.8745H32.3443ZM39.6259 29.5733C39.2111 29.5733 38.8347 29.4952 38.4966 29.339C38.1586 29.1799 37.8901 28.9512 37.6912 28.6529C37.4924 28.3517 37.3929 27.9881 37.3929 27.562C37.3929 27.187 37.4668 26.883 37.6145 26.65C37.7623 26.4142 37.9597 26.2296 38.2069 26.0961C38.454 25.9625 38.7267 25.8631 39.025 25.7978C39.3262 25.7296 39.6287 25.6756 39.9327 25.6358C40.3304 25.5847 40.6529 25.5463 40.9 25.5208C41.15 25.4924 41.3319 25.4455 41.4455 25.3801C41.562 25.3148 41.6202 25.2012 41.6202 25.0392V25.0051C41.6202 24.5847 41.5051 24.258 41.275 24.025C41.0478 23.7921 40.7026 23.6756 40.2395 23.6756C39.7594 23.6756 39.383 23.7807 39.1103 23.9909C38.8375 24.2012 38.6458 24.4256 38.535 24.6642L37.5804 24.3233C37.7509 23.9256 37.9782 23.6159 38.2623 23.3944C38.5492 23.1699 38.8617 23.0137 39.1998 22.9256C39.5407 22.8347 39.8759 22.7892 40.2054 22.7892C40.4157 22.7892 40.6571 22.8148 40.9299 22.8659C41.2054 22.9142 41.4711 23.0151 41.7267 23.1685C41.9853 23.3219 42.1998 23.5534 42.3702 23.8631C42.5407 24.1728 42.6259 24.5875 42.6259 25.1074V29.4199H41.6202V28.5336H41.5691C41.5009 28.6756 41.3873 28.8276 41.2282 28.9895C41.0691 29.1515 40.8574 29.2892 40.5932 29.4029C40.329 29.5165 40.0066 29.5733 39.6259 29.5733ZM39.7793 28.6699C40.177 28.6699 40.5123 28.5918 40.785 28.4355C41.0605 28.2793 41.2679 28.0776 41.4071 27.8304C41.5492 27.5833 41.6202 27.3233 41.6202 27.0506V26.1301C41.5776 26.1813 41.4838 26.2282 41.339 26.2708C41.1969 26.3105 41.0321 26.3461 40.8446 26.3773C40.66 26.4057 40.4796 26.4313 40.3034 26.454C40.1301 26.4739 39.9895 26.4909 39.8816 26.5051C39.6202 26.5392 39.3759 26.5946 39.1486 26.6713C38.9242 26.7452 38.7424 26.8574 38.6032 27.008C38.4668 27.1557 38.3986 27.3574 38.3986 27.6131C38.3986 27.9625 38.5279 28.2267 38.7864 28.4057C39.0478 28.5819 39.3787 28.6699 39.7793 28.6699Z" fill="white"/>
<path d="M14.4993 54.4199V42.7836H18.8629C19.7569 42.7836 20.5069 42.9389 21.1129 43.2495C21.7228 43.5601 22.183 43.9957 22.4936 44.5563C22.808 45.1131 22.9652 45.7627 22.9652 46.5051C22.9652 47.2514 22.8061 47.8991 22.4879 48.4483C22.1735 48.9938 21.7095 49.4161 21.0959 49.7154C20.4822 50.0108 19.7285 50.1586 18.8345 50.1586H15.7266V48.4086H18.5504C19.0732 48.4086 19.5012 48.3366 19.8345 48.1926C20.1679 48.0449 20.4141 47.8309 20.5732 47.5506C20.736 47.2665 20.8175 46.918 20.8175 46.5051C20.8175 46.0923 20.736 45.74 20.5732 45.4483C20.4103 45.1529 20.1622 44.9294 19.8288 44.7779C19.4955 44.6226 19.0656 44.5449 18.5391 44.5449H16.6072V54.4199H14.4993ZM20.5107 49.1472L23.3913 54.4199H21.0391L18.2095 49.1472H20.5107ZM28.1669 55.8745V41.329H29.0987V55.8745H28.1669ZM30.8544 45.9824C30.8014 45.4862 30.5779 45.0998 30.1839 44.8233C29.7938 44.5468 29.2862 44.4086 28.6612 44.4086C28.2218 44.4086 27.8449 44.4748 27.5305 44.6074C27.2161 44.74 26.9756 44.9199 26.8089 45.1472C26.6423 45.3745 26.5571 45.6339 26.5533 45.9256C26.5533 46.168 26.6082 46.3783 26.718 46.5563C26.8317 46.7343 26.9851 46.8858 27.1783 47.0108C27.3714 47.132 27.5855 47.2343 27.8203 47.3176C28.0552 47.401 28.2919 47.4711 28.5305 47.5279L29.6214 47.8006C30.0608 47.9029 30.4832 48.0411 30.8885 48.2154C31.2976 48.3896 31.6631 48.6093 31.9851 48.8745C32.3108 49.1396 32.5684 49.4597 32.7578 49.8347C32.9472 50.2097 33.0419 50.6491 33.0419 51.1529C33.0419 51.8347 32.8677 52.4351 32.5192 52.954C32.1707 53.4692 31.6669 53.8726 31.0078 54.1642C30.3525 54.4521 29.5589 54.5961 28.6271 54.5961C27.7218 54.5961 26.9358 54.4559 26.2692 54.1756C25.6063 53.8953 25.0874 53.4862 24.7124 52.9483C24.3411 52.4105 24.1404 51.7551 24.1101 50.9824H26.1839C26.2143 51.3877 26.3393 51.7248 26.5589 51.9938C26.7786 52.2627 27.0646 52.4635 27.4169 52.5961C27.773 52.7286 28.1707 52.7949 28.6101 52.7949C29.0684 52.7949 29.4699 52.7267 29.8146 52.5904C30.1631 52.4502 30.4358 52.257 30.6328 52.0108C30.8298 51.7608 30.9302 51.4692 30.9339 51.1358C30.9302 50.8328 30.8411 50.5828 30.6669 50.3858C30.4927 50.1851 30.2483 50.0184 29.9339 49.8858C29.6233 49.7495 29.2597 49.6283 28.843 49.5222L27.5192 49.1813C26.5608 48.9351 25.8033 48.562 25.2464 48.062C24.6934 47.5582 24.4169 46.8896 24.4169 46.0563C24.4169 45.3707 24.6025 44.7703 24.9737 44.2551C25.3487 43.74 25.8582 43.3404 26.5021 43.0563C27.1461 42.7684 27.8752 42.6245 28.6896 42.6245C29.5154 42.6245 30.2389 42.7684 30.8601 43.0563C31.4851 43.3404 31.9756 43.7362 32.3317 44.2438C32.6877 44.7476 32.8714 45.3271 32.8828 45.9824H30.8544ZM42.7592 42.7836V54.4199H40.6513V44.8347H40.5831L37.8615 46.5733V44.6415L40.7536 42.7836H42.7592ZM49.6399 54.6415C48.7043 54.6415 47.9013 54.4048 47.2308 53.9313C46.5642 53.454 46.0509 52.7665 45.6911 51.8688C45.335 50.9673 45.157 49.882 45.157 48.6131C45.1607 47.3442 45.3407 46.2646 45.6967 45.3745C46.0566 44.4805 46.5698 43.7987 47.2365 43.329C47.907 42.8593 48.7081 42.6245 49.6399 42.6245C50.5717 42.6245 51.3729 42.8593 52.0433 43.329C52.7138 43.7987 53.227 44.4805 53.5831 45.3745C53.9429 46.2684 54.1229 47.348 54.1229 48.6131C54.1229 49.8858 53.9429 50.973 53.5831 51.8745C53.227 52.7722 52.7138 53.4578 52.0433 53.9313C51.3767 54.4048 50.5755 54.6415 49.6399 54.6415ZM49.6399 52.8631C50.3672 52.8631 50.9411 52.5051 51.3615 51.7892C51.7857 51.0695 51.9979 50.0108 51.9979 48.6131C51.9979 47.6889 51.9013 46.9123 51.7081 46.2836C51.5149 45.6548 51.2422 45.1813 50.8899 44.8631C50.5376 44.5411 50.121 44.3801 49.6399 44.3801C48.9164 44.3801 48.3445 44.74 47.924 45.4597C47.5036 46.1756 47.2914 47.2267 47.2876 48.6131C47.2839 49.5411 47.3767 50.3214 47.5661 50.954C47.7592 51.5866 48.032 52.0639 48.3842 52.3858C48.7365 52.704 49.1551 52.8631 49.6399 52.8631ZM59.8118 54.579C58.9936 54.579 58.2663 54.4389 57.63 54.1586C56.9974 53.8783 56.4974 53.4881 56.13 52.9881C55.7625 52.4881 55.5675 51.9105 55.5447 51.2551H57.6811C57.7 51.5695 57.8042 51.8442 57.9936 52.079C58.183 52.3101 58.4349 52.49 58.7493 52.6188C59.0637 52.7476 59.416 52.812 59.8061 52.812C60.2228 52.812 60.5921 52.74 60.9141 52.5961C61.236 52.4483 61.4879 52.2438 61.6697 51.9824C61.8516 51.7211 61.9406 51.4199 61.9368 51.079C61.9406 50.7267 61.8497 50.4161 61.6641 50.1472C61.4785 49.8783 61.2095 49.668 60.8572 49.5165C60.5088 49.365 60.0883 49.2892 59.5959 49.2892H58.5675V47.6642H59.5959C60.0012 47.6642 60.3554 47.5942 60.6584 47.454C60.9652 47.3139 61.2057 47.1169 61.38 46.8631C61.5542 46.6055 61.6394 46.3082 61.6357 45.9711C61.6394 45.6415 61.5656 45.3555 61.4141 45.1131C61.2663 44.8669 61.0561 44.6756 60.7834 44.5392C60.5144 44.4029 60.1982 44.3347 59.8345 44.3347C59.4785 44.3347 59.1489 44.3991 58.8459 44.5279C58.5429 44.6567 58.2985 44.8404 58.1129 45.079C57.9273 45.3139 57.8288 45.5942 57.8175 45.9199H55.7891C55.8042 45.2684 55.9917 44.6964 56.3516 44.204C56.7152 43.7078 57.2 43.3214 57.8061 43.0449C58.4122 42.7646 59.0921 42.6245 59.8459 42.6245C60.6224 42.6245 61.2966 42.7703 61.8686 43.062C62.4444 43.3498 62.8894 43.7381 63.2038 44.2267C63.5182 44.7154 63.6754 45.2551 63.6754 45.8461C63.6792 46.5014 63.486 47.0506 63.0959 47.4938C62.7095 47.937 62.2019 48.2267 61.5732 48.3631V48.454C62.3913 48.5676 63.0182 48.8707 63.4538 49.3631C63.8932 49.8517 64.111 50.4597 64.1072 51.187C64.1072 51.8385 63.9216 52.4218 63.5504 52.937C63.183 53.4483 62.6754 53.8498 62.0277 54.1415C61.3838 54.4332 60.6451 54.579 59.8118 54.579ZM66.6286 54.5449C66.2839 54.5449 65.9884 54.4237 65.7422 54.1813C65.496 53.9389 65.3748 53.6434 65.3786 53.2949C65.3748 52.954 65.496 52.6623 65.7422 52.4199C65.9884 52.1775 66.2839 52.0563 66.6286 52.0563C66.9619 52.0563 67.2517 52.1775 67.4979 52.4199C67.7479 52.6623 67.8748 52.954 67.8786 53.2949C67.8748 53.526 67.8142 53.7362 67.6967 53.9256C67.5831 54.115 67.4316 54.2665 67.2422 54.3801C67.0566 54.49 66.852 54.5449 66.6286 54.5449ZM73.4126 54.579C72.8558 54.5752 72.3123 54.4786 71.782 54.2892C71.2517 54.0961 70.7744 53.7836 70.3501 53.3517C69.9259 52.9161 69.5888 52.3385 69.3388 51.6188C69.0888 50.8953 68.9657 49.9995 68.9695 48.9313C68.9695 47.9351 69.0755 47.0468 69.2876 46.2665C69.4998 45.4862 69.8047 44.8271 70.2024 44.2892C70.6001 43.7476 71.0793 43.3347 71.6399 43.0506C72.2043 42.7665 72.835 42.6245 73.532 42.6245C74.263 42.6245 74.9107 42.7684 75.4751 43.0563C76.0433 43.3442 76.5017 43.7381 76.8501 44.2381C77.1986 44.7343 77.4145 45.2949 77.4979 45.9199H75.424C75.3179 45.473 75.1001 45.1169 74.7706 44.8517C74.4448 44.5828 74.032 44.4483 73.532 44.4483C72.7251 44.4483 72.1039 44.7987 71.6683 45.4995C71.2365 46.2002 71.0187 47.1623 71.0149 48.3858H71.0945C71.2801 48.0525 71.5206 47.7665 71.8161 47.5279C72.1115 47.2892 72.4448 47.1055 72.8161 46.9767C73.1911 46.8442 73.5869 46.7779 74.0036 46.7779C74.6854 46.7779 75.2971 46.9408 75.8388 47.2665C76.3842 47.5923 76.8161 48.0411 77.1342 48.6131C77.4524 49.1813 77.6096 49.8328 77.6058 50.5676C77.6096 51.3328 77.4354 52.0203 77.0831 52.6301C76.7308 53.2362 76.2403 53.7135 75.6115 54.062C74.9827 54.4105 74.2498 54.5828 73.4126 54.579ZM73.4013 52.8745C73.8142 52.8745 74.1835 52.7741 74.5092 52.5733C74.835 52.3726 75.0926 52.1017 75.282 51.7608C75.4714 51.4199 75.5642 51.0373 75.5604 50.6131C75.5642 50.1964 75.4732 49.8195 75.2876 49.4824C75.1058 49.1453 74.8539 48.8783 74.532 48.6813C74.21 48.4843 73.8426 48.3858 73.4297 48.3858C73.1229 48.3858 72.8369 48.4445 72.5717 48.562C72.3066 48.6794 72.0755 48.8423 71.8786 49.0506C71.6816 49.2551 71.5263 49.4938 71.4126 49.7665C71.3028 50.0355 71.246 50.3233 71.2422 50.6301C71.246 51.0355 71.3407 51.4086 71.5263 51.7495C71.7119 52.0904 71.9676 52.3631 72.2933 52.5676C72.6191 52.7722 72.9884 52.8745 73.4013 52.8745ZM83.1911 42.6245C83.7479 42.6283 84.2895 42.7267 84.8161 42.9199C85.3464 43.1093 85.8236 43.4199 86.2479 43.8517C86.6721 44.2798 87.0092 44.8536 87.2592 45.5733C87.5092 46.293 87.6342 47.1832 87.6342 48.2438C87.638 49.2438 87.532 50.1377 87.3161 50.9256C87.1039 51.7097 86.799 52.3726 86.4013 52.9142C86.0036 53.4559 85.5244 53.8688 84.9638 54.1529C84.4032 54.437 83.7725 54.579 83.0717 54.579C82.3369 54.579 81.6854 54.4351 81.1172 54.1472C80.5528 53.8593 80.0964 53.4654 79.7479 52.9654C79.3994 52.4654 79.1854 51.8934 79.1058 51.2495H81.1797C81.2857 51.7116 81.5017 52.079 81.8274 52.3517C82.157 52.6207 82.5717 52.7551 83.0717 52.7551C83.8786 52.7551 84.4998 52.4048 84.9354 51.704C85.371 51.0033 85.5888 50.0298 85.5888 48.7836H85.5092C85.3236 49.1169 85.0831 49.4048 84.7876 49.6472C84.4922 49.8858 84.157 50.0695 83.782 50.1983C83.4107 50.3271 83.0168 50.3915 82.6001 50.3915C81.9183 50.3915 81.3047 50.2286 80.7592 49.9029C80.2176 49.5771 79.7876 49.1301 79.4695 48.562C79.1551 47.9938 78.996 47.3442 78.9922 46.6131C78.9922 45.8555 79.1664 45.1756 79.5149 44.5733C79.8672 43.9673 80.3577 43.49 80.9865 43.1415C81.6153 42.7892 82.3501 42.6169 83.1911 42.6245ZM83.1967 44.329C82.7876 44.329 82.4183 44.4294 82.0888 44.6301C81.763 44.8271 81.5054 45.0961 81.3161 45.437C81.1304 45.7741 81.0376 46.151 81.0376 46.5676C81.0414 46.9805 81.1342 47.3555 81.3161 47.6926C81.5017 48.0298 81.7536 48.2968 82.0717 48.4938C82.3937 48.6908 82.7611 48.7892 83.174 48.7892C83.4808 48.7892 83.7668 48.7305 84.032 48.6131C84.2971 48.4957 84.5282 48.3328 84.7251 48.1245C84.9259 47.9123 85.0812 47.6718 85.1911 47.4029C85.3047 47.1339 85.3596 46.8498 85.3558 46.5506C85.3558 46.1529 85.2611 45.7855 85.0717 45.4483C84.8861 45.1112 84.6304 44.8404 84.3047 44.6358C83.9827 44.4313 83.6134 44.329 83.1967 44.329ZM89.2649 54.4199L94.2138 44.6245V44.5449H88.4695V42.7836H96.3956V44.5847L91.4524 54.4199H89.2649ZM98.2919 52.829L98.218 53.454C98.165 53.9313 98.0703 54.4161 97.9339 54.9086C97.8014 55.4048 97.6612 55.8612 97.5135 56.2779C97.3658 56.6945 97.2464 57.0222 97.1555 57.2608H95.7692C95.8222 57.0298 95.8942 56.7154 95.9851 56.3176C96.0798 55.9199 96.1707 55.473 96.2578 54.9767C96.3449 54.4805 96.4036 53.9767 96.4339 53.4654L96.4737 52.829H98.2919ZM104.006 54.579C103.45 54.5752 102.906 54.4786 102.376 54.2892C101.845 54.0961 101.368 53.7836 100.944 53.3517C100.52 52.9161 100.183 52.3385 99.9325 51.6188C99.6825 50.8953 99.5594 49.9995 99.5632 48.9313C99.5632 47.9351 99.6693 47.0468 99.8814 46.2665C100.094 45.4862 100.398 44.8271 100.796 44.2892C101.194 43.7476 101.673 43.3347 102.234 43.0506C102.798 42.7665 103.429 42.6245 104.126 42.6245C104.857 42.6245 105.504 42.7684 106.069 43.0563C106.637 43.3442 107.095 43.7381 107.444 44.2381C107.792 44.7343 108.008 45.2949 108.092 45.9199H106.018C105.912 45.473 105.694 45.1169 105.364 44.8517C105.039 44.5828 104.626 44.4483 104.126 44.4483C103.319 44.4483 102.698 44.7987 102.262 45.4995C101.83 46.2002 101.612 47.1623 101.609 48.3858H101.688C101.874 48.0525 102.114 47.7665 102.41 47.5279C102.705 47.2892 103.039 47.1055 103.41 46.9767C103.785 46.8442 104.181 46.7779 104.597 46.7779C105.279 46.7779 105.891 46.9408 106.433 47.2665C106.978 47.5923 107.41 48.0411 107.728 48.6131C108.046 49.1813 108.203 49.8328 108.2 50.5676C108.203 51.3328 108.029 52.0203 107.677 52.6301C107.325 53.2362 106.834 53.7135 106.205 54.062C105.576 54.4105 104.844 54.5828 104.006 54.579ZM103.995 52.8745C104.408 52.8745 104.777 52.7741 105.103 52.5733C105.429 52.3726 105.686 52.1017 105.876 51.7608C106.065 51.4199 106.158 51.0373 106.154 50.6131C106.158 50.1964 106.067 49.8195 105.881 49.4824C105.7 49.1453 105.448 48.8783 105.126 48.6813C104.804 48.4843 104.436 48.3858 104.023 48.3858C103.717 48.3858 103.431 48.4445 103.165 48.562C102.9 48.6794 102.669 48.8423 102.472 49.0506C102.275 49.2551 102.12 49.4938 102.006 49.7665C101.897 50.0355 101.84 50.3233 101.836 50.6301C101.84 51.0355 101.934 51.4086 102.12 51.7495C102.306 52.0904 102.561 52.3631 102.887 52.5676C103.213 52.7722 103.582 52.8745 103.995 52.8745ZM109.745 54.4199V52.8972L113.785 48.937C114.171 48.5468 114.493 48.2002 114.751 47.8972C115.008 47.5942 115.201 47.3006 115.33 47.0165C115.459 46.7324 115.523 46.4294 115.523 46.1074C115.523 45.74 115.44 45.4256 115.273 45.1642C115.107 44.8991 114.878 44.6945 114.586 44.5506C114.294 44.4067 113.963 44.3347 113.592 44.3347C113.209 44.3347 112.874 44.4142 112.586 44.5733C112.298 44.7286 112.075 44.9502 111.915 45.2381C111.76 45.526 111.683 45.8688 111.683 46.2665H109.677C109.677 45.5279 109.845 44.8858 110.183 44.3404C110.52 43.7949 110.984 43.3726 111.575 43.0733C112.169 42.7741 112.851 42.6245 113.62 42.6245C114.4 42.6245 115.086 42.7703 115.677 43.062C116.268 43.3536 116.726 43.7533 117.052 44.2608C117.381 44.7684 117.546 45.348 117.546 45.9995C117.546 46.4351 117.463 46.8631 117.296 47.2836C117.129 47.704 116.836 48.1699 116.415 48.6813C115.999 49.1926 115.414 49.812 114.66 50.5392L112.654 52.579V52.6586H117.722V54.4199H109.745Z" fill="white"/>
<path d="M159.104 52.5392C158.542 52.5392 158.04 52.4426 157.6 52.2495C157.162 52.0563 156.814 51.7878 156.556 51.4441C156.3 51.0975 156.161 50.6955 156.138 50.2381H157.212C157.235 50.5194 157.331 50.7623 157.502 50.9668C157.672 51.1685 157.895 51.3248 158.171 51.4355C158.447 51.5463 158.752 51.6017 159.087 51.6017C159.462 51.6017 159.795 51.5364 160.084 51.4057C160.374 51.275 160.601 51.0932 160.766 50.8603C160.931 50.6273 161.013 50.3574 161.013 50.0506C161.013 49.7296 160.934 49.4469 160.775 49.2026C160.616 48.9554 160.383 48.7623 160.076 48.623C159.769 48.4838 159.394 48.4142 158.951 48.4142H158.252V47.4767H158.951C159.297 47.4767 159.601 47.4142 159.863 47.2892C160.127 47.1642 160.333 46.9881 160.481 46.7608C160.631 46.5336 160.706 46.2665 160.706 45.9597C160.706 45.6642 160.641 45.4071 160.51 45.1884C160.38 44.9696 160.195 44.7992 159.956 44.677C159.721 44.5549 159.442 44.4938 159.121 44.4938C158.82 44.4938 158.536 44.5492 158.269 44.66C158.005 44.7679 157.789 44.9256 157.621 45.133C157.454 45.3375 157.363 45.5847 157.349 45.8745H156.326C156.343 45.4171 156.481 45.0165 156.739 44.6728C156.998 44.3262 157.336 44.0563 157.753 43.8631C158.174 43.6699 158.635 43.5733 159.138 43.5733C159.678 43.5733 160.141 43.6827 160.528 43.9015C160.914 44.1174 161.211 44.4029 161.418 44.758C161.626 45.1131 161.729 45.4966 161.729 45.9086C161.729 46.4 161.6 46.8191 161.341 47.1657C161.086 47.5123 160.738 47.7523 160.297 47.8858V47.954C160.849 48.0449 161.279 48.2793 161.589 48.6571C161.898 49.0321 162.053 49.4966 162.053 50.0506C162.053 50.525 161.924 50.9512 161.665 51.329C161.41 51.704 161.06 51.9995 160.617 52.2154C160.174 52.4313 159.67 52.5392 159.104 52.5392ZM163.694 52.4199L167.597 44.6983V44.6301H163.097V43.6926H168.688V44.6813L164.802 52.4199H163.694ZM174.35 50.7836V50.3233C174.35 50.0051 174.416 49.714 174.546 49.4498C174.68 49.1827 174.873 48.9696 175.126 48.8105C175.382 48.6486 175.691 48.5676 176.055 48.5676C176.424 48.5676 176.734 48.6486 176.984 48.8105C177.234 48.9696 177.423 49.1827 177.551 49.4498C177.678 49.714 177.742 50.0051 177.742 50.3233V50.7836C177.742 51.1017 177.677 51.3944 177.546 51.6614C177.419 51.9256 177.228 52.1387 176.975 52.3006C176.725 52.4597 176.419 52.5392 176.055 52.5392C175.686 52.5392 175.374 52.4597 175.122 52.3006C174.869 52.1387 174.677 51.9256 174.546 51.6614C174.416 51.3944 174.35 51.1017 174.35 50.7836ZM175.22 50.3233V50.7836C175.22 51.0478 175.282 51.285 175.407 51.4952C175.532 51.7026 175.748 51.8063 176.055 51.8063C176.353 51.8063 176.563 51.7026 176.686 51.4952C176.811 51.285 176.873 51.0478 176.873 50.7836V50.3233C176.873 50.0591 176.813 49.8233 176.694 49.6159C176.575 49.4057 176.362 49.3006 176.055 49.3006C175.757 49.3006 175.542 49.4057 175.411 49.6159C175.284 49.8233 175.22 50.0591 175.22 50.3233ZM170.004 45.7892V45.329C170.004 45.0108 170.069 44.7196 170.2 44.4554C170.333 44.1884 170.526 43.9753 170.779 43.8162C171.035 43.6543 171.345 43.5733 171.708 43.5733C172.078 43.5733 172.387 43.6543 172.637 43.8162C172.887 43.9753 173.076 44.1884 173.204 44.4554C173.332 44.7196 173.396 45.0108 173.396 45.329V45.7892C173.396 46.1074 173.33 46.4 173.2 46.6671C173.072 46.9313 172.882 47.1444 172.629 47.3063C172.379 47.4654 172.072 47.5449 171.708 47.5449C171.339 47.5449 171.028 47.4654 170.775 47.3063C170.522 47.1444 170.33 46.9313 170.2 46.6671C170.069 46.4 170.004 46.1074 170.004 45.7892ZM170.873 45.329V45.7892C170.873 46.0534 170.936 46.2907 171.061 46.5009C171.186 46.7083 171.401 46.812 171.708 46.812C172.007 46.812 172.217 46.7083 172.339 46.5009C172.464 46.2907 172.526 46.0534 172.526 45.7892V45.329C172.526 45.0648 172.467 44.829 172.347 44.6216C172.228 44.4114 172.015 44.3063 171.708 44.3063C171.41 44.3063 171.195 44.4114 171.065 44.6216C170.937 44.829 170.873 45.0648 170.873 45.329ZM170.328 52.4199L176.328 43.6926H177.299L171.299 52.4199H170.328Z" fill="#00B37E"/>
<path d="M150.685 52.048C150.725 52.0886 150.758 52.1369 150.78 52.19C150.802 52.2431 150.813 52.3 150.813 52.3575C150.813 52.415 150.802 52.4719 150.78 52.525C150.758 52.5781 150.725 52.6264 150.685 52.6671C150.644 52.7077 150.596 52.7399 150.543 52.7619C150.49 52.7839 150.433 52.7953 150.375 52.7953C150.318 52.7953 150.261 52.7839 150.208 52.7619C150.155 52.7399 150.106 52.7077 150.066 52.6671L146 48.601L141.935 52.6671C141.853 52.7491 141.741 52.7953 141.625 52.7953C141.509 52.7953 141.398 52.7491 141.316 52.6671C141.234 52.585 141.188 52.4736 141.188 52.3575C141.187 52.2414 141.234 52.1301 141.316 52.048L145.691 47.673C145.731 47.6323 145.78 47.6 145.833 47.578C145.886 47.556 145.943 47.5447 146 47.5447C146.058 47.5447 146.115 47.556 146.168 47.578C146.221 47.6 146.269 47.6323 146.31 47.673L150.685 52.048ZM141.935 48.2921L146 44.226L150.066 48.2921C150.106 48.3327 150.155 48.3649 150.208 48.3869C150.261 48.4089 150.318 48.4203 150.375 48.4203C150.433 48.4203 150.49 48.4089 150.543 48.3869C150.596 48.3649 150.644 48.3327 150.685 48.2921C150.725 48.2514 150.758 48.2031 150.78 48.15C150.802 48.0969 150.813 48.04 150.813 47.9825C150.813 47.925 150.802 47.8681 150.78 47.815C150.758 47.7619 150.725 47.7136 150.685 47.673L146.31 43.298C146.269 43.2573 146.221 43.225 146.168 43.203C146.115 43.181 146.058 43.1697 146 43.1697C145.943 43.1697 145.886 43.181 145.833 43.203C145.78 43.225 145.731 43.2573 145.691 43.298L141.316 47.673C141.234 47.7551 141.187 47.8664 141.188 47.9825C141.188 48.0986 141.234 48.21 141.316 48.2921C141.398 48.3741 141.509 48.4203 141.625 48.4203C141.741 48.4203 141.853 48.3741 141.935 48.2921Z" fill="#00B37E"/>
<path d="M10.3317 73.5108V76.4199H9.9794V73.8801H9.96236L9.25213 74.3517V73.9938L9.9794 73.5108H10.3317ZM11.7422 76.4597C11.5282 76.4597 11.3459 76.4015 11.1953 76.285C11.0447 76.1676 10.9297 75.9976 10.8501 75.775C10.7706 75.5516 10.7308 75.2817 10.7308 74.9654C10.7308 74.651 10.7706 74.3825 10.8501 74.16C10.9306 73.9365 11.0462 73.766 11.1967 73.6486C11.3482 73.5302 11.5301 73.4711 11.7422 73.4711C11.9543 73.4711 12.1357 73.5302 12.2862 73.6486C12.4377 73.766 12.5533 73.9365 12.6328 74.16C12.7133 74.3825 12.7536 74.651 12.7536 74.9654C12.7536 75.2817 12.7138 75.5516 12.6342 75.775C12.5547 75.9976 12.4396 76.1676 12.2891 76.285C12.1385 76.4015 11.9562 76.4597 11.7422 76.4597ZM11.7422 76.1472C11.9543 76.1472 12.1191 76.0449 12.2365 75.8404C12.3539 75.6358 12.4126 75.3442 12.4126 74.9654C12.4126 74.7135 12.3857 74.499 12.3317 74.3219C12.2786 74.1448 12.2019 74.0099 12.1016 73.9171C12.0021 73.8243 11.8823 73.7779 11.7422 73.7779C11.532 73.7779 11.3677 73.8816 11.2493 74.089C11.1309 74.2954 11.0717 74.5875 11.0717 74.9654C11.0717 75.2173 11.0982 75.4313 11.1513 75.6074C11.2043 75.7836 11.2805 75.9176 11.38 76.0094C11.4804 76.1013 11.6011 76.1472 11.7422 76.1472ZM13.8672 76.4597C13.6532 76.4597 13.4709 76.4015 13.3203 76.285C13.1697 76.1676 13.0547 75.9976 12.9751 75.775C12.8956 75.5516 12.8558 75.2817 12.8558 74.9654C12.8558 74.651 12.8956 74.3825 12.9751 74.16C13.0556 73.9365 13.1712 73.766 13.3217 73.6486C13.4732 73.5302 13.6551 73.4711 13.8672 73.4711C14.0793 73.4711 14.2607 73.5302 14.4112 73.6486C14.5627 73.766 14.6783 73.9365 14.7578 74.16C14.8383 74.3825 14.8786 74.651 14.8786 74.9654C14.8786 75.2817 14.8388 75.5516 14.7592 75.775C14.6797 75.9976 14.5646 76.1676 14.4141 76.285C14.2635 76.4015 14.0812 76.4597 13.8672 76.4597ZM13.8672 76.1472C14.0793 76.1472 14.2441 76.0449 14.3615 75.8404C14.4789 75.6358 14.5376 75.3442 14.5376 74.9654C14.5376 74.7135 14.5107 74.499 14.4567 74.3219C14.4036 74.1448 14.3269 74.0099 14.2266 73.9171C14.1271 73.8243 14.0073 73.7779 13.8672 73.7779C13.657 73.7779 13.4927 73.8816 13.3743 74.089C13.2559 74.2954 13.1967 74.5875 13.1967 74.9654C13.1967 75.2173 13.2232 75.4313 13.2763 75.6074C13.3293 75.7836 13.4055 75.9176 13.505 76.0094C13.6054 76.1013 13.7261 76.1472 13.8672 76.1472ZM16.5263 75.8745V75.7211C16.5263 75.615 16.5481 75.5179 16.5916 75.4299C16.6361 75.3408 16.7005 75.2698 16.7848 75.2168C16.87 75.1628 16.9732 75.1358 17.0945 75.1358C17.2176 75.1358 17.3208 75.1628 17.4041 75.2168C17.4875 75.2698 17.5504 75.3408 17.593 75.4299C17.6357 75.5179 17.657 75.615 17.657 75.7211V75.8745C17.657 75.9805 17.6352 76.0781 17.5916 76.1671C17.549 76.2551 17.4856 76.3262 17.4013 76.3801C17.3179 76.4332 17.2157 76.4597 17.0945 76.4597C16.9714 76.4597 16.8677 76.4332 16.7834 76.3801C16.6991 76.3262 16.6352 76.2551 16.5916 76.1671C16.5481 76.0781 16.5263 75.9805 16.5263 75.8745ZM16.8161 75.7211V75.8745C16.8161 75.9625 16.8369 76.0416 16.8786 76.1117C16.9202 76.1808 16.9922 76.2154 17.0945 76.2154C17.1939 76.2154 17.264 76.1808 17.3047 76.1117C17.3464 76.0416 17.3672 75.9625 17.3672 75.8745V75.7211C17.3672 75.633 17.3473 75.5544 17.3075 75.4853C17.2678 75.4152 17.1967 75.3801 17.0945 75.3801C16.995 75.3801 16.9235 75.4152 16.88 75.4853C16.8374 75.5544 16.8161 75.633 16.8161 75.7211ZM15.0774 74.2097V74.0563C15.0774 73.9502 15.0992 73.8532 15.1428 73.7651C15.1873 73.6761 15.2517 73.6051 15.3359 73.552C15.4212 73.498 15.5244 73.4711 15.6456 73.4711C15.7687 73.4711 15.8719 73.498 15.9553 73.552C16.0386 73.6051 16.1016 73.6761 16.1442 73.7651C16.1868 73.8532 16.2081 73.9502 16.2081 74.0563V74.2097C16.2081 74.3158 16.1863 74.4133 16.1428 74.5023C16.1001 74.5904 16.0367 74.6614 15.9524 74.7154C15.8691 74.7684 15.7668 74.7949 15.6456 74.7949C15.5225 74.7949 15.4188 74.7684 15.3345 74.7154C15.2502 74.6614 15.1863 74.5904 15.1428 74.5023C15.0992 74.4133 15.0774 74.3158 15.0774 74.2097ZM15.3672 74.0563V74.2097C15.3672 74.2978 15.388 74.3768 15.4297 74.4469C15.4714 74.516 15.5433 74.5506 15.6456 74.5506C15.745 74.5506 15.8151 74.516 15.8558 74.4469C15.8975 74.3768 15.9183 74.2978 15.9183 74.2097V74.0563C15.9183 73.9682 15.8984 73.8896 15.8587 73.8205C15.8189 73.7504 15.7479 73.7154 15.6456 73.7154C15.5462 73.7154 15.4747 73.7504 15.4311 73.8205C15.3885 73.8896 15.3672 73.9682 15.3672 74.0563ZM15.1854 76.4199L17.1854 73.5108H17.5092L15.5092 76.4199H15.1854Z" fill="#B1ACAC"/>
<path d="M170.382 125.511V128.42H170.03V125.88H170.013L169.303 126.352V125.994L170.03 125.511H170.382ZM171.793 128.46C171.579 128.46 171.397 128.401 171.246 128.285C171.096 128.168 170.98 127.998 170.901 127.775C170.821 127.552 170.782 127.282 170.782 126.965C170.782 126.651 170.821 126.383 170.901 126.16C170.981 125.936 171.097 125.766 171.248 125.649C171.399 125.53 171.581 125.471 171.793 125.471C172.005 125.471 172.186 125.53 172.337 125.649C172.489 125.766 172.604 125.936 172.684 126.16C172.764 126.383 172.804 126.651 172.804 126.965C172.804 127.282 172.765 127.552 172.685 127.775C172.605 127.998 172.49 128.168 172.34 128.285C172.189 128.401 172.007 128.46 171.793 128.46ZM171.793 128.147C172.005 128.147 172.17 128.045 172.287 127.84C172.405 127.636 172.463 127.344 172.463 126.965C172.463 126.713 172.436 126.499 172.382 126.322C172.329 126.145 172.253 126.01 172.152 125.917C172.053 125.824 171.933 125.778 171.793 125.778C171.583 125.778 171.418 125.882 171.3 126.089C171.182 126.295 171.123 126.588 171.123 126.965C171.123 127.217 171.149 127.431 171.202 127.607C171.255 127.784 171.331 127.918 171.431 128.009C171.531 128.101 171.652 128.147 171.793 128.147ZM173.118 128.443C173.047 128.443 172.987 128.418 172.937 128.367C172.887 128.317 172.862 128.257 172.862 128.187C172.862 128.117 172.887 128.057 172.937 128.007C172.987 127.956 173.047 127.931 173.118 127.931C173.188 127.931 173.248 127.956 173.298 128.007C173.348 128.057 173.373 128.117 173.373 128.187C173.373 128.233 173.361 128.276 173.338 128.315C173.315 128.354 173.284 128.385 173.245 128.409C173.208 128.431 173.165 128.443 173.118 128.443ZM174.441 128.46C174.227 128.46 174.045 128.401 173.895 128.285C173.744 128.168 173.629 127.998 173.549 127.775C173.47 127.552 173.43 127.282 173.43 126.965C173.43 126.651 173.47 126.383 173.549 126.16C173.63 125.936 173.745 125.766 173.896 125.649C174.047 125.53 174.229 125.471 174.441 125.471C174.654 125.471 174.835 125.53 174.985 125.649C175.137 125.766 175.252 125.936 175.332 126.16C175.413 126.383 175.453 126.651 175.453 126.965C175.453 127.282 175.413 127.552 175.333 127.775C175.254 127.998 175.139 128.168 174.988 128.285C174.838 128.401 174.655 128.46 174.441 128.46ZM174.441 128.147C174.654 128.147 174.818 128.045 174.936 127.84C175.053 127.636 175.112 127.344 175.112 126.965C175.112 126.713 175.085 126.499 175.031 126.322C174.978 126.145 174.901 126.01 174.801 125.917C174.701 125.824 174.582 125.778 174.441 125.778C174.231 125.778 174.067 125.882 173.949 126.089C173.83 126.295 173.771 126.588 173.771 126.965C173.771 127.217 173.797 127.431 173.85 127.607C173.904 127.784 173.98 127.918 174.079 128.009C174.18 128.101 174.3 128.147 174.441 128.147ZM176.566 128.46C176.352 128.46 176.17 128.401 176.02 128.285C175.869 128.168 175.754 127.998 175.674 127.775C175.595 127.552 175.555 127.282 175.555 126.965C175.555 126.651 175.595 126.383 175.674 126.16C175.755 125.936 175.87 125.766 176.021 125.649C176.172 125.53 176.354 125.471 176.566 125.471C176.779 125.471 176.96 125.53 177.11 125.649C177.262 125.766 177.377 125.936 177.457 126.16C177.538 126.383 177.578 126.651 177.578 126.965C177.578 127.282 177.538 127.552 177.458 127.775C177.379 127.998 177.264 128.168 177.113 128.285C176.963 128.401 176.78 128.46 176.566 128.46ZM176.566 128.147C176.779 128.147 176.943 128.045 177.061 127.84C177.178 127.636 177.237 127.344 177.237 126.965C177.237 126.713 177.21 126.499 177.156 126.322C177.103 126.145 177.026 126.01 176.926 125.917C176.826 125.824 176.707 125.778 176.566 125.778C176.356 125.778 176.192 125.882 176.074 126.089C175.955 126.295 175.896 126.588 175.896 126.965C175.896 127.217 175.922 127.431 175.975 127.607C176.029 127.784 176.105 127.918 176.204 128.009C176.305 128.101 176.425 128.147 176.566 128.147ZM178.691 128.46C178.477 128.46 178.295 128.401 178.145 128.285C177.994 128.168 177.879 127.998 177.799 127.775C177.72 127.552 177.68 127.282 177.68 126.965C177.68 126.651 177.72 126.383 177.799 126.16C177.88 125.936 177.995 125.766 178.146 125.649C178.297 125.53 178.479 125.471 178.691 125.471C178.904 125.471 179.085 125.53 179.235 125.649C179.387 125.766 179.502 125.936 179.582 126.16C179.663 126.383 179.703 126.651 179.703 126.965C179.703 127.282 179.663 127.552 179.583 127.775C179.504 127.998 179.389 128.168 179.238 128.285C179.088 128.401 178.905 128.46 178.691 128.46ZM178.691 128.147C178.904 128.147 179.068 128.045 179.186 127.84C179.303 127.636 179.362 127.344 179.362 126.965C179.362 126.713 179.335 126.499 179.281 126.322C179.228 126.145 179.151 126.01 179.051 125.917C178.951 125.824 178.832 125.778 178.691 125.778C178.481 125.778 178.317 125.882 178.199 126.089C178.08 126.295 178.021 126.588 178.021 126.965C178.021 127.217 178.047 127.431 178.1 127.607C178.154 127.784 178.23 127.918 178.329 128.009C178.43 128.101 178.55 128.147 178.691 128.147Z" fill="#B1ACAC"/>
<path d="M13.5 128.46C13.286 128.46 13.1037 128.401 12.9531 128.285C12.8026 128.168 12.6875 127.998 12.608 127.775C12.5284 127.552 12.4886 127.282 12.4886 126.965C12.4886 126.651 12.5284 126.383 12.608 126.16C12.6884 125.936 12.804 125.766 12.9545 125.649C13.1061 125.53 13.2879 125.471 13.5 125.471C13.7121 125.471 13.8935 125.53 14.044 125.649C14.1955 125.766 14.3111 125.936 14.3906 126.16C14.4711 126.383 14.5114 126.651 14.5114 126.965C14.5114 127.282 14.4716 127.552 14.392 127.775C14.3125 127.998 14.1974 128.168 14.0469 128.285C13.8963 128.401 13.714 128.46 13.5 128.46ZM13.5 128.147C13.7121 128.147 13.8769 128.045 13.9943 127.84C14.1117 127.636 14.1705 127.344 14.1705 126.965C14.1705 126.713 14.1435 126.499 14.0895 126.322C14.0365 126.145 13.9598 126.01 13.8594 125.917C13.7599 125.824 13.6402 125.778 13.5 125.778C13.2898 125.778 13.1255 125.882 13.0071 126.089C12.8887 126.295 12.8295 126.588 12.8295 126.965C12.8295 127.217 12.8561 127.431 12.9091 127.607C12.9621 127.784 13.0384 127.918 13.1378 128.009C13.2382 128.101 13.3589 128.147 13.5 128.147Z" fill="#B1ACAC"/>
<path d="M10.3022 94.4199L11.6033 91.8461V91.8233H10.1033V91.5108H11.967V91.8404L10.6715 94.4199H10.3022ZM12.9915 94.4597C12.8248 94.4597 12.6747 94.4266 12.5412 94.3603C12.4077 94.294 12.3007 94.2031 12.2202 94.0875C12.1397 93.972 12.0956 93.8404 12.0881 93.6926H12.429C12.4422 93.8243 12.5019 93.9332 12.608 94.0194C12.715 94.1046 12.8428 94.1472 12.9915 94.1472C13.1108 94.1472 13.2169 94.1193 13.3097 94.0634C13.4034 94.0075 13.4768 93.9308 13.5298 93.8333C13.5838 93.7348 13.6108 93.6235 13.6108 93.4995C13.6108 93.3726 13.5829 93.2594 13.527 93.16C13.4721 93.0596 13.3963 92.9805 13.2997 92.9228C13.2031 92.865 13.0928 92.8356 12.9688 92.8347C12.8797 92.8337 12.7884 92.8475 12.6946 92.8759C12.6009 92.9033 12.5237 92.9389 12.4631 92.9824L12.1335 92.9426L12.3097 91.5108H13.821V91.8233H12.6051L12.5028 92.6813H12.5199C12.5795 92.6339 12.6544 92.5946 12.7443 92.5634C12.8343 92.5321 12.928 92.5165 13.0256 92.5165C13.2036 92.5165 13.3622 92.5591 13.5014 92.6444C13.6416 92.7286 13.7514 92.8442 13.831 92.9909C13.9115 93.1377 13.9517 93.3053 13.9517 93.4938C13.9517 93.6794 13.91 93.8451 13.8267 93.9909C13.7443 94.1358 13.6307 94.2504 13.4858 94.3347C13.3409 94.418 13.1761 94.4597 12.9915 94.4597ZM15.6239 93.8745V93.7211C15.6239 93.615 15.6457 93.5179 15.6893 93.4299C15.7338 93.3408 15.7982 93.2698 15.8825 93.2168C15.9677 93.1628 16.0709 93.1358 16.1921 93.1358C16.3152 93.1358 16.4184 93.1628 16.5018 93.2168C16.5851 93.2698 16.6481 93.3408 16.6907 93.4299C16.7333 93.5179 16.7546 93.615 16.7546 93.7211V93.8745C16.7546 93.9805 16.7328 94.0781 16.6893 94.1671C16.6467 94.2551 16.5832 94.3262 16.4989 94.3801C16.4156 94.4332 16.3133 94.4597 16.1921 94.4597C16.069 94.4597 15.9653 94.4332 15.881 94.3801C15.7968 94.3262 15.7328 94.2551 15.6893 94.1671C15.6457 94.0781 15.6239 93.9805 15.6239 93.8745ZM15.9137 93.7211V93.8745C15.9137 93.9625 15.9345 94.0416 15.9762 94.1117C16.0179 94.1808 16.0898 94.2154 16.1921 94.2154C16.2915 94.2154 16.3616 94.1808 16.4023 94.1117C16.444 94.0416 16.4648 93.9625 16.4648 93.8745V93.7211C16.4648 93.633 16.445 93.5544 16.4052 93.4853C16.3654 93.4152 16.2944 93.3801 16.1921 93.3801C16.0927 93.3801 16.0212 93.4152 15.9776 93.4853C15.935 93.5544 15.9137 93.633 15.9137 93.7211ZM14.1751 92.2097V92.0563C14.1751 91.9502 14.1969 91.8532 14.2404 91.7651C14.2849 91.6761 14.3493 91.6051 14.4336 91.552C14.5188 91.498 14.622 91.4711 14.7433 91.4711C14.8664 91.4711 14.9696 91.498 15.0529 91.552C15.1362 91.6051 15.1992 91.6761 15.2418 91.7651C15.2844 91.8532 15.3058 91.9502 15.3058 92.0563V92.2097C15.3058 92.3158 15.284 92.4133 15.2404 92.5023C15.1978 92.5904 15.1344 92.6614 15.0501 92.7154C14.9667 92.7684 14.8645 92.7949 14.7433 92.7949C14.6201 92.7949 14.5165 92.7684 14.4322 92.7154C14.3479 92.6614 14.284 92.5904 14.2404 92.5023C14.1969 92.4133 14.1751 92.3158 14.1751 92.2097ZM14.4648 92.0563V92.2097C14.4648 92.2978 14.4857 92.3768 14.5273 92.4469C14.569 92.516 14.641 92.5506 14.7433 92.5506C14.8427 92.5506 14.9128 92.516 14.9535 92.4469C14.9951 92.3768 15.016 92.2978 15.016 92.2097V92.0563C15.016 91.9682 14.9961 91.8896 14.9563 91.8205C14.9165 91.7504 14.8455 91.7154 14.7433 91.7154C14.6438 91.7154 14.5723 91.7504 14.5288 91.8205C14.4862 91.8896 14.4648 91.9682 14.4648 92.0563ZM14.283 94.4199L16.283 91.5108H16.6069L14.6069 94.4199H14.283Z" fill="#B1ACAC"/>
<path d="M10.1234 112.42V112.164L11.0836 111.113C11.1963 110.99 11.2891 110.883 11.362 110.792C11.435 110.7 11.4889 110.614 11.524 110.534C11.56 110.452 11.5779 110.367 11.5779 110.278C11.5779 110.176 11.5533 110.087 11.5041 110.012C11.4558 109.937 11.3895 109.88 11.3052 109.839C11.2209 109.798 11.1262 109.778 11.0211 109.778C10.9094 109.778 10.8118 109.801 10.7285 109.847C10.6461 109.893 10.5822 109.957 10.5368 110.039C10.4922 110.122 10.47 110.218 10.47 110.329H10.1348C10.1348 110.159 10.1741 110.009 10.2527 109.88C10.3313 109.751 10.4383 109.651 10.5737 109.579C10.71 109.507 10.863 109.471 11.0325 109.471C11.2029 109.471 11.354 109.507 11.4856 109.579C11.6172 109.651 11.7205 109.748 11.7953 109.87C11.8701 109.992 11.9075 110.128 11.9075 110.278C11.9075 110.385 11.8881 110.49 11.8493 110.592C11.8114 110.693 11.7451 110.806 11.6504 110.931C11.5566 111.055 11.4264 111.207 11.2598 111.386L10.6064 112.085V112.107H11.9586V112.42H10.1234ZM13.0794 112.46C12.9127 112.46 12.7626 112.427 12.6291 112.36C12.4956 112.294 12.3886 112.203 12.3081 112.088C12.2276 111.972 12.1835 111.84 12.176 111.693H12.5169C12.5301 111.824 12.5898 111.933 12.6958 112.019C12.8029 112.105 12.9307 112.147 13.0794 112.147C13.1987 112.147 13.3047 112.119 13.3975 112.063C13.4913 112.008 13.5647 111.931 13.6177 111.833C13.6717 111.735 13.6987 111.624 13.6987 111.499C13.6987 111.373 13.6708 111.259 13.6149 111.16C13.56 111.06 13.4842 110.981 13.3876 110.923C13.291 110.865 13.1807 110.836 13.0566 110.835C12.9676 110.834 12.8762 110.847 12.7825 110.876C12.6887 110.903 12.6116 110.939 12.551 110.982L12.2214 110.943L12.3975 109.511H13.9089V109.823H12.693L12.5907 110.681H12.6078C12.6674 110.634 12.7422 110.595 12.8322 110.563C12.9222 110.532 13.0159 110.517 13.1135 110.517C13.2915 110.517 13.4501 110.559 13.5893 110.644C13.7295 110.729 13.8393 110.844 13.9189 110.991C13.9993 111.138 14.0396 111.305 14.0396 111.494C14.0396 111.679 13.9979 111.845 13.9146 111.991C13.8322 112.136 13.7186 112.25 13.5737 112.335C13.4288 112.418 13.264 112.46 13.0794 112.46ZM15.7118 111.874V111.721C15.7118 111.615 15.7336 111.518 15.7772 111.43C15.8217 111.341 15.8861 111.27 15.9703 111.217C16.0556 111.163 16.1588 111.136 16.28 111.136C16.4031 111.136 16.5063 111.163 16.5897 111.217C16.673 111.27 16.736 111.341 16.7786 111.43C16.8212 111.518 16.8425 111.615 16.8425 111.721V111.874C16.8425 111.981 16.8207 112.078 16.7772 112.167C16.7346 112.255 16.6711 112.326 16.5868 112.38C16.5035 112.433 16.4012 112.46 16.28 112.46C16.1569 112.46 16.0532 112.433 15.9689 112.38C15.8846 112.326 15.8207 112.255 15.7772 112.167C15.7336 112.078 15.7118 111.981 15.7118 111.874ZM16.0016 111.721V111.874C16.0016 111.963 16.0224 112.042 16.0641 112.112C16.1058 112.181 16.1777 112.215 16.28 112.215C16.3794 112.215 16.4495 112.181 16.4902 112.112C16.5319 112.042 16.5527 111.963 16.5527 111.874V111.721C16.5527 111.633 16.5328 111.554 16.4931 111.485C16.4533 111.415 16.3823 111.38 16.28 111.38C16.1806 111.38 16.1091 111.415 16.0655 111.485C16.0229 111.554 16.0016 111.633 16.0016 111.721ZM14.263 110.21V110.056C14.263 109.95 14.2847 109.853 14.3283 109.765C14.3728 109.676 14.4372 109.605 14.5215 109.552C14.6067 109.498 14.7099 109.471 14.8311 109.471C14.9542 109.471 15.0575 109.498 15.1408 109.552C15.2241 109.605 15.2871 109.676 15.3297 109.765C15.3723 109.853 15.3936 109.95 15.3936 110.056V110.21C15.3936 110.316 15.3719 110.413 15.3283 110.502C15.2857 110.59 15.2222 110.661 15.138 110.715C15.0546 110.768 14.9524 110.795 14.8311 110.795C14.708 110.795 14.6043 110.768 14.5201 110.715C14.4358 110.661 14.3719 110.59 14.3283 110.502C14.2847 110.413 14.263 110.316 14.263 110.21ZM14.5527 110.056V110.21C14.5527 110.298 14.5736 110.377 14.6152 110.447C14.6569 110.516 14.7289 110.551 14.8311 110.551C14.9306 110.551 15.0007 110.516 15.0414 110.447C15.083 110.377 15.1039 110.298 15.1039 110.21V110.056C15.1039 109.968 15.084 109.89 15.0442 109.82C15.0044 109.75 14.9334 109.715 14.8311 109.715C14.7317 109.715 14.6602 109.75 14.6167 109.82C14.574 109.89 14.5527 109.968 14.5527 110.056ZM14.3709 112.42L16.3709 109.511H16.6948L14.6948 112.42H14.3709Z" fill="#B1ACAC"/>
<rect x="33" y="104.42" width="5" height="19" fill="#00B37E"/>
<rect x="58" y="91.4199" width="5" height="32" fill="#00B37E"/>
<rect x="83" y="99.4199" width="5" height="24" fill="#00B37E"/>
<rect x="108" y="86.4199" width="5" height="37" fill="#00B37E"/>
<rect x="133" y="84.4199" width="5" height="39" fill="#00B37E"/>
<rect x="158" y="86.4199" width="5" height="37" fill="#00B37E"/>
<rect x="42" y="99.4199" width="4" height="24" fill="#00B37E"/>
<rect x="66" y="99.4199" width="5" height="24" fill="#00B37E"/>
<rect x="91" y="80.4199" width="5" height="43" fill="#00B37E"/>
<rect x="116" y="74.4199" width="5" height="49" fill="#00B37E"/>
<rect x="141" y="76.4199" width="5" height="47" fill="#00B37E"/>
<rect x="166" y="94.4199" width="5" height="29" fill="#00B37E"/>
<rect x="25" y="115.42" width="5" height="8" fill="#00B37E"/>
<rect x="50" y="95.4199" width="5" height="28" fill="#00B37E"/>
<rect x="75" y="87.4199" width="5" height="36" fill="#00B37E"/>
<rect x="100" y="92.4199" width="4" height="31" fill="#00B37E"/>
<rect x="125" y="90.4199" width="4" height="33" fill="#00B37E"/>
<rect x="149" y="104.42" width="5" height="19" fill="#00B37E"/>
<rect x="174" y="74.4199" width="5" height="49" fill="#00B37E"/>
<line x1="20.25" y1="73.4199" x2="20.25" y2="123.42" stroke="#B1ACAC" stroke-width="0.5"/>
<line x1="20" y1="123.17" x2="181" y2="123.17" stroke="#B1ACAC" stroke-width="0.5"/>
<defs>
<linearGradient id="paint0_linear_114_158" x1="100" y1="0.419922" x2="100" y2="140.42" gradientUnits="userSpaceOnUse">
<stop stop-color="#1C2025"/>
<stop offset="1" stop-color="#141618"/>
</linearGradient>
</defs>
</svg>
