<svg width="59" height="59" viewBox="0 0 59 59" fill="none" xmlns="http://www.w3.org/2000/svg">
<rect x="0.480469" y="0.419922" width="58" height="58" rx="29" fill="url(#paint0_linear_114_154)"/>
<rect x="0.980469" y="0.919922" width="57" height="57" rx="28.5" stroke="white" stroke-opacity="0.19"/>
<path d="M18.4805 24.6387V23.9512C18.4805 23.3817 18.9422 22.92 19.5117 22.92H34.9805V20.8575C34.9805 19.9394 36.0933 19.4807 36.7409 20.1283L40.1784 23.5658C40.5811 23.9685 40.5811 24.6215 40.1784 25.0242L36.7409 28.4617C36.0958 29.1067 34.9805 28.6544 34.9805 27.7325V25.67H19.5117C18.9422 25.67 18.4805 25.2083 18.4805 24.6387ZM39.4492 31.17H23.9805V29.1075C23.9805 28.1916 22.8692 27.729 22.22 28.3783L18.7825 31.8158C18.3798 32.2185 18.3798 32.8715 18.7825 33.2742L22.22 36.7117C22.8657 37.3573 23.9805 36.9036 23.9805 35.9825V33.92H39.4492C40.0188 33.92 40.4805 33.4583 40.4805 32.8887V32.2012C40.4805 31.6317 40.0188 31.17 39.4492 31.17Z" fill="#00B37E"/>
<defs>
<linearGradient id="paint0_linear_114_154" x1="29.4805" y1="0.419922" x2="29.4805" y2="58.4199" gradientUnits="userSpaceOnUse">
<stop stop-color="#1C2025"/>
<stop offset="1" stop-color="#141618"/>
</linearGradient>
</defs>
</svg>
