<svg width="200" height="229" viewBox="0 0 200 229" fill="none" xmlns="http://www.w3.org/2000/svg">
<rect x="0.399737" y="0.929522" width="199.201" height="227.201" rx="15.5897" fill="url(#paint0_linear_114_128)"/>
<rect x="0.399737" y="0.929522" width="199.201" height="227.201" rx="15.5897" stroke="#323238" stroke-width="0.799474"/>
<path d="M14.1115 45.5298V36.8025H17.0604C17.7422 36.8025 18.3018 36.919 18.7393 37.1519C19.1768 37.3821 19.5007 37.6988 19.7109 38.1022C19.9212 38.5056 20.0263 38.9644 20.0263 39.4786C20.0263 39.9929 19.9212 40.4488 19.7109 40.8465C19.5007 41.2443 19.1783 41.5568 18.7436 41.784C18.3089 42.0085 17.7536 42.1207 17.0774 42.1207H14.6911V41.1661H17.0433C17.5092 41.1661 17.8842 41.098 18.1683 40.9616C18.4553 40.8252 18.6626 40.6321 18.7905 40.3821C18.9212 40.1292 18.9865 39.8281 18.9865 39.4786C18.9865 39.1292 18.9212 38.8238 18.7905 38.5625C18.6598 38.3011 18.451 38.0994 18.1641 37.9573C17.8771 37.8125 17.4979 37.74 17.0263 37.74H15.1683V45.5298H14.1115ZM18.2195 41.6093L20.3672 45.5298H19.1399L17.0263 41.6093H18.2195ZM23.9499 45.6661C23.3192 45.6661 22.7752 45.5269 22.3178 45.2485C21.8633 44.9673 21.5124 44.5752 21.2653 44.0724C21.021 43.5667 20.8988 42.9786 20.8988 42.3082C20.8988 41.6377 21.021 41.0468 21.2653 40.5355C21.5124 40.0213 21.8562 39.6207 22.2965 39.3338C22.7397 39.044 23.2567 38.8991 23.8477 38.8991C24.1886 38.8991 24.5252 38.9559 24.8576 39.0696C25.19 39.1832 25.4925 39.3679 25.7653 39.6235C26.038 39.8764 26.2553 40.2116 26.4173 40.6292C26.5792 41.0468 26.6602 41.561 26.6602 42.1718V42.598H21.6147V41.7286H25.6374C25.6374 41.3593 25.5636 41.0298 25.4158 40.74C25.271 40.4502 25.0636 40.2215 24.7937 40.0539C24.5266 39.8863 24.2113 39.8025 23.8477 39.8025C23.4471 39.8025 23.1005 39.9019 22.8079 40.1008C22.5181 40.2968 22.2951 40.5525 22.1388 40.8679C21.9826 41.1832 21.9045 41.5213 21.9045 41.8821V42.4616C21.9045 42.9559 21.9897 43.375 22.1602 43.7187C22.3335 44.0596 22.5735 44.3196 22.8803 44.4985C23.1871 44.6747 23.5437 44.7627 23.9499 44.7627C24.2141 44.7627 24.4528 44.7258 24.6658 44.6519C24.8817 44.5752 25.0678 44.4616 25.2241 44.311C25.3803 44.1576 25.5011 43.9673 25.5863 43.74L26.5579 44.0127C26.4556 44.3423 26.2837 44.6321 26.0423 44.8821C25.8008 45.1292 25.5025 45.3224 25.1474 45.4616C24.7923 45.598 24.3931 45.6661 23.9499 45.6661ZM30.4741 45.6661C29.8604 45.6661 29.332 45.5213 28.8888 45.2315C28.4457 44.9417 28.1048 44.5426 27.8661 44.034C27.6275 43.5255 27.5082 42.9446 27.5082 42.2911C27.5082 41.6264 27.6303 41.0397 27.8746 40.5312C28.1218 40.0198 28.4656 39.6207 28.9059 39.3338C29.3491 39.044 29.8661 38.8991 30.457 38.8991C30.9173 38.8991 31.332 38.9843 31.7013 39.1548C32.0707 39.3252 32.3732 39.5639 32.609 39.8707C32.8448 40.1775 32.9911 40.5355 33.0479 40.9446H32.0423C31.9656 40.6463 31.7951 40.3821 31.5309 40.1519C31.2695 39.919 30.9173 39.8025 30.4741 39.8025C30.082 39.8025 29.7383 39.9048 29.4428 40.1093C29.1502 40.311 28.9215 40.5965 28.7567 40.9659C28.5948 41.3323 28.5138 41.7627 28.5138 42.2571C28.5138 42.7627 28.5934 43.2031 28.7525 43.5781C28.9144 43.9531 29.1417 44.2443 29.4343 44.4517C29.7298 44.659 30.0763 44.7627 30.4741 44.7627C30.7354 44.7627 30.9727 44.7173 31.1857 44.6264C31.3988 44.5355 31.5792 44.4048 31.7269 44.2343C31.8746 44.0639 31.9798 43.8593 32.0423 43.6207H33.0479C32.9911 44.0071 32.8505 44.3551 32.6261 44.6647C32.4045 44.9715 32.1104 45.2159 31.744 45.3977C31.3803 45.5767 30.957 45.6661 30.4741 45.6661ZM36.8874 45.6661C36.2567 45.6661 35.7127 45.5269 35.2553 45.2485C34.8008 44.9673 34.4499 44.5752 34.2028 44.0724C33.9585 43.5667 33.8363 42.9786 33.8363 42.3082C33.8363 41.6377 33.9585 41.0468 34.2028 40.5355C34.4499 40.0213 34.7937 39.6207 35.234 39.3338C35.6772 39.044 36.1942 38.8991 36.7852 38.8991C37.1261 38.8991 37.4627 38.9559 37.7951 39.0696C38.1275 39.1832 38.43 39.3679 38.7028 39.6235C38.9755 39.8764 39.1928 40.2116 39.3548 40.6292C39.5167 41.0468 39.5977 41.561 39.5977 42.1718V42.598H34.5522V41.7286H38.5749C38.5749 41.3593 38.5011 41.0298 38.3533 40.74C38.2085 40.4502 38.0011 40.2215 37.7312 40.0539C37.4641 39.8863 37.1488 39.8025 36.7852 39.8025C36.3846 39.8025 36.038 39.9019 35.7454 40.1008C35.4556 40.2968 35.2326 40.5525 35.0763 40.8679C34.9201 41.1832 34.842 41.5213 34.842 41.8821V42.4616C34.842 42.9559 34.9272 43.375 35.0977 43.7187C35.271 44.0596 35.511 44.3196 35.8178 44.4985C36.1246 44.6747 36.4812 44.7627 36.8874 44.7627C37.1516 44.7627 37.3903 44.7258 37.6033 44.6519C37.8192 44.5752 38.0053 44.4616 38.1616 44.311C38.3178 44.1576 38.4386 43.9673 38.5238 43.74L39.4954 44.0127C39.3931 44.3423 39.2212 44.6321 38.9798 44.8821C38.7383 45.1292 38.44 45.3224 38.0849 45.4616C37.7298 45.598 37.3306 45.6661 36.8874 45.6661ZM40.7525 45.5298V38.9843H41.7582V45.5298H40.7525ZM41.2638 37.8934C41.0678 37.8934 40.8988 37.8267 40.7567 37.6931C40.6175 37.5596 40.5479 37.3991 40.5479 37.2116C40.5479 37.0241 40.6175 36.8636 40.7567 36.7301C40.8988 36.5965 41.0678 36.5298 41.2638 36.5298C41.4599 36.5298 41.6275 36.5965 41.7667 36.7301C41.9087 36.8636 41.9798 37.0241 41.9798 37.2116C41.9798 37.3991 41.9087 37.5596 41.7667 37.6931C41.6275 37.8267 41.4599 37.8934 41.2638 37.8934ZM46.0717 38.9843V39.8366H42.6797V38.9843H46.0717ZM43.6683 37.4161H44.674V43.6548C44.674 43.9389 44.7152 44.1519 44.7976 44.294C44.8828 44.4332 44.9908 44.5269 45.1214 44.5752C45.255 44.6207 45.3956 44.6434 45.5433 44.6434C45.6541 44.6434 45.745 44.6377 45.8161 44.6264C45.8871 44.6122 45.9439 44.6008 45.9865 44.5923L46.1911 45.4957C46.1229 45.5213 46.0277 45.5468 45.9055 45.5724C45.7834 45.6008 45.6286 45.615 45.4411 45.615C45.157 45.615 44.8786 45.5539 44.6058 45.4318C44.3359 45.3096 44.1115 45.1235 43.9325 44.8735C43.7564 44.6235 43.6683 44.3082 43.6683 43.9275V37.4161ZM49.1357 45.6832C48.7209 45.6832 48.3445 45.6051 48.0064 45.4488C47.6683 45.2897 47.3999 45.061 47.201 44.7627C47.0021 44.4616 46.9027 44.098 46.9027 43.6718C46.9027 43.2968 46.9766 42.9929 47.1243 42.7599C47.272 42.5241 47.4695 42.3394 47.7166 42.2059C47.9638 42.0724 48.2365 41.973 48.5348 41.9076C48.8359 41.8394 49.1385 41.7855 49.4425 41.7457C49.8402 41.6946 50.1626 41.6562 50.4098 41.6306C50.6598 41.6022 50.8416 41.5554 50.9553 41.49C51.0717 41.4247 51.13 41.311 51.13 41.1491V41.115C51.13 40.6946 51.0149 40.3679 50.7848 40.1349C50.5575 39.9019 50.2124 39.7855 49.7493 39.7855C49.2692 39.7855 48.8928 39.8906 48.62 40.1008C48.3473 40.311 48.1555 40.5355 48.0447 40.7741L47.0902 40.4332C47.2607 40.0355 47.4879 39.7258 47.772 39.5042C48.0589 39.2798 48.3714 39.1235 48.7095 39.0355C49.0504 38.9446 49.3857 38.8991 49.7152 38.8991C49.9254 38.8991 50.1669 38.9247 50.4396 38.9758C50.7152 39.0241 50.9808 39.125 51.2365 39.2784C51.495 39.4318 51.7095 39.6633 51.88 39.973C52.0504 40.2826 52.1357 40.6974 52.1357 41.2173V45.5298H51.13V44.6434H51.0788C51.0107 44.7855 50.897 44.9375 50.7379 45.0994C50.5788 45.2613 50.3672 45.3991 50.103 45.5127C49.8388 45.6264 49.5163 45.6832 49.1357 45.6832ZM49.2891 44.7798C49.6868 44.7798 50.022 44.7017 50.2947 44.5454C50.5703 44.3892 50.7777 44.1875 50.9169 43.9403C51.0589 43.6931 51.13 43.4332 51.13 43.1605V42.24C51.0874 42.2911 50.9936 42.338 50.8487 42.3806C50.7067 42.4204 50.5419 42.4559 50.3544 42.4872C50.1697 42.5156 49.9893 42.5411 49.8132 42.5639C49.6399 42.5838 49.4993 42.6008 49.3913 42.615C49.13 42.6491 48.8857 42.7045 48.6584 42.7812C48.4339 42.8551 48.2521 42.9673 48.1129 43.1179C47.9766 43.2656 47.9084 43.4673 47.9084 43.723C47.9084 44.0724 48.0376 44.3366 48.2962 44.5156C48.5575 44.6917 48.8885 44.7798 49.2891 44.7798ZM58.2326 40.4502L57.3292 40.7059C57.2724 40.5554 57.1886 40.409 57.0778 40.267C56.9698 40.1221 56.8221 40.0028 56.6346 39.909C56.4471 39.8153 56.207 39.7684 55.9144 39.7684C55.5138 39.7684 55.18 39.8608 54.913 40.0454C54.6488 40.2272 54.5167 40.4588 54.5167 40.74C54.5167 40.99 54.6076 41.1875 54.7894 41.3323C54.9712 41.4772 55.2553 41.598 55.6417 41.6946L56.6133 41.9332C57.1985 42.0752 57.6346 42.2926 57.9215 42.5852C58.2085 42.875 58.3519 43.2485 58.3519 43.7059C58.3519 44.0809 58.244 44.4161 58.0281 44.7116C57.815 45.0071 57.5167 45.24 57.1332 45.4105C56.7496 45.5809 56.3036 45.6661 55.7951 45.6661C55.1275 45.6661 54.5749 45.5213 54.1374 45.2315C53.6999 44.9417 53.4229 44.5184 53.3065 43.9616L54.261 43.723C54.3519 44.0752 54.5238 44.3394 54.7766 44.5156C55.0323 44.6917 55.3661 44.7798 55.7781 44.7798C56.2468 44.7798 56.619 44.6804 56.8945 44.4815C57.1729 44.2798 57.3121 44.0383 57.3121 43.7571C57.3121 43.5298 57.2326 43.3394 57.0735 43.186C56.9144 43.0298 56.6701 42.9133 56.3406 42.8366L55.2496 42.5809C54.6502 42.4389 54.2099 42.2187 53.9286 41.9204C53.6502 41.6193 53.511 41.2429 53.511 40.7911C53.511 40.4218 53.6147 40.0951 53.8221 39.811C54.0323 39.5269 54.3178 39.3039 54.6786 39.142C55.0423 38.9801 55.4542 38.8991 55.9144 38.8991C56.5621 38.8991 57.0707 39.0411 57.44 39.3252C57.8121 39.6093 58.0763 39.9843 58.2326 40.4502Z" fill="white"/>
<path d="M14.2596 109.53V100.803H19.7312V101.936H15.5763V104.595H19.4457V105.724H15.5763V108.396H19.7823V109.53H14.2596ZM22.2869 105.643V109.53H21.0128V102.984H22.2358V104.05H22.3168C22.4673 103.703 22.7031 103.425 23.0241 103.214C23.348 103.004 23.7557 102.899 24.2472 102.899C24.6932 102.899 25.0838 102.993 25.419 103.18C25.7543 103.365 26.0142 103.641 26.1989 104.007C26.3835 104.374 26.4759 104.827 26.4759 105.366V109.53H25.2017V105.52C25.2017 105.045 25.0781 104.675 24.831 104.408C24.5838 104.138 24.2443 104.003 23.8125 104.003C23.517 104.003 23.2543 104.067 23.0241 104.195C22.7969 104.322 22.6165 104.51 22.483 104.757C22.3523 105.001 22.2869 105.297 22.2869 105.643ZM30.8651 102.984V104.007H27.2898V102.984H30.8651ZM28.2486 101.416H29.5227V107.608C29.5227 107.855 29.5597 108.041 29.6335 108.166C29.7074 108.288 29.8026 108.372 29.919 108.418C30.0384 108.46 30.1676 108.481 30.3068 108.481C30.4091 108.481 30.4986 108.474 30.5753 108.46C30.652 108.446 30.7116 108.435 30.7543 108.426L30.9844 109.479C30.9105 109.507 30.8054 109.535 30.669 109.564C30.5327 109.595 30.3622 109.612 30.1577 109.615C29.8224 109.621 29.5099 109.561 29.2202 109.436C28.9304 109.311 28.696 109.118 28.517 108.856C28.3381 108.595 28.2486 108.267 28.2486 107.872V101.416ZM31.8995 109.53V102.984H33.131V104.024H33.1992C33.3185 103.672 33.5288 103.395 33.8299 103.193C34.1339 102.989 34.4776 102.886 34.8612 102.886C34.9407 102.886 35.0344 102.889 35.1424 102.895C35.2532 102.901 35.3398 102.908 35.4023 102.916V104.135C35.3512 104.121 35.2603 104.105 35.1296 104.088C34.9989 104.068 34.8683 104.058 34.7376 104.058C34.4364 104.058 34.168 104.122 33.9322 104.25C33.6992 104.375 33.5146 104.55 33.3782 104.774C33.2418 104.996 33.1737 105.249 33.1737 105.533V109.53H31.8995ZM37.9762 109.675C37.5614 109.675 37.1864 109.598 36.8512 109.445C36.516 109.288 36.2504 109.062 36.0543 108.767C35.8612 108.472 35.7646 108.109 35.7646 107.68C35.7646 107.311 35.8356 107.007 35.9776 106.768C36.1197 106.53 36.3114 106.341 36.5529 106.202C36.7944 106.062 37.0643 105.957 37.3626 105.886C37.6609 105.815 37.9648 105.761 38.2745 105.724C38.6665 105.679 38.9847 105.642 39.229 105.614C39.4734 105.582 39.6509 105.533 39.7617 105.464C39.8725 105.396 39.9279 105.285 39.9279 105.132V105.102C39.9279 104.73 39.8228 104.442 39.6126 104.237C39.4052 104.033 39.0955 103.93 38.6836 103.93C38.2546 103.93 37.9165 104.026 37.6694 104.216C37.4251 104.403 37.256 104.612 37.1623 104.842L35.9648 104.57C36.1069 104.172 36.3143 103.851 36.587 103.606C36.8626 103.359 37.1793 103.18 37.5373 103.07C37.8952 102.956 38.2717 102.899 38.6665 102.899C38.9279 102.899 39.2049 102.93 39.4975 102.993C39.793 103.053 40.0685 103.163 40.3242 103.325C40.5827 103.487 40.7944 103.719 40.9592 104.02C41.1239 104.318 41.2063 104.706 41.2063 105.183V109.53H39.962V108.635H39.9109C39.8285 108.8 39.7049 108.962 39.5401 109.121C39.3754 109.28 39.1637 109.412 38.9052 109.517C38.6467 109.622 38.337 109.675 37.9762 109.675ZM38.2532 108.652C38.6055 108.652 38.9066 108.582 39.1566 108.443C39.4094 108.304 39.6012 108.122 39.7319 107.898C39.8654 107.67 39.9322 107.428 39.9322 107.169V106.325C39.8867 106.371 39.7987 106.413 39.668 106.453C39.5401 106.49 39.3938 106.523 39.229 106.551C39.0643 106.577 38.9038 106.601 38.7475 106.624C38.5913 106.643 38.4606 106.66 38.3555 106.675C38.1083 106.706 37.8825 106.758 37.6779 106.832C37.4762 106.906 37.3143 107.013 37.1921 107.152C37.0728 107.288 37.0131 107.47 37.0131 107.697C37.0131 108.013 37.1296 108.251 37.3626 108.413C37.5955 108.572 37.8924 108.652 38.2532 108.652ZM44.9787 109.658C44.4503 109.658 43.9787 109.523 43.5639 109.253C43.152 108.98 42.8281 108.592 42.5923 108.089C42.3594 107.584 42.2429 106.977 42.2429 106.27C42.2429 105.562 42.3608 104.957 42.5966 104.455C42.8352 103.952 43.1619 103.567 43.5767 103.3C43.9915 103.033 44.4616 102.899 44.9872 102.899C45.3935 102.899 45.7202 102.967 45.9673 103.104C46.2173 103.237 46.4105 103.393 46.5469 103.572C46.6861 103.751 46.794 103.909 46.8707 104.045H46.9474V100.803H48.2216V109.53H46.9773V108.511H46.8707C46.794 108.651 46.6832 108.81 46.5384 108.989C46.3963 109.168 46.2003 109.324 45.9503 109.457C45.7003 109.591 45.3764 109.658 44.9787 109.658ZM45.2599 108.571C45.6264 108.571 45.9361 108.474 46.1889 108.281C46.4446 108.085 46.6378 107.814 46.7685 107.467C46.902 107.121 46.9688 106.717 46.9688 106.257C46.9688 105.803 46.9034 105.405 46.7727 105.064C46.642 104.723 46.4503 104.457 46.1974 104.267C45.9446 104.077 45.6321 103.981 45.2599 103.981C44.8764 103.981 44.5568 104.081 44.3011 104.28C44.0455 104.479 43.8523 104.75 43.7216 105.094C43.5938 105.437 43.5298 105.825 43.5298 106.257C43.5298 106.695 43.5952 107.088 43.7259 107.437C43.8565 107.787 44.0497 108.064 44.3054 108.268C44.5639 108.47 44.8821 108.571 45.2599 108.571ZM51.57 109.675C51.1552 109.675 50.7802 109.598 50.445 109.445C50.1097 109.288 49.8441 109.062 49.6481 108.767C49.4549 108.472 49.3583 108.109 49.3583 107.68C49.3583 107.311 49.4293 107.007 49.5714 106.768C49.7134 106.53 49.9052 106.341 50.1467 106.202C50.3881 106.062 50.658 105.957 50.9563 105.886C51.2546 105.815 51.5586 105.761 51.8683 105.724C52.2603 105.679 52.5785 105.642 52.8228 105.614C53.0671 105.582 53.2447 105.533 53.3555 105.464C53.4663 105.396 53.5217 105.285 53.5217 105.132V105.102C53.5217 104.73 53.4165 104.442 53.2063 104.237C52.9989 104.033 52.6893 103.93 52.2773 103.93C51.8484 103.93 51.5103 104.026 51.2631 104.216C51.0188 104.403 50.8498 104.612 50.756 104.842L49.5586 104.57C49.7006 104.172 49.908 103.851 50.1808 103.606C50.4563 103.359 50.7731 103.18 51.131 103.07C51.489 102.956 51.8654 102.899 52.2603 102.899C52.5217 102.899 52.7987 102.93 53.0913 102.993C53.3867 103.053 53.6623 103.163 53.918 103.325C54.1765 103.487 54.3881 103.719 54.5529 104.02C54.7177 104.318 54.8001 104.706 54.8001 105.183V109.53H53.5558V108.635H53.5046C53.4222 108.8 53.2987 108.962 53.1339 109.121C52.9691 109.28 52.7575 109.412 52.4989 109.517C52.2404 109.622 51.9308 109.675 51.57 109.675ZM51.8469 108.652C52.1992 108.652 52.5004 108.582 52.7504 108.443C53.0032 108.304 53.195 108.122 53.3256 107.898C53.4592 107.67 53.5259 107.428 53.5259 107.169V106.325C53.4805 106.371 53.3924 106.413 53.2617 106.453C53.1339 106.49 52.9876 106.523 52.8228 106.551C52.658 106.577 52.4975 106.601 52.3413 106.624C52.185 106.643 52.0543 106.66 51.9492 106.675C51.7021 106.706 51.4762 106.758 51.2717 106.832C51.07 106.906 50.908 107.013 50.7859 107.152C50.6665 107.288 50.6069 107.47 50.6069 107.697C50.6069 108.013 50.7234 108.251 50.9563 108.413C51.1893 108.572 51.4862 108.652 51.8469 108.652ZM61.027 104.582L59.8722 104.787C59.8239 104.639 59.7472 104.499 59.642 104.365C59.5398 104.231 59.4006 104.122 59.2244 104.037C59.0483 103.952 58.8281 103.909 58.5639 103.909C58.2031 103.909 57.902 103.99 57.6605 104.152C57.419 104.311 57.2983 104.517 57.2983 104.77C57.2983 104.989 57.3793 105.165 57.5412 105.298C57.7031 105.432 57.9645 105.541 58.3253 105.626L59.3651 105.865C59.9673 106.004 60.4162 106.219 60.7116 106.508C61.0071 106.798 61.1548 107.175 61.1548 107.638C61.1548 108.03 61.0412 108.379 60.8139 108.686C60.5895 108.99 60.2756 109.229 59.8722 109.402C59.4716 109.575 59.0071 109.662 58.4787 109.662C57.7457 109.662 57.1477 109.506 56.6847 109.193C56.2216 108.878 55.9375 108.43 55.8324 107.851L57.0639 107.663C57.1406 107.984 57.2983 108.227 57.5369 108.392C57.7756 108.554 58.0866 108.635 58.4702 108.635C58.8878 108.635 59.2216 108.548 59.4716 108.375C59.7216 108.199 59.8466 107.984 59.8466 107.731C59.8466 107.527 59.7699 107.355 59.6165 107.216C59.4659 107.077 59.2344 106.972 58.9219 106.901L57.8139 106.658C57.2031 106.518 56.7514 106.297 56.4588 105.993C56.169 105.689 56.0241 105.304 56.0241 104.838C56.0241 104.452 56.1321 104.114 56.348 103.824C56.5639 103.534 56.8622 103.308 57.2429 103.146C57.6236 102.981 58.0597 102.899 58.5511 102.899C59.2585 102.899 59.8153 103.053 60.2216 103.359C60.6278 103.663 60.8963 104.071 61.027 104.582Z" fill="white"/>
<path d="M13.2727 70.5298V58.8934H17.6364C18.5303 58.8934 19.2803 59.0487 19.8864 59.3593C20.4962 59.6699 20.9564 60.1055 21.267 60.6661C21.5814 61.223 21.7386 61.8726 21.7386 62.615C21.7386 63.3612 21.5795 64.009 21.2614 64.5582C20.947 65.1036 20.483 65.526 19.8693 65.8252C19.2557 66.1207 18.5019 66.2684 17.608 66.2684H14.5V64.5184H17.3239C17.8466 64.5184 18.2746 64.4465 18.608 64.3025C18.9413 64.1548 19.1875 63.9408 19.3466 63.6605C19.5095 63.3764 19.5909 63.0279 19.5909 62.615C19.5909 62.2021 19.5095 61.8499 19.3466 61.5582C19.1837 61.2627 18.9356 61.0393 18.6023 60.8877C18.2689 60.7324 17.839 60.6548 17.3125 60.6548H15.3807V70.5298H13.2727ZM19.2841 65.2571L22.1648 70.5298H19.8125L16.983 65.2571H19.2841ZM26.9403 71.9843V57.4389H27.8722V71.9843H26.9403ZM29.6278 62.0923C29.5748 61.5961 29.3513 61.2097 28.9574 60.9332C28.5672 60.6567 28.0597 60.5184 27.4347 60.5184C26.9953 60.5184 26.6184 60.5847 26.304 60.7173C25.9896 60.8499 25.7491 61.0298 25.5824 61.2571C25.4157 61.4843 25.3305 61.7438 25.3267 62.0355C25.3267 62.2779 25.3816 62.4881 25.4915 62.6661C25.6051 62.8442 25.7585 62.9957 25.9517 63.1207C26.1449 63.2419 26.3589 63.3442 26.5938 63.4275C26.8286 63.5108 27.0653 63.5809 27.304 63.6377L28.3949 63.9105C28.8343 64.0127 29.2566 64.151 29.6619 64.3252C30.071 64.4995 30.4366 64.7192 30.7585 64.9843C31.0843 65.2495 31.3419 65.5696 31.5312 65.9446C31.7206 66.3196 31.8153 66.759 31.8153 67.2627C31.8153 67.9446 31.6411 68.5449 31.2926 69.0639C30.9441 69.579 30.4403 69.9824 29.7812 70.2741C29.1259 70.562 28.3324 70.7059 27.4006 70.7059C26.4953 70.7059 25.7093 70.5658 25.0426 70.2855C24.3797 70.0052 23.8608 69.5961 23.4858 69.0582C23.1146 68.5203 22.9138 67.865 22.8835 67.0923H24.9574C24.9877 67.4976 25.1127 67.8347 25.3324 68.1036C25.5521 68.3726 25.8381 68.5733 26.1903 68.7059C26.5464 68.8385 26.9441 68.9048 27.3835 68.9048C27.8419 68.9048 28.2434 68.8366 28.5881 68.7002C28.9366 68.5601 29.2093 68.3669 29.4062 68.1207C29.6032 67.8707 29.7036 67.579 29.7074 67.2457C29.7036 66.9427 29.6146 66.6927 29.4403 66.4957C29.2661 66.2949 29.0218 66.1283 28.7074 65.9957C28.3968 65.8593 28.0331 65.7381 27.6165 65.6321L26.2926 65.2911C25.3343 65.0449 24.5767 64.6718 24.0199 64.1718C23.4669 63.668 23.1903 62.9995 23.1903 62.1661C23.1903 61.4805 23.3759 60.8802 23.7472 60.365C24.1222 59.8499 24.6316 59.4502 25.2756 59.1661C25.9195 58.8783 26.6487 58.7343 27.4631 58.7343C28.2888 58.7343 29.0123 58.8783 29.6335 59.1661C30.2585 59.4502 30.7491 59.8461 31.1051 60.3536C31.4612 60.8574 31.6449 61.437 31.6562 62.0923H29.6278ZM40.8452 70.6889C40.0876 70.6889 39.4096 70.5468 38.8111 70.2627C38.2126 69.9749 37.7372 69.5809 37.3849 69.0809C37.0365 68.5809 36.8509 68.009 36.8281 67.365H38.8736C38.9115 67.8423 39.1179 68.2324 39.4929 68.5355C39.8679 68.8347 40.3187 68.9843 40.8452 68.9843C41.258 68.9843 41.6255 68.8896 41.9474 68.7002C42.2694 68.5108 42.5232 68.2476 42.7088 67.9105C42.8944 67.5733 42.9853 67.1889 42.9815 66.7571C42.9853 66.3177 42.8925 65.9275 42.7031 65.5866C42.5137 65.2457 42.2543 64.9786 41.9247 64.7855C41.5952 64.5885 41.2164 64.49 40.7884 64.49C40.4399 64.4862 40.0971 64.5506 39.7599 64.6832C39.4228 64.8158 39.1558 64.99 38.9588 65.2059L37.0554 64.8934L37.6634 58.8934H44.4134V60.6548H39.4077L39.0724 63.74H39.1406C39.3565 63.4862 39.6615 63.276 40.0554 63.1093C40.4493 62.9389 40.8812 62.8536 41.3509 62.8536C42.0554 62.8536 42.6842 63.0203 43.2372 63.3536C43.7902 63.6832 44.2259 64.1377 44.544 64.7173C44.8622 65.2968 45.0213 65.9597 45.0213 66.7059C45.0213 67.4749 44.8433 68.1605 44.4872 68.7627C44.1349 69.3612 43.6444 69.8328 43.0156 70.1775C42.3906 70.5184 41.6671 70.6889 40.8452 70.6889ZM46.9759 70.5298L51.9247 60.7343V60.6548H46.1804V58.8934H54.1065V60.6946L49.1634 70.5298H46.9759ZM54.8551 70.6548C54.5104 70.6548 54.215 70.5336 53.9688 70.2911C53.7225 70.0487 53.6013 69.7533 53.6051 69.4048C53.6013 69.0639 53.7225 68.7722 53.9688 68.5298C54.215 68.2874 54.5104 68.1661 54.8551 68.1661C55.1884 68.1661 55.4782 68.2874 55.7244 68.5298C55.9744 68.7722 56.1013 69.0639 56.1051 69.4048C56.1013 69.6358 56.0407 69.8461 55.9233 70.0355C55.8097 70.2249 55.6581 70.3764 55.4688 70.49C55.2831 70.5999 55.0786 70.6548 54.8551 70.6548ZM61.6392 70.6889C61.0824 70.6851 60.5388 70.5885 60.0085 70.3991C59.4782 70.2059 59.0009 69.8934 58.5767 69.4616C58.1525 69.026 57.8153 68.4483 57.5653 67.7286C57.3153 67.0052 57.1922 66.1093 57.196 65.0411C57.196 64.0449 57.3021 63.1567 57.5142 62.3764C57.7263 61.5961 58.0312 60.937 58.429 60.3991C58.8267 59.8574 59.3059 59.4446 59.8665 59.1605C60.4309 58.8764 61.0616 58.7343 61.7585 58.7343C62.4896 58.7343 63.1373 58.8783 63.7017 59.1661C64.2699 59.454 64.7282 59.848 65.0767 60.348C65.4252 60.8442 65.6411 61.4048 65.7244 62.0298H63.6506C63.5445 61.5828 63.3267 61.2268 62.9972 60.9616C62.6714 60.6927 62.2585 60.5582 61.7585 60.5582C60.9517 60.5582 60.3305 60.9086 59.8949 61.6093C59.4631 62.3101 59.2453 63.2722 59.2415 64.4957H59.321C59.5066 64.1624 59.7472 63.8764 60.0426 63.6377C60.3381 63.3991 60.6714 63.2154 61.0426 63.0866C61.4176 62.954 61.8134 62.8877 62.2301 62.8877C62.9119 62.8877 63.5237 63.0506 64.0653 63.3764C64.6108 63.7021 65.0426 64.151 65.3608 64.723C65.679 65.2911 65.8362 65.9427 65.8324 66.6775C65.8362 67.4427 65.6619 68.1302 65.3097 68.74C64.9574 69.3461 64.4669 69.8233 63.8381 70.1718C63.2093 70.5203 62.4763 70.6927 61.6392 70.6889ZM61.6278 68.9843C62.0407 68.9843 62.41 68.884 62.7358 68.6832C63.0616 68.4824 63.3191 68.2116 63.5085 67.8707C63.6979 67.5298 63.7907 67.1472 63.7869 66.723C63.7907 66.3063 63.6998 65.9294 63.5142 65.5923C63.3324 65.2552 63.0805 64.9881 62.7585 64.7911C62.4366 64.5942 62.0691 64.4957 61.6562 64.4957C61.3494 64.4957 61.0634 64.5544 60.7983 64.6718C60.5331 64.7893 60.3021 64.9521 60.1051 65.1605C59.9081 65.365 59.7528 65.6036 59.6392 65.8764C59.5294 66.1453 59.4725 66.4332 59.4688 66.74C59.4725 67.1453 59.5672 67.5184 59.7528 67.8593C59.9384 68.2002 60.1941 68.473 60.5199 68.6775C60.8456 68.8821 61.215 68.9843 61.6278 68.9843ZM71.4176 58.7343C71.9744 58.7381 72.5161 58.8366 73.0426 59.0298C73.5729 59.2192 74.0502 59.5298 74.4744 59.9616C74.8987 60.3896 75.2358 60.9635 75.4858 61.6832C75.7358 62.4029 75.8608 63.293 75.8608 64.3536C75.8646 65.3536 75.7585 66.2476 75.5426 67.0355C75.3305 67.8196 75.0256 68.4824 74.6278 69.0241C74.2301 69.5658 73.7509 69.9786 73.1903 70.2627C72.6297 70.5468 71.9991 70.6889 71.2983 70.6889C70.5634 70.6889 69.9119 70.5449 69.3438 70.2571C68.7794 69.9692 68.3229 69.5752 67.9744 69.0752C67.6259 68.5752 67.4119 68.0033 67.3324 67.3593H69.4062C69.5123 67.8215 69.7282 68.1889 70.054 68.4616C70.3835 68.7305 70.7983 68.865 71.2983 68.865C72.1051 68.865 72.7263 68.5146 73.1619 67.8139C73.5975 67.1131 73.8153 66.1396 73.8153 64.8934H73.7358C73.5502 65.2268 73.3097 65.5146 73.0142 65.7571C72.7188 65.9957 72.3835 66.1794 72.0085 66.3082C71.6373 66.437 71.2434 66.5014 70.8267 66.5014C70.1449 66.5014 69.5313 66.3385 68.9858 66.0127C68.4441 65.687 68.0142 65.24 67.696 64.6718C67.3816 64.1036 67.2225 63.454 67.2188 62.723C67.2188 61.9654 67.393 61.2855 67.7415 60.6832C68.0938 60.0771 68.5843 59.5999 69.2131 59.2514C69.8419 58.8991 70.5767 58.7268 71.4176 58.7343ZM71.4233 60.4389C71.0142 60.4389 70.6449 60.5393 70.3153 60.74C69.9896 60.937 69.732 61.2059 69.5426 61.5468C69.357 61.884 69.2642 62.2608 69.2642 62.6775C69.268 63.0904 69.3608 63.4654 69.5426 63.8025C69.7282 64.1396 69.9801 64.4067 70.2983 64.6036C70.6203 64.8006 70.9877 64.8991 71.4006 64.8991C71.7074 64.8991 71.9934 64.8404 72.2585 64.723C72.5237 64.6055 72.7547 64.4427 72.9517 64.2343C73.1525 64.0222 73.3078 63.7817 73.4176 63.5127C73.5313 63.2438 73.5862 62.9597 73.5824 62.6605C73.5824 62.2627 73.4877 61.8953 73.2983 61.5582C73.1127 61.2211 72.857 60.9502 72.5312 60.7457C72.2093 60.5411 71.84 60.4389 71.4233 60.4389ZM77.4915 70.5298L82.4403 60.7343V60.6548H76.696V58.8934H84.6222V60.6946L79.679 70.5298H77.4915ZM86.5185 68.9389L86.4446 69.5639C86.3916 70.0411 86.2969 70.526 86.1605 71.0184C86.0279 71.5146 85.8878 71.9711 85.7401 72.3877C85.5923 72.8044 85.473 73.1321 85.3821 73.3707H83.9957C84.0488 73.1396 84.1207 72.8252 84.2116 72.4275C84.3063 72.0298 84.3973 71.5828 84.4844 71.0866C84.5715 70.5904 84.6302 70.0866 84.6605 69.5752L84.7003 68.9389H86.5185ZM92.233 70.6889C91.6761 70.6851 91.1326 70.5885 90.6023 70.3991C90.072 70.2059 89.5947 69.8934 89.1705 69.4616C88.7462 69.026 88.4091 68.4483 88.1591 67.7286C87.9091 67.0052 87.786 66.1093 87.7898 65.0411C87.7898 64.0449 87.8958 63.1567 88.108 62.3764C88.3201 61.5961 88.625 60.937 89.0227 60.3991C89.4205 59.8574 89.8996 59.4446 90.4602 59.1605C91.0246 58.8764 91.6553 58.7343 92.3523 58.7343C93.0833 58.7343 93.7311 58.8783 94.2955 59.1661C94.8636 59.454 95.322 59.848 95.6705 60.348C96.0189 60.8442 96.2348 61.4048 96.3182 62.0298H94.2443C94.1383 61.5828 93.9205 61.2268 93.5909 60.9616C93.2652 60.6927 92.8523 60.5582 92.3523 60.5582C91.5455 60.5582 90.9242 60.9086 90.4886 61.6093C90.0568 62.3101 89.839 63.2722 89.8352 64.4957H89.9148C90.1004 64.1624 90.3409 63.8764 90.6364 63.6377C90.9318 63.3991 91.2652 63.2154 91.6364 63.0866C92.0114 62.954 92.4072 62.8877 92.8239 62.8877C93.5057 62.8877 94.1174 63.0506 94.6591 63.3764C95.2045 63.7021 95.6364 64.151 95.9545 64.723C96.2727 65.2911 96.4299 65.9427 96.4261 66.6775C96.4299 67.4427 96.2557 68.1302 95.9034 68.74C95.5511 69.3461 95.0606 69.8233 94.4318 70.1718C93.803 70.5203 93.0701 70.6927 92.233 70.6889ZM92.2216 68.9843C92.6345 68.9843 93.0038 68.884 93.3295 68.6832C93.6553 68.4824 93.9129 68.2116 94.1023 67.8707C94.2917 67.5298 94.3845 67.1472 94.3807 66.723C94.3845 66.3063 94.2936 65.9294 94.108 65.5923C93.9261 65.2552 93.6742 64.9881 93.3523 64.7911C93.0303 64.5942 92.6629 64.4957 92.25 64.4957C91.9432 64.4957 91.6572 64.5544 91.392 64.6718C91.1269 64.7893 90.8958 64.9521 90.6989 65.1605C90.5019 65.365 90.3466 65.6036 90.233 65.8764C90.1231 66.1453 90.0663 66.4332 90.0625 66.74C90.0663 67.1453 90.161 67.5184 90.3466 67.8593C90.5322 68.2002 90.7879 68.473 91.1136 68.6775C91.4394 68.8821 91.8087 68.9843 92.2216 68.9843ZM97.9716 70.5298V69.0071L102.011 65.0468C102.398 64.6567 102.72 64.3101 102.977 64.0071C103.235 63.704 103.428 63.4105 103.557 63.1264C103.686 62.8423 103.75 62.5393 103.75 62.2173C103.75 61.8499 103.667 61.5355 103.5 61.2741C103.333 61.009 103.104 60.8044 102.812 60.6605C102.521 60.5165 102.189 60.4446 101.818 60.4446C101.436 60.4446 101.1 60.5241 100.812 60.6832C100.525 60.8385 100.301 61.0601 100.142 61.348C99.9867 61.6358 99.9091 61.9786 99.9091 62.3764H97.9034C97.9034 61.6377 98.072 60.9957 98.4091 60.4502C98.7462 59.9048 99.2102 59.4824 99.8011 59.1832C100.396 58.884 101.078 58.7343 101.847 58.7343C102.627 58.7343 103.313 58.8802 103.903 59.1718C104.494 59.4635 104.953 59.8631 105.278 60.3707C105.608 60.8783 105.773 61.4578 105.773 62.1093C105.773 62.5449 105.689 62.973 105.523 63.3934C105.356 63.8139 105.063 64.2798 104.642 64.7911C104.225 65.3025 103.64 65.9218 102.886 66.6491L100.881 68.6889V68.7684H105.949V70.5298H97.9716Z" fill="white"/>
<path d="M65.8434 153.621C65.8434 154.227 65.7354 154.754 65.5195 155.203C65.3036 155.65 65.0063 155.997 64.6275 156.243C64.2506 156.487 63.8169 156.609 63.3263 156.609C62.8358 156.609 62.4012 156.487 62.0224 156.243C61.6455 155.997 61.3491 155.65 61.1332 155.203C60.9192 154.754 60.8121 154.227 60.8121 153.621C60.8121 153.015 60.9192 152.488 61.1332 152.041C61.3491 151.592 61.6464 151.246 62.0252 151.001C62.404 150.755 62.8377 150.632 63.3263 150.632C63.8169 150.632 64.2506 150.755 64.6275 151.001C65.0063 151.246 65.3036 151.592 65.5195 152.041C65.7354 152.488 65.8434 153.015 65.8434 153.621ZM65.3263 153.621C65.3263 153.1 65.2392 152.654 65.065 152.283C64.8907 151.91 64.6531 151.624 64.3519 151.428C64.0508 151.231 63.7089 151.132 63.3263 151.132C62.9457 151.132 62.6048 151.231 62.3036 151.428C62.0025 151.624 61.7638 151.909 61.5877 152.28C61.4135 152.651 61.3263 153.098 61.3263 153.621C61.3263 154.142 61.4135 154.588 61.5877 154.959C61.762 155.33 61.9996 155.615 62.3008 155.814C62.6019 156.011 62.9438 156.109 63.3263 156.109C63.7089 156.109 64.0508 156.011 64.3519 155.814C64.6549 155.617 64.8936 155.333 65.0678 154.962C65.2421 154.588 65.3282 154.142 65.3263 153.621ZM66.6481 158.166V152.166H67.1396V152.999H67.1992C67.2598 152.868 67.3432 152.734 67.4492 152.598C67.5553 152.46 67.6954 152.343 67.8697 152.249C68.0458 152.154 68.2674 152.106 68.5344 152.106C68.8943 152.106 69.2087 152.201 69.4776 152.391C69.7485 152.578 69.9587 152.841 70.1083 153.18C70.2598 153.517 70.3356 153.91 70.3356 154.359C70.3356 154.81 70.2598 155.205 70.1083 155.544C69.9587 155.883 69.7485 156.147 69.4776 156.337C69.2087 156.526 68.8962 156.621 68.5401 156.621C68.2769 156.621 68.0562 156.573 67.8782 156.479C67.7021 156.384 67.5591 156.267 67.4492 156.129C67.3413 155.989 67.2579 155.853 67.1992 155.72H67.1538V158.166H66.6481ZM67.1481 154.351C67.1481 154.703 67.2002 155.016 67.3043 155.288C67.4104 155.559 67.5619 155.772 67.7589 155.928C67.9577 156.081 68.1983 156.158 68.4805 156.158C68.7702 156.158 69.0146 156.078 69.2134 155.919C69.4142 155.758 69.5666 155.541 69.6708 155.268C69.7769 154.996 69.8299 154.69 69.8299 154.351C69.8299 154.016 69.7778 153.713 69.6737 153.445C69.5714 153.176 69.4199 152.963 69.2191 152.805C69.0183 152.646 68.7721 152.567 68.4805 152.567C68.1964 152.567 67.9549 152.643 67.756 152.797C67.5572 152.948 67.4057 153.159 67.3015 153.428C67.1992 153.695 67.1481 154.002 67.1481 154.351ZM72.8342 156.621C72.427 156.621 72.0747 156.526 71.7773 156.337C71.48 156.145 71.2499 155.881 71.087 155.544C70.926 155.205 70.8455 154.815 70.8455 154.374C70.8455 153.934 70.926 153.544 71.087 153.203C71.2499 152.86 71.4743 152.592 71.7603 152.399C72.0482 152.204 72.3806 152.106 72.7575 152.106C72.9942 152.106 73.2224 152.15 73.4421 152.237C73.6618 152.322 73.8588 152.454 74.033 152.632C74.2092 152.808 74.3484 153.031 74.4506 153.3C74.5529 153.567 74.604 153.883 74.604 154.249V154.499H71.195V154.053H74.087C74.087 153.772 74.0302 153.52 73.9165 153.297C73.8048 153.071 73.6486 152.893 73.4478 152.763C73.2489 152.632 73.0188 152.567 72.7575 152.567C72.4809 152.567 72.2376 152.641 72.0273 152.788C71.8171 152.936 71.6523 153.131 71.533 153.374C71.4156 153.616 71.3559 153.881 71.354 154.169V154.436C71.354 154.783 71.4137 155.086 71.533 155.345C71.6542 155.603 71.8256 155.803 72.0472 155.945C72.2688 156.087 72.5311 156.158 72.8342 156.158C73.0406 156.158 73.2215 156.125 73.3768 156.061C73.534 155.997 73.6656 155.91 73.7717 155.803C73.8796 155.693 73.9611 155.572 74.016 155.442L74.4961 155.598C74.4298 155.782 74.3209 155.951 74.1694 156.106C74.0198 156.262 73.8323 156.387 73.6069 156.481C73.3834 156.574 73.1258 156.621 72.8342 156.621ZM75.8491 153.803V156.53H75.3434V152.166H75.8349V152.851H75.8803C75.9826 152.627 76.1417 152.448 76.3576 152.314C76.5754 152.178 76.8443 152.109 77.1644 152.109C77.458 152.109 77.7156 152.171 77.9371 152.294C78.1606 152.415 78.3339 152.594 78.457 152.831C78.582 153.068 78.6445 153.358 78.6445 153.703V156.53H78.1388V153.734C78.1388 153.376 78.0385 153.093 77.8377 152.885C77.6388 152.677 77.3718 152.572 77.0366 152.572C76.8074 152.572 76.6038 152.622 76.4258 152.72C76.2478 152.819 76.1067 152.961 76.0025 153.146C75.9002 153.33 75.8491 153.549 75.8491 153.803ZM79.7063 156.53V150.712H81.6694C82.0482 150.712 82.3635 150.778 82.6154 150.91C82.8692 151.043 83.0595 151.224 83.1864 151.453C83.3133 151.682 83.3768 151.943 83.3768 152.234C83.3768 152.477 83.3361 152.684 83.2546 152.856C83.1732 153.029 83.0624 153.168 82.9222 153.274C82.7821 153.38 82.6258 153.457 82.4535 153.504V153.55C82.641 153.563 82.8228 153.629 82.9989 153.749C83.1751 153.866 83.32 154.031 83.4336 154.243C83.5472 154.455 83.604 154.709 83.604 155.004C83.604 155.298 83.5387 155.56 83.408 155.791C83.2773 156.02 83.0766 156.201 82.8058 156.334C82.5368 156.464 82.194 156.53 81.7773 156.53H79.7063ZM80.2376 156.053H81.7773C82.2262 156.053 82.5576 155.953 82.7717 155.754C82.9876 155.555 83.0955 155.305 83.0955 155.004C83.0955 154.783 83.0415 154.582 82.9336 154.402C82.8275 154.22 82.677 154.076 82.4819 153.97C82.2887 153.864 82.0614 153.811 81.8001 153.811H80.2376V156.053ZM80.2376 153.339H81.7177C81.9469 153.339 82.1476 153.292 82.32 153.197C82.4923 153.103 82.6268 152.972 82.7234 152.805C82.82 152.639 82.8683 152.448 82.8683 152.234C82.8683 151.926 82.7679 151.675 82.5671 151.481C82.3664 151.286 82.0671 151.189 81.6694 151.189H80.2376V153.339ZM85.0423 150.712V156.53H84.511V150.712H85.0423ZM88.0891 156.53V150.712H88.6204V156.053H91.3931V156.53H88.0891ZM91.0884 151.189V150.712H95.3072V151.189H93.4634V156.53H92.9322V151.189H91.0884ZM97.8327 156.53H96.1282V150.712H97.935C98.4899 150.712 98.9644 150.827 99.3583 151.058C99.7541 151.289 100.057 151.621 100.267 152.053C100.478 152.484 100.583 153.002 100.583 153.606C100.583 154.216 100.475 154.74 100.259 155.178C100.045 155.613 99.7324 155.947 99.3214 156.18C98.9123 156.413 98.4161 156.53 97.8327 156.53ZM96.6594 156.053H97.8015C98.3015 156.053 98.7201 155.954 99.0572 155.757C99.3943 155.56 99.6471 155.279 99.8157 154.913C99.9843 154.548 100.069 154.112 100.069 153.606C100.067 153.105 99.9833 152.673 99.8185 152.311C99.6557 151.949 99.4132 151.672 99.0913 151.479C98.7712 151.285 98.3754 151.189 97.9038 151.189H96.6594V156.053ZM101.23 156.53H100.674L102.79 150.712H103.358L105.475 156.53H104.918L103.094 151.402H103.054L101.23 156.53ZM101.631 154.3H104.517V154.777H101.631V154.3Z" fill="#B1ACAC"/>
<path d="M63.7461 140.064V134.303H64.8924V140.064H63.7461ZM61.4407 137.754V136.612H67.2021V137.754H61.4407ZM71.701 141.53V132.803H74.8118C75.4879 132.803 76.049 132.919 76.495 133.152C76.9439 133.385 77.2791 133.707 77.5007 134.119C77.7223 134.528 77.8331 135.001 77.8331 135.538C77.8331 136.072 77.7209 136.543 77.4964 136.949C77.2749 137.352 76.9396 137.666 76.4908 137.891C76.0447 138.115 75.4837 138.227 74.8075 138.227H72.451V137.094H74.6882C75.1143 137.094 75.4609 137.033 75.728 136.91C75.9979 136.788 76.1953 136.611 76.3203 136.378C76.4453 136.145 76.5078 135.865 76.5078 135.538C76.5078 135.209 76.4439 134.923 76.3161 134.682C76.1911 134.44 75.9936 134.256 75.7237 134.128C75.4567 133.997 75.1058 133.932 74.6712 133.932H73.0178V141.53H71.701ZM76.0092 137.592L78.1655 141.53H76.6655L74.5518 137.592H76.0092ZM81.6342 142.621V131.712H82.3331V142.621H81.6342ZM83.8203 135.095C83.7749 134.692 83.5874 134.379 83.2578 134.158C82.9283 133.933 82.5135 133.821 82.0135 133.821C81.6555 133.821 81.3459 133.878 81.0845 133.991C80.8232 134.102 80.62 134.256 80.4751 134.452C80.3331 134.645 80.2621 134.865 80.2621 135.112C80.2621 135.32 80.3104 135.499 80.407 135.649C80.5064 135.8 80.6357 135.926 80.7947 136.028C80.9567 136.128 81.13 136.212 81.3146 136.28C81.4993 136.345 81.6768 136.399 81.8473 136.442L82.6996 136.663C82.978 136.731 83.2635 136.824 83.5561 136.94C83.8487 137.057 84.12 137.21 84.37 137.401C84.62 137.591 84.8217 137.827 84.9751 138.108C85.1314 138.389 85.2095 138.726 85.2095 139.118C85.2095 139.612 85.0817 140.051 84.826 140.435C84.5732 140.818 84.2053 141.121 83.7223 141.342C83.2422 141.564 82.6612 141.675 81.9794 141.675C81.326 141.675 80.7607 141.571 80.2834 141.364C79.8061 141.156 79.4325 140.862 79.1626 140.481C78.8928 140.098 78.7436 139.643 78.7152 139.118H80.0362C80.0618 139.433 80.1641 139.696 80.343 139.906C80.5249 140.114 80.7564 140.268 81.0376 140.371C81.3217 140.47 81.6328 140.52 81.9709 140.52C82.343 140.52 82.674 140.462 82.9638 140.345C83.2564 140.226 83.4865 140.061 83.6541 139.851C83.8217 139.638 83.9055 139.389 83.9055 139.105C83.9055 138.847 83.8317 138.635 83.6839 138.47C83.5391 138.305 83.3416 138.169 83.0916 138.061C82.8445 137.953 82.5646 137.858 82.2521 137.776L81.2209 137.494C80.522 137.304 79.968 137.024 79.5589 136.655C79.1527 136.285 78.9496 135.797 78.9496 135.189C78.9496 134.686 79.0859 134.247 79.3587 133.872C79.6314 133.497 80.0007 133.206 80.4666 132.999C80.9325 132.788 81.4581 132.683 82.0433 132.683C82.6342 132.683 83.1555 132.787 83.6072 132.994C84.0618 133.202 84.4197 133.487 84.6811 133.851C84.9425 134.212 85.0788 134.626 85.0902 135.095H83.8203ZM89.3835 141.53L93.1932 133.996V133.932H88.7869V132.803H94.5568V133.97L90.7599 141.53H89.3835ZM95.0202 141.611C94.7873 141.611 94.587 141.528 94.4194 141.364C94.2518 141.196 94.168 140.994 94.168 140.758C94.168 140.526 94.2518 140.327 94.4194 140.162C94.587 139.994 94.7873 139.91 95.0202 139.91C95.2532 139.91 95.4535 139.994 95.6211 140.162C95.7887 140.327 95.8725 140.526 95.8725 140.758C95.8725 140.915 95.8327 141.058 95.7532 141.189C95.6765 141.317 95.5742 141.419 95.4464 141.496C95.3185 141.572 95.1765 141.611 95.0202 141.611ZM97.1871 141.53V140.575L100.14 137.516C100.456 137.183 100.716 136.892 100.92 136.642C101.127 136.389 101.282 136.149 101.385 135.922C101.487 135.695 101.538 135.453 101.538 135.197C101.538 134.908 101.47 134.658 101.333 134.447C101.197 134.234 101.011 134.071 100.775 133.957C100.539 133.841 100.274 133.783 99.9783 133.783C99.6658 133.783 99.3931 133.847 99.1602 133.974C98.9272 134.102 98.7482 134.283 98.6232 134.516C98.4982 134.749 98.4357 135.021 98.4357 135.334H97.1786C97.1786 134.803 97.3008 134.338 97.5451 133.94C97.7894 133.543 98.1246 133.234 98.5508 133.016C98.9769 132.794 99.4613 132.683 100.004 132.683C100.552 132.683 101.035 132.793 101.453 133.011C101.873 133.227 102.201 133.523 102.437 133.898C102.673 134.27 102.791 134.69 102.791 135.159C102.791 135.483 102.73 135.8 102.608 136.109C102.488 136.419 102.279 136.764 101.981 137.145C101.683 137.523 101.268 137.981 100.737 138.521L99.0025 140.337V140.401H102.931V141.53H97.1871ZM107.21 141.675C106.537 141.672 105.961 141.494 105.484 141.142C105.007 140.79 104.642 140.277 104.389 139.604C104.136 138.93 104.01 138.119 104.01 137.17C104.01 136.224 104.136 135.416 104.389 134.746C104.645 134.075 105.011 133.564 105.488 133.212C105.968 132.859 106.542 132.683 107.21 132.683C107.877 132.683 108.45 132.861 108.927 133.216C109.404 133.568 109.77 134.08 110.022 134.75C110.278 135.418 110.406 136.224 110.406 137.17C110.406 138.122 110.279 138.935 110.027 139.608C109.774 140.278 109.409 140.791 108.931 141.146C108.454 141.499 107.88 141.675 107.21 141.675ZM107.21 140.537C107.801 140.537 108.262 140.249 108.595 139.672C108.93 139.095 109.098 138.261 109.098 137.17C109.098 136.446 109.021 135.834 108.868 135.334C108.717 134.831 108.5 134.45 108.216 134.192C107.934 133.93 107.599 133.8 107.21 133.8C106.622 133.8 106.16 134.089 105.825 134.669C105.49 135.249 105.321 136.082 105.318 137.17C105.318 137.898 105.393 138.513 105.544 139.016C105.697 139.516 105.914 139.895 106.196 140.153C106.477 140.409 106.815 140.537 107.21 140.537ZM114.581 141.649C113.996 141.649 113.473 141.548 113.013 141.347C112.555 141.145 112.193 140.865 111.926 140.507C111.662 140.146 111.52 139.729 111.5 139.254H112.838C112.855 139.513 112.942 139.737 113.098 139.928C113.257 140.115 113.464 140.26 113.72 140.362C113.976 140.464 114.26 140.516 114.572 140.516C114.916 140.516 115.22 140.456 115.484 140.337C115.751 140.217 115.96 140.051 116.111 139.838C116.261 139.622 116.337 139.374 116.337 139.092C116.337 138.8 116.261 138.543 116.111 138.321C115.963 138.097 115.746 137.92 115.459 137.793C115.175 137.665 114.831 137.601 114.428 137.601H113.69V136.527H114.428C114.751 136.527 115.036 136.469 115.28 136.352C115.527 136.236 115.72 136.074 115.859 135.866C115.999 135.656 116.068 135.41 116.068 135.129C116.068 134.859 116.007 134.625 115.885 134.426C115.766 134.224 115.595 134.067 115.374 133.953C115.155 133.839 114.896 133.783 114.598 133.783C114.314 133.783 114.048 133.835 113.801 133.94C113.557 134.043 113.358 134.19 113.205 134.383C113.051 134.574 112.969 134.803 112.957 135.07H111.683C111.697 134.598 111.837 134.183 112.101 133.825C112.368 133.467 112.72 133.187 113.158 132.986C113.595 132.784 114.081 132.683 114.615 132.683C115.175 132.683 115.658 132.793 116.064 133.011C116.473 133.227 116.788 133.516 117.01 133.876C117.234 134.237 117.345 134.632 117.342 135.061C117.345 135.55 117.209 135.964 116.933 136.305C116.661 136.646 116.297 136.875 115.842 136.991V137.06C116.422 137.148 116.871 137.378 117.189 137.75C117.51 138.122 117.669 138.584 117.666 139.135C117.669 139.615 117.536 140.045 117.266 140.426C116.999 140.807 116.634 141.106 116.17 141.325C115.707 141.541 115.178 141.649 114.581 141.649ZM120.319 140.337L120.255 140.801C120.212 141.142 120.14 141.497 120.038 141.866C119.938 142.239 119.835 142.584 119.727 142.902C119.621 143.22 119.535 143.473 119.467 143.66H118.563C118.6 143.484 118.651 143.246 118.717 142.945C118.782 142.646 118.846 142.312 118.908 141.943C118.971 141.574 119.018 141.197 119.049 140.814L119.092 140.337H120.319ZM124.448 141.675C123.775 141.672 123.2 141.494 122.722 141.142C122.245 140.79 121.88 140.277 121.627 139.604C121.374 138.93 121.248 138.119 121.248 137.17C121.248 136.224 121.374 135.416 121.627 134.746C121.883 134.075 122.249 133.564 122.727 133.212C123.207 132.859 123.781 132.683 124.448 132.683C125.116 132.683 125.688 132.861 126.165 133.216C126.643 133.568 127.008 134.08 127.261 134.75C127.516 135.418 127.644 136.224 127.644 137.17C127.644 138.122 127.518 138.935 127.265 139.608C127.012 140.278 126.647 140.791 126.17 141.146C125.692 141.499 125.119 141.675 124.448 141.675ZM124.448 140.537C125.039 140.537 125.501 140.249 125.833 139.672C126.168 139.095 126.336 138.261 126.336 137.17C126.336 136.446 126.259 135.834 126.106 135.334C125.955 134.831 125.738 134.45 125.454 134.192C125.173 133.93 124.837 133.8 124.448 133.8C123.86 133.8 123.398 134.089 123.063 134.669C122.728 135.249 122.559 136.082 122.556 137.17C122.556 137.898 122.631 138.513 122.782 139.016C122.935 139.516 123.153 139.895 123.434 140.153C123.715 140.409 124.053 140.537 124.448 140.537ZM131.819 141.649C131.234 141.649 130.711 141.548 130.251 141.347C129.794 141.145 129.431 140.865 129.164 140.507C128.9 140.146 128.758 139.729 128.738 139.254H130.076C130.093 139.513 130.18 139.737 130.336 139.928C130.495 140.115 130.703 140.26 130.958 140.362C131.214 140.464 131.498 140.516 131.811 140.516C132.154 140.516 132.458 140.456 132.723 140.337C132.99 140.217 133.199 140.051 133.349 139.838C133.5 139.622 133.575 139.374 133.575 139.092C133.575 138.8 133.5 138.543 133.349 138.321C133.201 138.097 132.984 137.92 132.697 137.793C132.413 137.665 132.069 137.601 131.666 137.601H130.929V136.527H131.666C131.99 136.527 132.274 136.469 132.518 136.352C132.765 136.236 132.958 136.074 133.098 135.866C133.237 135.656 133.306 135.41 133.306 135.129C133.306 134.859 133.245 134.625 133.123 134.426C133.004 134.224 132.833 134.067 132.612 133.953C132.393 133.839 132.135 133.783 131.836 133.783C131.552 133.783 131.287 133.835 131.039 133.94C130.795 134.043 130.596 134.19 130.443 134.383C130.289 134.574 130.207 134.803 130.196 135.07H128.922C128.936 134.598 129.075 134.183 129.339 133.825C129.606 133.467 129.958 133.187 130.396 132.986C130.833 132.784 131.319 132.683 131.853 132.683C132.413 132.683 132.896 132.793 133.302 133.011C133.711 133.227 134.027 133.516 134.248 133.876C134.473 134.237 134.583 134.632 134.581 135.061C134.583 135.55 134.447 135.964 134.172 136.305C133.899 136.646 133.535 136.875 133.081 136.991V137.06C133.66 137.148 134.109 137.378 134.427 137.75C134.748 138.122 134.907 138.584 134.904 139.135C134.907 139.615 134.774 140.045 134.504 140.426C134.237 140.807 133.872 141.106 133.409 141.325C132.946 141.541 132.416 141.649 131.819 141.649Z" fill="white"/>
<circle cx="28" cy="145.53" r="15" fill="#7653BF"/>
<path d="M28.001 137.53C27.8378 137.53 27.6813 137.595 27.5659 137.71C27.4505 137.825 27.3856 137.982 27.3856 138.145V142.453C27.3856 142.616 27.4505 142.773 27.5659 142.888C27.6813 143.003 27.8378 143.068 28.001 143.068C28.5429 143.068 29.0695 143.247 29.4994 143.577C29.9292 143.907 30.2381 144.37 30.3782 144.893C30.5184 145.416 30.4819 145.972 30.2745 146.472C30.0671 146.973 29.7003 147.391 29.231 147.662C28.7617 147.933 28.2162 148.041 27.679 147.97C27.1418 147.899 26.6429 147.653 26.2598 147.27C25.8767 146.887 25.6307 146.388 25.56 145.851C25.4893 145.314 25.5978 144.768 25.8687 144.299C25.9091 144.229 25.9354 144.152 25.9459 144.072C25.9565 143.991 25.9511 143.91 25.9302 143.832C25.9093 143.754 25.8732 143.681 25.824 143.617C25.7747 143.552 25.7134 143.499 25.6433 143.458L21.9126 141.304C21.8426 141.264 21.7653 141.238 21.6852 141.227C21.605 141.217 21.5236 141.222 21.4455 141.243C21.3674 141.264 21.2942 141.3 21.2301 141.349C21.166 141.398 21.1122 141.46 21.0718 141.53C20.1913 143.055 19.8386 144.828 20.0684 146.574C20.2983 148.32 21.0978 149.941 22.343 151.186C23.5882 152.432 25.2095 153.231 26.9554 153.461C28.7014 153.691 30.4744 153.339 31.9996 152.458C33.5247 151.578 34.7167 150.219 35.3908 148.592C36.0648 146.965 36.1832 145.161 35.7276 143.46C35.272 141.759 34.2678 140.256 32.8708 139.184C31.4738 138.111 29.7621 137.53 28.001 137.53ZM21.8541 142.691L24.5395 144.242C24.3867 144.654 24.3085 145.09 24.3087 145.53C24.3087 145.647 24.3149 145.761 24.3257 145.877L21.3303 146.684C21.0967 145.331 21.2793 143.938 21.8541 142.691ZM21.6487 147.869L24.6487 147.066C24.8995 147.613 25.2799 148.09 25.7568 148.457C26.2337 148.823 26.7928 149.068 27.3856 149.17V152.271C26.1117 152.152 24.897 151.677 23.882 150.898C22.8669 150.119 22.0927 149.069 21.6487 147.869ZM28.6164 152.271V149.17C29.4764 149.024 30.2571 148.578 30.82 147.912C31.3829 147.246 31.6917 146.402 31.6917 145.529C31.6917 144.657 31.3829 143.813 30.82 143.147C30.2571 142.48 29.4764 142.035 28.6164 141.889V138.788C30.2981 138.942 31.8616 139.719 33.0001 140.966C34.1386 142.213 34.7697 143.841 34.7697 145.529C34.7697 147.218 34.1386 148.846 33.0001 150.093C31.8616 151.34 30.2981 152.117 28.6164 152.271Z" fill="white"/>
<path d="M64.4773 204.53H62.7727V198.712H64.5795C65.1345 198.712 65.6089 198.827 66.0028 199.058C66.3987 199.289 66.7017 199.621 66.9119 200.053C67.1222 200.484 67.2273 201.002 67.2273 201.606C67.2273 202.216 67.1193 202.74 66.9034 203.178C66.6894 203.613 66.3769 203.947 65.9659 204.18C65.5568 204.413 65.0606 204.53 64.4773 204.53ZM63.304 204.053H64.446C64.946 204.053 65.3646 203.954 65.7017 203.757C66.0388 203.56 66.2917 203.279 66.4602 202.913C66.6288 202.548 66.7131 202.112 66.7131 201.606C66.7112 201.105 66.6278 200.673 66.4631 200.311C66.3002 199.949 66.0578 199.672 65.7358 199.479C65.4157 199.285 65.0199 199.189 64.5483 199.189H63.304V204.053ZM69.2536 204.629C68.9903 204.629 68.7498 204.578 68.532 204.476C68.3142 204.372 68.1409 204.222 68.0121 204.027C67.8833 203.83 67.8189 203.591 67.8189 203.311C67.8189 203.095 67.8596 202.913 67.9411 202.766C68.0225 202.618 68.138 202.497 68.2876 202.402C68.4373 202.307 68.6143 202.232 68.8189 202.178C69.0234 202.123 69.2488 202.08 69.495 202.05C69.7393 202.019 69.9458 201.993 70.1143 201.97C70.2848 201.947 70.4145 201.911 70.5036 201.862C70.5926 201.813 70.6371 201.733 70.6371 201.624V201.521C70.6371 201.224 70.5481 200.99 70.37 200.82C70.1939 200.647 69.9401 200.561 69.6087 200.561C69.2943 200.561 69.0376 200.63 68.8388 200.768C68.6418 200.907 68.5036 201.07 68.424 201.257L67.9439 201.084C68.0424 200.845 68.1787 200.655 68.353 200.513C68.5272 200.369 68.7223 200.266 68.9382 200.203C69.1541 200.139 69.3729 200.106 69.5945 200.106C69.7611 200.106 69.9344 200.128 70.1143 200.172C70.2962 200.215 70.4647 200.291 70.62 200.399C70.7753 200.505 70.9013 200.654 70.9979 200.845C71.0945 201.035 71.1428 201.275 71.1428 201.567V204.53H70.6371V203.839H70.6058C70.5452 203.968 70.4553 204.093 70.3359 204.214C70.2166 204.336 70.067 204.435 69.8871 204.513C69.7071 204.59 69.496 204.629 69.2536 204.629ZM69.3217 204.166C69.5907 204.166 69.8236 204.106 70.0206 203.987C70.2176 203.868 70.3691 203.71 70.4751 203.513C70.5831 203.314 70.6371 203.095 70.6371 202.856V202.226C70.5992 202.262 70.5357 202.294 70.4467 202.322C70.3596 202.351 70.2583 202.376 70.1428 202.399C70.0291 202.42 69.9155 202.438 69.8018 202.453C69.6882 202.468 69.5859 202.481 69.495 202.493C69.2488 202.523 69.0386 202.571 68.8643 202.635C68.6901 202.699 68.5566 202.788 68.4638 202.902C68.371 203.014 68.3246 203.158 68.3246 203.334C68.3246 203.599 68.4193 203.804 68.6087 203.95C68.7981 204.094 69.0357 204.166 69.3217 204.166ZM72.4254 200.166L73.5504 202.027L74.6754 200.166H75.2635L73.8601 202.348L75.2635 204.53H74.6754L73.5504 202.729L72.4254 204.53H71.8402L73.2266 202.348L71.8402 200.166H72.4254ZM82.4858 200.53H81.9517C81.9119 200.331 81.84 200.147 81.7358 199.979C81.6335 199.808 81.5047 199.66 81.3494 199.533C81.1941 199.406 81.018 199.307 80.821 199.237C80.6241 199.167 80.411 199.132 80.1818 199.132C79.8144 199.132 79.4792 199.228 79.1761 199.419C78.875 199.61 78.6335 199.892 78.4517 200.263C78.2718 200.632 78.1818 201.085 78.1818 201.621C78.1818 202.16 78.2718 202.615 78.4517 202.984C78.6335 203.354 78.875 203.634 79.1761 203.825C79.4792 204.015 79.8144 204.109 80.1818 204.109C80.411 204.109 80.6241 204.074 80.821 204.004C81.018 203.934 81.1941 203.837 81.3494 203.712C81.5047 203.585 81.6335 203.436 81.7358 203.266C81.84 203.095 81.9119 202.91 81.9517 202.712H82.4858C82.4384 202.979 82.3494 203.228 82.2188 203.459C82.09 203.688 81.9252 203.889 81.7244 204.061C81.5256 204.233 81.2964 204.368 81.0369 204.464C80.7775 204.561 80.4924 204.609 80.1818 204.609C79.6932 204.609 79.2595 204.487 78.8807 204.243C78.5019 203.997 78.2045 203.65 77.9886 203.203C77.7746 202.756 77.6676 202.229 77.6676 201.621C77.6676 201.013 77.7746 200.485 77.9886 200.038C78.2045 199.591 78.5019 199.246 78.8807 199.001C79.2595 198.755 79.6932 198.632 80.1818 198.632C80.4924 198.632 80.7775 198.68 81.0369 198.777C81.2964 198.872 81.5256 199.006 81.7244 199.18C81.9252 199.353 82.09 199.553 82.2188 199.783C82.3494 200.012 82.4384 200.261 82.4858 200.53ZM84.9496 204.621C84.5727 204.621 84.2393 204.525 83.9496 204.334C83.6617 204.142 83.4363 203.878 83.2734 203.541C83.1106 203.202 83.0291 202.811 83.0291 202.368C83.0291 201.921 83.1106 201.528 83.2734 201.189C83.4363 200.848 83.6617 200.583 83.9496 200.393C84.2393 200.202 84.5727 200.106 84.9496 200.106C85.3265 200.106 85.6589 200.202 85.9467 200.393C86.2346 200.585 86.46 200.85 86.6229 201.189C86.7876 201.528 86.87 201.921 86.87 202.368C86.87 202.811 86.7886 203.202 86.6257 203.541C86.4628 203.878 86.2365 204.142 85.9467 204.334C85.6589 204.525 85.3265 204.621 84.9496 204.621ZM84.9496 204.158C85.2526 204.158 85.5092 204.076 85.7195 203.913C85.9297 203.75 86.0888 203.534 86.1967 203.263C86.3066 202.992 86.3615 202.694 86.3615 202.368C86.3615 202.042 86.3066 201.743 86.1967 201.47C86.0888 201.197 85.9297 200.979 85.7195 200.814C85.5092 200.649 85.2526 200.567 84.9496 200.567C84.6484 200.567 84.3918 200.649 84.1797 200.814C83.9695 200.979 83.8094 201.197 83.6996 201.47C83.5916 201.743 83.5376 202.042 83.5376 202.368C83.5376 202.694 83.5916 202.992 83.6996 203.263C83.8094 203.534 83.9695 203.75 84.1797 203.913C84.3899 204.076 84.6465 204.158 84.9496 204.158ZM89.1761 204.621C88.8182 204.621 88.5047 204.526 88.2358 204.337C87.9669 204.147 87.7566 203.883 87.6051 203.544C87.4555 203.205 87.3807 202.81 87.3807 202.359C87.3807 201.91 87.4555 201.517 87.6051 201.18C87.7566 200.841 87.9678 200.578 88.2386 200.391C88.5095 200.201 88.8248 200.106 89.1847 200.106C89.4498 200.106 89.6705 200.154 89.8466 200.249C90.0227 200.341 90.1638 200.457 90.2699 200.595C90.3759 200.733 90.4583 200.868 90.517 200.999H90.5625V198.712H91.071V204.53H90.5767V203.72H90.517C90.4583 203.853 90.375 203.989 90.267 204.129C90.1591 204.267 90.0161 204.384 89.8381 204.479C89.6619 204.573 89.4413 204.621 89.1761 204.621ZM89.2358 204.158C89.518 204.158 89.7585 204.081 89.9574 203.928C90.1563 203.772 90.3078 203.559 90.4119 203.288C90.518 203.016 90.571 202.703 90.571 202.351C90.571 202.002 90.5189 201.695 90.4148 201.428C90.3106 201.159 90.1591 200.948 89.9602 200.797C89.7614 200.643 89.5199 200.567 89.2358 200.567C88.9441 200.567 88.6979 200.646 88.4972 200.805C88.2983 200.963 88.1468 201.176 88.0426 201.445C87.9403 201.713 87.8892 202.016 87.8892 202.351C87.8892 202.69 87.9413 202.996 88.0455 203.268C88.1496 203.541 88.3011 203.758 88.5 203.919C88.7008 204.078 88.946 204.158 89.2358 204.158ZM93.9006 204.621C93.4934 204.621 93.1411 204.526 92.8438 204.337C92.5464 204.145 92.3163 203.881 92.1534 203.544C91.9924 203.205 91.9119 202.815 91.9119 202.374C91.9119 201.934 91.9924 201.544 92.1534 201.203C92.3163 200.86 92.5407 200.592 92.8267 200.399C93.1146 200.204 93.447 200.106 93.8239 200.106C94.0606 200.106 94.2888 200.15 94.5085 200.237C94.7282 200.322 94.9252 200.454 95.0994 200.632C95.2756 200.808 95.4148 201.031 95.517 201.3C95.6193 201.567 95.6705 201.883 95.6705 202.249V202.499H92.2614V202.053H95.1534C95.1534 201.772 95.0966 201.52 94.983 201.297C94.8712 201.071 94.715 200.893 94.5142 200.763C94.3153 200.632 94.0852 200.567 93.8239 200.567C93.5473 200.567 93.304 200.641 93.0938 200.788C92.8835 200.936 92.7188 201.131 92.5994 201.374C92.482 201.616 92.4223 201.881 92.4205 202.169V202.436C92.4205 202.783 92.4801 203.086 92.5994 203.345C92.7206 203.603 92.892 203.803 93.1136 203.945C93.3352 204.087 93.5975 204.158 93.9006 204.158C94.107 204.158 94.2879 204.125 94.4432 204.061C94.6004 203.997 94.732 203.91 94.8381 203.803C94.946 203.693 95.0275 203.572 95.0824 203.442L95.5625 203.598C95.4962 203.782 95.3873 203.951 95.2358 204.106C95.0862 204.262 94.8987 204.387 94.6733 204.481C94.4498 204.574 94.1922 204.621 93.9006 204.621ZM98.3899 204.53V198.712H98.9212V204.053H101.694V204.53H98.3899ZM101.389 199.189V198.712H105.608V199.189H103.764V204.53H103.233V199.189H101.389ZM108.134 204.53H106.429V198.712H108.236C108.791 198.712 109.265 198.827 109.659 199.058C110.055 199.289 110.358 199.621 110.568 200.053C110.778 200.484 110.884 201.002 110.884 201.606C110.884 202.216 110.776 202.74 110.56 203.178C110.346 203.613 110.033 203.947 109.622 204.18C109.213 204.413 108.717 204.53 108.134 204.53ZM106.96 204.053H108.102C108.602 204.053 109.021 203.954 109.358 203.757C109.695 203.56 109.948 203.279 110.116 202.913C110.285 202.548 110.369 202.112 110.369 201.606C110.367 201.105 110.284 200.673 110.119 200.311C109.956 199.949 109.714 199.672 109.392 199.479C109.072 199.285 108.676 199.189 108.205 199.189H106.96V204.053ZM111.531 204.53H110.974L113.091 198.712H113.659L115.776 204.53H115.219L113.395 199.402H113.355L111.531 204.53ZM111.932 202.3H114.818V202.777H111.932V202.3Z" fill="#B1ACAC"/>
<path d="M63.8613 186.064V180.303H65.0076V186.064H63.8613ZM61.5559 183.754V182.612H67.3173V183.754H61.5559ZM71.8162 187.53V178.803H74.927C75.6032 178.803 76.1642 178.919 76.6103 179.152C77.0591 179.385 77.3944 179.707 77.6159 180.119C77.8375 180.528 77.9483 181.001 77.9483 181.538C77.9483 182.072 77.8361 182.543 77.6117 182.949C77.3901 183.352 77.0549 183.666 76.606 183.891C76.16 184.115 75.5989 184.227 74.9228 184.227H72.5662V183.094H74.8034C75.2296 183.094 75.5762 183.033 75.8432 182.91C76.1131 182.788 76.3105 182.611 76.4355 182.378C76.5605 182.145 76.623 181.865 76.623 181.538C76.623 181.209 76.5591 180.923 76.4313 180.682C76.3063 180.44 76.1088 180.256 75.839 180.128C75.5719 179.997 75.2211 179.932 74.7864 179.932H73.133V187.53H71.8162ZM76.1245 183.592L78.2807 187.53H76.7807L74.6671 183.592H76.1245ZM81.7495 188.621V177.712H82.4483V188.621H81.7495ZM83.9355 181.095C83.8901 180.692 83.7026 180.379 83.373 180.158C83.0435 179.933 82.6287 179.821 82.1287 179.821C81.7708 179.821 81.4611 179.878 81.1998 179.991C80.9384 180.102 80.7353 180.256 80.5904 180.452C80.4483 180.645 80.3773 180.865 80.3773 181.112C80.3773 181.32 80.4256 181.499 80.5222 181.649C80.6216 181.8 80.7509 181.926 80.91 182.028C81.0719 182.128 81.2452 182.212 81.4299 182.28C81.6145 182.345 81.7921 182.399 81.9625 182.442L82.8148 182.663C83.0932 182.731 83.3787 182.824 83.6713 182.94C83.964 183.057 84.2353 183.21 84.4853 183.401C84.7353 183.591 84.937 183.827 85.0904 184.108C85.2466 184.389 85.3248 184.726 85.3248 185.118C85.3248 185.612 85.1969 186.051 84.9412 186.435C84.6884 186.818 84.3205 187.121 83.8375 187.342C83.3574 187.564 82.7765 187.675 82.0946 187.675C81.4412 187.675 80.8759 187.571 80.3986 187.364C79.9213 187.156 79.5478 186.862 79.2779 186.481C79.008 186.098 78.8588 185.643 78.8304 185.118H80.1515C80.177 185.433 80.2793 185.696 80.4583 185.906C80.6401 186.114 80.8716 186.268 81.1529 186.371C81.437 186.47 81.748 186.52 82.0861 186.52C82.4583 186.52 82.7892 186.462 83.079 186.345C83.3716 186.226 83.6017 186.061 83.7694 185.851C83.937 185.638 84.0208 185.389 84.0208 185.105C84.0208 184.847 83.9469 184.635 83.7992 184.47C83.6543 184.305 83.4569 184.169 83.2069 184.061C82.9597 183.953 82.6799 183.858 82.3674 183.776L81.3361 183.494C80.6373 183.304 80.0833 183.024 79.6742 182.655C79.2679 182.285 79.0648 181.797 79.0648 181.189C79.0648 180.686 79.2012 180.247 79.4739 179.872C79.7466 179.497 80.1159 179.206 80.5819 178.999C81.0478 178.788 81.5733 178.683 82.1586 178.683C82.7495 178.683 83.2708 178.787 83.7225 178.994C84.177 179.202 84.535 179.487 84.7963 179.851C85.0577 180.212 85.1941 180.626 85.2054 181.095H83.9355ZM92.2431 187.649C91.6578 187.649 91.1351 187.548 90.6749 187.347C90.2175 187.145 89.8553 186.865 89.5882 186.507C89.324 186.146 89.182 185.729 89.1621 185.254H90.5002C90.5172 185.513 90.6039 185.737 90.7601 185.928C90.9192 186.115 91.1266 186.26 91.3823 186.362C91.638 186.464 91.9221 186.516 92.2346 186.516C92.5783 186.516 92.8823 186.456 93.1465 186.337C93.4135 186.217 93.6223 186.051 93.7729 185.838C93.9235 185.622 93.9988 185.374 93.9988 185.092C93.9988 184.8 93.9235 184.543 93.7729 184.321C93.6252 184.097 93.4078 183.92 93.1209 183.793C92.8368 183.665 92.4931 183.601 92.0897 183.601H91.3525V182.527H92.0897C92.4135 182.527 92.6976 182.469 92.9419 182.352C93.1891 182.236 93.3823 182.074 93.5215 181.866C93.6607 181.656 93.7303 181.41 93.7303 181.129C93.7303 180.859 93.6692 180.625 93.5471 180.426C93.4277 180.224 93.2573 180.067 93.0357 179.953C92.8169 179.839 92.5584 179.783 92.2601 179.783C91.976 179.783 91.7104 179.835 91.4632 179.94C91.2189 180.043 91.0201 180.19 90.8667 180.383C90.7132 180.574 90.6309 180.803 90.6195 181.07H89.3453C89.3596 180.598 89.4988 180.183 89.763 179.825C90.03 179.467 90.3823 179.187 90.8198 178.986C91.2573 178.784 91.7431 178.683 92.2772 178.683C92.8368 178.683 93.3198 178.793 93.726 179.011C94.1351 179.227 94.4505 179.516 94.6721 179.876C94.8965 180.237 95.0073 180.632 95.0044 181.061C95.0073 181.55 94.8709 181.964 94.5953 182.305C94.3226 182.646 93.959 182.875 93.5044 182.991V183.06C94.084 183.148 94.5328 183.378 94.851 183.75C95.1721 184.122 95.3311 184.584 95.3283 185.135C95.3311 185.615 95.1976 186.045 94.9277 186.426C94.6607 186.807 94.2956 187.106 93.8326 187.325C93.3695 187.541 92.8397 187.649 92.2431 187.649ZM97.1628 187.611C96.9299 187.611 96.7296 187.528 96.562 187.364C96.3944 187.196 96.3105 186.994 96.3105 186.758C96.3105 186.526 96.3944 186.327 96.562 186.162C96.7296 185.994 96.9299 185.91 97.1628 185.91C97.3958 185.91 97.5961 185.994 97.7637 186.162C97.9313 186.327 98.0151 186.526 98.0151 186.758C98.0151 186.915 97.9753 187.058 97.8958 187.189C97.8191 187.317 97.7168 187.419 97.589 187.496C97.4611 187.572 97.3191 187.611 97.1628 187.611ZM102.126 178.683C102.515 178.686 102.899 178.757 103.277 178.896C103.655 179.035 103.996 179.263 104.3 179.578C104.606 179.893 104.851 180.32 105.032 180.856C105.217 181.391 105.311 182.055 105.314 182.851C105.314 183.615 105.237 184.295 105.084 184.892C104.93 185.486 104.71 185.987 104.423 186.396C104.139 186.805 103.794 187.116 103.388 187.33C102.981 187.543 102.524 187.649 102.015 187.649C101.496 187.649 101.034 187.547 100.631 187.342C100.227 187.138 99.899 186.855 99.6461 186.494C99.3933 186.131 99.2356 185.713 99.1731 185.241H100.473C100.558 185.616 100.731 185.92 100.993 186.153C101.257 186.383 101.598 186.499 102.015 186.499C102.655 186.499 103.153 186.22 103.511 185.663C103.869 185.104 104.05 184.322 104.052 183.32H103.984C103.836 183.564 103.652 183.774 103.43 183.95C103.211 184.126 102.966 184.263 102.693 184.359C102.42 184.456 102.129 184.504 101.819 184.504C101.317 184.504 100.859 184.381 100.447 184.133C100.035 183.886 99.7072 183.547 99.4629 183.115C99.2186 182.683 99.0964 182.19 99.0964 181.636C99.0964 181.085 99.2214 180.585 99.4714 180.136C99.7243 179.687 100.077 179.332 100.528 179.071C100.983 178.807 101.515 178.678 102.126 178.683ZM102.131 179.791C101.798 179.791 101.498 179.874 101.231 180.038C100.967 180.2 100.758 180.42 100.605 180.699C100.452 180.974 100.375 181.281 100.375 181.619C100.375 181.957 100.449 182.264 100.596 182.54C100.747 182.812 100.952 183.03 101.21 183.192C101.471 183.351 101.77 183.43 102.105 183.43C102.355 183.43 102.588 183.382 102.804 183.285C103.02 183.189 103.209 183.055 103.371 182.885C103.532 182.712 103.659 182.516 103.75 182.297C103.841 182.078 103.886 181.848 103.886 181.606C103.886 181.285 103.809 180.987 103.656 180.712C103.506 180.436 103.298 180.214 103.034 180.047C102.77 179.876 102.469 179.791 102.131 179.791ZM106.478 187.53V186.575L109.431 183.516C109.747 183.183 110.007 182.892 110.211 182.642C110.419 182.389 110.573 182.149 110.676 181.922C110.778 181.695 110.829 181.453 110.829 181.197C110.829 180.908 110.761 180.658 110.624 180.447C110.488 180.234 110.302 180.071 110.066 179.957C109.83 179.841 109.565 179.783 109.269 179.783C108.957 179.783 108.684 179.847 108.451 179.974C108.218 180.102 108.039 180.283 107.914 180.516C107.789 180.749 107.727 181.021 107.727 181.334H106.47C106.47 180.803 106.592 180.338 106.836 179.94C107.08 179.543 107.416 179.234 107.842 179.016C108.268 178.794 108.752 178.683 109.295 178.683C109.843 178.683 110.326 178.793 110.744 179.011C111.164 179.227 111.492 179.523 111.728 179.898C111.964 180.27 112.082 180.69 112.082 181.159C112.082 181.483 112.021 181.8 111.899 182.109C111.779 182.419 111.57 182.764 111.272 183.145C110.974 183.523 110.559 183.981 110.028 184.521L108.294 186.337V186.401H112.222V187.53H106.478ZM113.092 185.825V184.76L116.863 178.803H117.703V180.371H117.17L114.472 184.641V184.709H119.642V185.825H113.092ZM117.23 187.53V185.501L117.238 185.016V178.803H118.487V187.53H117.23ZM122.098 186.337L122.034 186.801C121.992 187.142 121.919 187.497 121.817 187.866C121.718 188.239 121.614 188.584 121.506 188.902C121.401 189.22 121.314 189.473 121.246 189.66H120.343C120.379 189.484 120.431 189.246 120.496 188.945C120.561 188.646 120.625 188.312 120.688 187.943C120.75 187.574 120.797 187.197 120.828 186.814L120.871 186.337H122.098ZM126.302 178.683C126.691 178.686 127.075 178.757 127.453 178.896C127.83 179.035 128.171 179.263 128.475 179.578C128.782 179.893 129.026 180.32 129.208 180.856C129.393 181.391 129.487 182.055 129.49 182.851C129.49 183.615 129.413 184.295 129.259 184.892C129.106 185.486 128.886 185.987 128.599 186.396C128.315 186.805 127.97 187.116 127.563 187.33C127.157 187.543 126.7 187.649 126.191 187.649C125.671 187.649 125.21 187.547 124.806 187.342C124.403 187.138 124.075 186.855 123.822 186.494C123.569 186.131 123.411 185.713 123.349 185.241H124.649C124.734 185.616 124.907 185.92 125.169 186.153C125.433 186.383 125.774 186.499 126.191 186.499C126.83 186.499 127.329 186.22 127.687 185.663C128.045 185.104 128.225 184.322 128.228 183.32H128.16C128.012 183.564 127.828 183.774 127.606 183.95C127.387 184.126 127.142 184.263 126.869 184.359C126.596 184.456 126.305 184.504 125.995 184.504C125.492 184.504 125.035 184.381 124.623 184.133C124.211 183.886 123.883 183.547 123.639 183.115C123.394 182.683 123.272 182.19 123.272 181.636C123.272 181.085 123.397 180.585 123.647 180.136C123.9 179.687 124.252 179.332 124.704 179.071C125.159 178.807 125.691 178.678 126.302 178.683ZM126.306 179.791C125.974 179.791 125.674 179.874 125.407 180.038C125.143 180.2 124.934 180.42 124.781 180.699C124.627 180.974 124.551 181.281 124.551 181.619C124.551 181.957 124.624 182.264 124.772 182.54C124.923 182.812 125.127 183.03 125.386 183.192C125.647 183.351 125.945 183.43 126.281 183.43C126.531 183.43 126.764 183.382 126.98 183.285C127.195 183.189 127.384 183.055 127.546 182.885C127.708 182.712 127.835 182.516 127.926 182.297C128.017 182.078 128.062 181.848 128.062 181.606C128.062 181.285 127.985 180.987 127.832 180.712C127.681 180.436 127.474 180.214 127.21 180.047C126.945 179.876 126.644 179.791 126.306 179.791ZM133.692 187.675C133.019 187.672 132.444 187.494 131.966 187.142C131.489 186.79 131.124 186.277 130.871 185.604C130.618 184.93 130.492 184.119 130.492 183.17C130.492 182.224 130.618 181.416 130.871 180.746C131.127 180.075 131.493 179.564 131.971 179.212C132.451 178.859 133.025 178.683 133.692 178.683C134.36 178.683 134.932 178.861 135.41 179.216C135.887 179.568 136.252 180.08 136.505 180.75C136.76 181.418 136.888 182.224 136.888 183.17C136.888 184.122 136.762 184.935 136.509 185.608C136.256 186.278 135.891 186.791 135.414 187.146C134.937 187.499 134.363 187.675 133.692 187.675ZM133.692 186.537C134.283 186.537 134.745 186.249 135.077 185.672C135.412 185.095 135.58 184.261 135.58 183.17C135.58 182.446 135.503 181.834 135.35 181.334C135.199 180.831 134.982 180.45 134.698 180.192C134.417 179.93 134.081 179.8 133.692 179.8C133.104 179.8 132.643 180.089 132.307 180.669C131.972 181.249 131.803 182.082 131.8 183.17C131.8 183.898 131.876 184.513 132.026 185.016C132.18 185.516 132.397 185.895 132.678 186.153C132.959 186.409 133.297 186.537 133.692 186.537Z" fill="white"/>
<circle cx="28" cy="192.53" r="15" fill="#7653BF"/>
<path d="M28.001 184.53C27.8378 184.53 27.6813 184.595 27.5659 184.71C27.4505 184.825 27.3856 184.982 27.3856 185.145V189.453C27.3856 189.616 27.4505 189.773 27.5659 189.888C27.6813 190.003 27.8378 190.068 28.001 190.068C28.5429 190.068 29.0695 190.247 29.4994 190.577C29.9292 190.907 30.2381 191.37 30.3782 191.893C30.5184 192.416 30.4819 192.972 30.2745 193.472C30.0671 193.973 29.7003 194.391 29.231 194.662C28.7617 194.933 28.2162 195.041 27.679 194.97C27.1418 194.899 26.6429 194.653 26.2598 194.27C25.8767 193.887 25.6307 193.388 25.56 192.851C25.4893 192.314 25.5978 191.768 25.8687 191.299C25.9091 191.229 25.9354 191.152 25.9459 191.072C25.9565 190.991 25.9511 190.91 25.9302 190.832C25.9093 190.754 25.8732 190.681 25.824 190.617C25.7747 190.552 25.7134 190.499 25.6433 190.458L21.9126 188.304C21.8426 188.264 21.7653 188.238 21.6852 188.227C21.605 188.217 21.5236 188.222 21.4455 188.243C21.3674 188.264 21.2942 188.3 21.2301 188.349C21.166 188.398 21.1122 188.46 21.0718 188.53C20.1913 190.055 19.8386 191.828 20.0684 193.574C20.2983 195.32 21.0978 196.941 22.343 198.186C23.5882 199.432 25.2095 200.231 26.9554 200.461C28.7014 200.691 30.4744 200.339 31.9996 199.458C33.5247 198.578 34.7167 197.219 35.3908 195.592C36.0648 193.965 36.1832 192.161 35.7276 190.46C35.272 188.759 34.2678 187.256 32.8708 186.184C31.4738 185.111 29.7621 184.53 28.001 184.53ZM21.8541 189.691L24.5395 191.242C24.3867 191.654 24.3085 192.09 24.3087 192.53C24.3087 192.647 24.3149 192.761 24.3257 192.877L21.3303 193.684C21.0967 192.331 21.2793 190.938 21.8541 189.691ZM21.6487 194.869L24.6487 194.066C24.8995 194.613 25.2799 195.09 25.7568 195.457C26.2337 195.823 26.7928 196.068 27.3856 196.17V199.271C26.1117 199.152 24.897 198.677 23.882 197.898C22.8669 197.119 22.0927 196.069 21.6487 194.869ZM28.6164 199.271V196.17C29.4764 196.024 30.2571 195.578 30.82 194.912C31.3829 194.246 31.6917 193.402 31.6917 192.529C31.6917 191.657 31.3829 190.813 30.82 190.147C30.2571 189.48 29.4764 189.035 28.6164 188.889V185.788C30.2981 185.942 31.8616 186.719 33.0001 187.966C34.1386 189.213 34.7697 190.841 34.7697 192.529C34.7697 194.218 34.1386 195.846 33.0001 197.093C31.8616 198.34 30.2981 199.117 28.6164 199.271Z" fill="white"/>
<path d="M159.433 59.8025V68.5298H158.376V60.9105H158.325L156.194 62.3252V61.2514L158.376 59.8025H159.433ZM164.414 68.6491C163.772 68.6491 163.225 68.4744 162.773 68.125C162.322 67.7727 161.977 67.2627 161.738 66.5951C161.499 65.9247 161.38 65.115 161.38 64.1661C161.38 63.223 161.499 62.4176 161.738 61.75C161.979 61.0795 162.326 60.5681 162.778 60.2159C163.232 59.8608 163.778 59.6832 164.414 59.6832C165.05 59.6832 165.594 59.8608 166.046 60.2159C166.501 60.5681 166.847 61.0795 167.086 61.75C167.327 62.4176 167.448 63.223 167.448 64.1661C167.448 65.115 167.329 65.9247 167.09 66.5951C166.852 67.2627 166.506 67.7727 166.055 68.125C165.603 68.4744 165.056 68.6491 164.414 68.6491ZM164.414 67.7116C165.05 67.7116 165.545 67.4048 165.897 66.7911C166.249 66.1775 166.425 65.3025 166.425 64.1661C166.425 63.4105 166.344 62.767 166.183 62.2358C166.023 61.7045 165.793 61.2997 165.492 61.0213C165.194 60.7429 164.835 60.6036 164.414 60.6036C163.783 60.6036 163.29 60.9147 162.935 61.5369C162.58 62.1562 162.403 63.0326 162.403 64.1661C162.403 64.9218 162.482 65.5639 162.641 66.0923C162.8 66.6207 163.029 67.0227 163.327 67.2983C163.629 67.5738 163.991 67.7116 164.414 67.7116ZM173.141 66.8934V66.4332C173.141 66.115 173.207 65.8238 173.337 65.5596C173.471 65.2926 173.664 65.0795 173.917 64.9204C174.173 64.7585 174.482 64.6775 174.846 64.6775C175.215 64.6775 175.525 64.7585 175.775 64.9204C176.025 65.0795 176.214 65.2926 176.342 65.5596C176.469 65.8238 176.533 66.115 176.533 66.4332V66.8934C176.533 67.2116 176.468 67.5042 176.337 67.7713C176.21 68.0355 176.019 68.2485 175.766 68.4105C175.516 68.5696 175.21 68.6491 174.846 68.6491C174.477 68.6491 174.165 68.5696 173.913 68.4105C173.66 68.2485 173.468 68.0355 173.337 67.7713C173.207 67.5042 173.141 67.2116 173.141 66.8934ZM174.011 66.4332V66.8934C174.011 67.1576 174.073 67.3948 174.198 67.6051C174.323 67.8125 174.539 67.9161 174.846 67.9161C175.144 67.9161 175.354 67.8125 175.477 67.6051C175.602 67.3948 175.664 67.1576 175.664 66.8934V66.4332C175.664 66.169 175.604 65.9332 175.485 65.7258C175.366 65.5156 175.153 65.4105 174.846 65.4105C174.548 65.4105 174.333 65.5156 174.202 65.7258C174.075 65.9332 174.011 66.169 174.011 66.4332ZM168.795 61.8991V61.4389C168.795 61.1207 168.86 60.8295 168.991 60.5653C169.124 60.2983 169.317 60.0852 169.57 59.9261C169.826 59.7642 170.136 59.6832 170.499 59.6832C170.869 59.6832 171.178 59.7642 171.428 59.9261C171.678 60.0852 171.867 60.2983 171.995 60.5653C172.123 60.8295 172.187 61.1207 172.187 61.4389V61.8991C172.187 62.2173 172.121 62.5099 171.991 62.7769C171.863 63.0411 171.673 63.2542 171.42 63.4161C171.17 63.5752 170.863 63.6548 170.499 63.6548C170.13 63.6548 169.819 63.5752 169.566 63.4161C169.313 63.2542 169.121 63.0411 168.991 62.7769C168.86 62.5099 168.795 62.2173 168.795 61.8991ZM169.664 61.4389V61.8991C169.664 62.1633 169.727 62.4005 169.852 62.6108C169.977 62.8181 170.192 62.9218 170.499 62.9218C170.798 62.9218 171.008 62.8181 171.13 62.6108C171.255 62.4005 171.317 62.1633 171.317 61.8991V61.4389C171.317 61.1747 171.258 60.9389 171.138 60.7315C171.019 60.5213 170.806 60.4161 170.499 60.4161C170.201 60.4161 169.987 60.5213 169.856 60.7315C169.728 60.9389 169.664 61.1747 169.664 61.4389ZM169.119 68.5298L175.119 59.8025H176.09L170.09 68.5298H169.119Z" fill="#00B37E"/>
<path d="M150.685 68.1579C150.725 68.1985 150.758 68.2468 150.78 68.2999C150.802 68.353 150.813 68.4099 150.813 68.4674C150.813 68.5249 150.802 68.5818 150.78 68.6349C150.758 68.688 150.725 68.7363 150.685 68.7769C150.644 68.8176 150.596 68.8498 150.543 68.8718C150.49 68.8938 150.433 68.9051 150.375 68.9051C150.318 68.9051 150.261 68.8938 150.208 68.8718C150.155 68.8498 150.106 68.8176 150.066 68.7769L146 64.7109L141.935 68.7769C141.853 68.859 141.741 68.9051 141.625 68.9051C141.509 68.9051 141.398 68.859 141.316 68.7769C141.234 68.6948 141.188 68.5835 141.188 68.4674C141.187 68.3513 141.234 68.2399 141.316 68.1579L145.691 63.7829C145.731 63.7422 145.78 63.7099 145.833 63.6879C145.886 63.6659 145.943 63.6545 146 63.6545C146.058 63.6545 146.115 63.6659 146.168 63.6879C146.221 63.7099 146.269 63.7422 146.31 63.7829L150.685 68.1579ZM141.935 64.4019L146 60.3359L150.066 64.4019C150.106 64.4426 150.155 64.4748 150.208 64.4968C150.261 64.5188 150.318 64.5301 150.375 64.5301C150.433 64.5301 150.49 64.5188 150.543 64.4968C150.596 64.4748 150.644 64.4426 150.685 64.4019C150.725 64.3613 150.758 64.313 150.78 64.2599C150.802 64.2068 150.813 64.1499 150.813 64.0924C150.813 64.0349 150.802 63.978 150.78 63.9249C150.758 63.8718 150.725 63.8235 150.685 63.7829L146.31 59.4079C146.269 59.3672 146.221 59.3349 146.168 59.3129C146.115 59.2909 146.058 59.2795 146 59.2795C145.943 59.2795 145.886 59.2909 145.833 59.3129C145.78 59.3349 145.731 59.3672 145.691 59.4079L141.316 63.7829C141.234 63.8649 141.187 63.9763 141.188 64.0924C141.188 64.2085 141.234 64.3198 141.316 64.4019C141.398 64.484 141.509 64.5301 141.625 64.5301C141.741 64.5301 141.853 64.484 141.935 64.4019Z" fill="#00B37E"/>
<defs>
<linearGradient id="paint0_linear_114_128" x1="100" y1="0.529785" x2="100" y2="228.53" gradientUnits="userSpaceOnUse">
<stop stop-color="#1C2025"/>
<stop offset="1" stop-color="#141618"/>
</linearGradient>
</defs>
</svg>
