<svg width="269" height="89" viewBox="0 0 269 89" fill="none" xmlns="http://www.w3.org/2000/svg">
<rect x="0.399737" y="0.819659" width="268.201" height="87.2005" rx="15.5897" fill="url(#paint0_linear_114_112)"/>
<rect x="0.399737" y="0.819659" width="268.201" height="87.2005" rx="15.5897" stroke="#323238" stroke-width="0.799474"/>
<path d="M13.8242 25.4199H11.131V16.6926H13.9435C14.7901 16.6926 15.5146 16.8674 16.1168 17.2168C16.7191 17.5634 17.1808 18.062 17.5018 18.7125C17.8228 19.3603 17.9833 20.1358 17.9833 21.0392C17.9833 21.9483 17.8214 22.731 17.4975 23.3873C17.1737 24.0407 16.7021 24.5435 16.0827 24.8958C15.4634 25.2452 14.7106 25.4199 13.8242 25.4199ZM12.1879 24.4824H13.756C14.4776 24.4824 15.0756 24.3432 15.5501 24.0648C16.0245 23.7864 16.3782 23.3901 16.6112 22.8759C16.8441 22.3617 16.9606 21.7495 16.9606 21.0392C16.9606 20.3347 16.8455 19.7282 16.6154 19.2196C16.3853 18.7083 16.0415 18.3162 15.5842 18.0435C15.1268 17.7679 14.5572 17.6301 13.8754 17.6301H12.1879V24.4824ZM21.989 25.5563C21.3583 25.5563 20.8143 25.4171 20.3569 25.1387C19.9023 24.8574 19.5515 24.4654 19.3043 23.9625C19.06 23.4569 18.9379 22.8688 18.9379 22.1983C18.9379 21.5279 19.06 20.937 19.3043 20.4256C19.5515 19.9114 19.8952 19.5108 20.3356 19.2239C20.7788 18.9341 21.2958 18.7892 21.8867 18.7892C22.2276 18.7892 22.5643 18.8461 22.8967 18.9597C23.229 19.0733 23.5316 19.258 23.8043 19.5137C24.0771 19.7665 24.2944 20.1017 24.4563 20.5194C24.6183 20.937 24.6992 21.4512 24.6992 22.062V22.4881H19.6538V21.6188H23.6765C23.6765 21.2495 23.6026 20.9199 23.4549 20.6301C23.31 20.3404 23.1026 20.1117 22.8327 19.9441C22.5657 19.7765 22.2504 19.6926 21.8867 19.6926C21.4862 19.6926 21.1396 19.7921 20.8469 19.9909C20.5572 20.187 20.3342 20.4426 20.1779 20.758C20.0217 21.0733 19.9435 21.4114 19.9435 21.7722V22.3517C19.9435 22.8461 20.0288 23.2651 20.1992 23.6088C20.3725 23.9498 20.6126 24.2097 20.9194 24.3887C21.2262 24.5648 21.5827 24.6529 21.989 24.6529C22.2532 24.6529 22.4918 24.6159 22.7049 24.5421C22.9208 24.4654 23.1069 24.3517 23.2631 24.2012C23.4194 24.0478 23.5401 23.8574 23.6254 23.6301L24.5969 23.9029C24.4947 24.2324 24.3228 24.5222 24.0813 24.7722C23.8398 25.0194 23.5415 25.2125 23.1864 25.3517C22.8313 25.4881 22.4322 25.5563 21.989 25.5563ZM30.4904 20.3404L29.587 20.5961C29.5302 20.4455 29.4464 20.2992 29.3356 20.1571C29.2276 20.0123 29.0799 19.8929 28.8924 19.7992C28.7049 19.7054 28.4648 19.6586 28.1722 19.6586C27.7717 19.6586 27.4379 19.7509 27.1708 19.9355C26.9066 20.1174 26.7745 20.3489 26.7745 20.6301C26.7745 20.8801 26.8654 21.0776 27.0472 21.2225C27.229 21.3674 27.5131 21.4881 27.8995 21.5847L28.8711 21.8233C29.4563 21.9654 29.8924 22.1827 30.1793 22.4753C30.4663 22.7651 30.6097 23.1387 30.6097 23.5961C30.6097 23.9711 30.5018 24.3063 30.2859 24.6017C30.0728 24.8972 29.7745 25.1301 29.391 25.3006C29.0075 25.4711 28.5614 25.5563 28.0529 25.5563C27.3853 25.5563 26.8327 25.4114 26.3952 25.1216C25.9577 24.8319 25.6808 24.4086 25.5643 23.8517L26.5188 23.6131C26.6097 23.9654 26.7816 24.2296 27.0344 24.4057C27.2901 24.5819 27.6239 24.6699 28.0359 24.6699C28.5046 24.6699 28.8768 24.5705 29.1523 24.3716C29.4308 24.1699 29.57 23.9284 29.57 23.6472C29.57 23.4199 29.4904 23.2296 29.3313 23.0762C29.1722 22.9199 28.9279 22.8034 28.5984 22.7267L27.5075 22.4711C26.908 22.329 26.4677 22.1088 26.1864 21.8105C25.908 21.5094 25.7688 21.133 25.7688 20.6813C25.7688 20.312 25.8725 19.9853 26.0799 19.7012C26.2901 19.4171 26.5756 19.1941 26.9364 19.0321C27.3001 18.8702 27.712 18.7892 28.1722 18.7892C28.82 18.7892 29.3285 18.9313 29.6978 19.2154C30.07 19.4995 30.3342 19.8745 30.4904 20.3404ZM31.7486 27.8745V18.8745H32.7202V19.9142H32.8395C32.9134 19.8006 33.0156 19.6557 33.1463 19.4796C33.2798 19.3006 33.4702 19.1415 33.7173 19.0023C33.9673 18.8603 34.3054 18.7892 34.7315 18.7892C35.2827 18.7892 35.7685 18.927 36.1889 19.2026C36.6094 19.4782 36.9375 19.8688 37.1733 20.3745C37.4091 20.8801 37.527 21.4767 37.527 22.1642C37.527 22.8574 37.4091 23.4583 37.1733 23.9668C36.9375 24.4725 36.6108 24.8645 36.1932 25.1429C35.7756 25.4185 35.294 25.5563 34.7486 25.5563C34.3281 25.5563 33.9915 25.4867 33.7386 25.3475C33.4858 25.2054 33.2912 25.0449 33.1548 24.8659C33.0185 24.6841 32.9134 24.5336 32.8395 24.4142H32.7543V27.8745H31.7486ZM32.7372 22.1472C32.7372 22.6415 32.8097 23.0776 32.9545 23.4554C33.0994 23.8304 33.3111 24.1245 33.5895 24.3375C33.8679 24.5478 34.2088 24.6529 34.6122 24.6529C35.0327 24.6529 35.3835 24.5421 35.6648 24.3205C35.9489 24.0961 36.1619 23.7949 36.304 23.4171C36.4489 23.0364 36.5213 22.6131 36.5213 22.1472C36.5213 21.687 36.4503 21.2722 36.3082 20.9029C36.169 20.5307 35.9574 20.2367 35.6733 20.0208C35.392 19.802 35.0384 19.6926 34.6122 19.6926C34.2031 19.6926 33.8594 19.7963 33.581 20.0037C33.3026 20.2083 33.0923 20.4952 32.9503 20.8645C32.8082 21.231 32.7372 21.6586 32.7372 22.1472ZM41.4304 25.5563C40.7997 25.5563 40.2557 25.4171 39.7983 25.1387C39.3438 24.8574 38.9929 24.4654 38.7457 23.9625C38.5014 23.4569 38.3793 22.8688 38.3793 22.1983C38.3793 21.5279 38.5014 20.937 38.7457 20.4256C38.9929 19.9114 39.3366 19.5108 39.777 19.2239C40.2202 18.9341 40.7372 18.7892 41.3281 18.7892C41.669 18.7892 42.0057 18.8461 42.3381 18.9597C42.6705 19.0733 42.973 19.258 43.2457 19.5137C43.5185 19.7665 43.7358 20.1017 43.8977 20.5194C44.0597 20.937 44.1406 21.4512 44.1406 22.062V22.4881H39.0952V21.6188H43.1179C43.1179 21.2495 43.044 20.9199 42.8963 20.6301C42.7514 20.3404 42.544 20.1117 42.2741 19.9441C42.0071 19.7765 41.6918 19.6926 41.3281 19.6926C40.9276 19.6926 40.581 19.7921 40.2884 19.9909C39.9986 20.187 39.7756 20.4426 39.6193 20.758C39.4631 21.0733 39.3849 21.4114 39.3849 21.7722V22.3517C39.3849 22.8461 39.4702 23.2651 39.6406 23.6088C39.8139 23.9498 40.054 24.2097 40.3608 24.3887C40.6676 24.5648 41.0241 24.6529 41.4304 24.6529C41.6946 24.6529 41.9332 24.6159 42.1463 24.5421C42.3622 24.4654 42.5483 24.3517 42.7045 24.2012C42.8608 24.0478 42.9815 23.8574 43.0668 23.6301L44.0384 23.9029C43.9361 24.2324 43.7642 24.5222 43.5227 24.7722C43.2813 25.0194 42.983 25.2125 42.6278 25.3517C42.2727 25.4881 41.8736 25.5563 41.4304 25.5563ZM49.9318 20.3404L49.0284 20.5961C48.9716 20.4455 48.8878 20.2992 48.777 20.1571C48.669 20.0123 48.5213 19.8929 48.3338 19.7992C48.1463 19.7054 47.9062 19.6586 47.6136 19.6586C47.2131 19.6586 46.8793 19.7509 46.6122 19.9355C46.348 20.1174 46.2159 20.3489 46.2159 20.6301C46.2159 20.8801 46.3068 21.0776 46.4886 21.2225C46.6705 21.3674 46.9545 21.4881 47.3409 21.5847L48.3125 21.8233C48.8977 21.9654 49.3338 22.1827 49.6207 22.4753C49.9077 22.7651 50.0511 23.1387 50.0511 23.5961C50.0511 23.9711 49.9432 24.3063 49.7273 24.6017C49.5142 24.8972 49.2159 25.1301 48.8324 25.3006C48.4489 25.4711 48.0028 25.5563 47.4943 25.5563C46.8267 25.5563 46.2741 25.4114 45.8366 25.1216C45.3991 24.8319 45.1222 24.4086 45.0057 23.8517L45.9602 23.6131C46.0511 23.9654 46.223 24.2296 46.4759 24.4057C46.7315 24.5819 47.0653 24.6699 47.4773 24.6699C47.946 24.6699 48.3182 24.5705 48.5938 24.3716C48.8722 24.1699 49.0114 23.9284 49.0114 23.6472C49.0114 23.4199 48.9318 23.2296 48.7727 23.0762C48.6136 22.9199 48.3693 22.8034 48.0398 22.7267L46.9489 22.4711C46.3494 22.329 45.9091 22.1088 45.6278 21.8105C45.3494 21.5094 45.2102 21.133 45.2102 20.6813C45.2102 20.312 45.3139 19.9853 45.5213 19.7012C45.7315 19.4171 46.017 19.1941 46.3778 19.0321C46.7415 18.8702 47.1534 18.7892 47.6136 18.7892C48.2614 18.7892 48.7699 18.9313 49.1392 19.2154C49.5114 19.4995 49.7756 19.8745 49.9318 20.3404ZM53.1161 25.5733C52.7013 25.5733 52.3249 25.4952 51.9869 25.339C51.6488 25.1799 51.3803 24.9512 51.1815 24.6529C50.9826 24.3517 50.8832 23.9881 50.8832 23.562C50.8832 23.187 50.957 22.883 51.1048 22.65C51.2525 22.4142 51.4499 22.2296 51.6971 22.0961C51.9442 21.9625 52.217 21.8631 52.5153 21.7978C52.8164 21.7296 53.119 21.6756 53.4229 21.6358C53.8207 21.5847 54.1431 21.5463 54.3903 21.5208C54.6403 21.4924 54.8221 21.4455 54.9357 21.3801C55.0522 21.3148 55.1104 21.2012 55.1104 21.0392V21.0051C55.1104 20.5847 54.9954 20.258 54.7653 20.025C54.538 19.7921 54.1928 19.6756 53.7298 19.6756C53.2496 19.6756 52.8732 19.7807 52.6005 19.9909C52.3278 20.2012 52.136 20.4256 52.0252 20.6642L51.0707 20.3233C51.2411 19.9256 51.4684 19.6159 51.7525 19.3944C52.0394 19.1699 52.3519 19.0137 52.69 18.9256C53.0309 18.8347 53.3661 18.7892 53.6957 18.7892C53.9059 18.7892 54.1474 18.8148 54.4201 18.8659C54.6957 18.9142 54.9613 19.0151 55.217 19.1685C55.4755 19.3219 55.69 19.5534 55.8604 19.8631C56.0309 20.1728 56.1161 20.5875 56.1161 21.1074V25.4199H55.1104V24.5336H55.0593C54.9911 24.6756 54.8775 24.8276 54.7184 24.9895C54.5593 25.1515 54.3477 25.2892 54.0835 25.4029C53.8192 25.5165 53.4968 25.5733 53.1161 25.5733ZM53.2695 24.6699C53.6673 24.6699 54.0025 24.5918 54.2752 24.4355C54.5508 24.2793 54.7582 24.0776 54.8974 23.8304C55.0394 23.5833 55.1104 23.3233 55.1104 23.0506V22.1301C55.0678 22.1813 54.9741 22.2282 54.8292 22.2708C54.6871 22.3105 54.5224 22.3461 54.3349 22.3773C54.1502 22.4057 53.9698 22.4313 53.7937 22.454C53.6204 22.4739 53.4798 22.4909 53.3718 22.5051C53.1104 22.5392 52.8661 22.5946 52.6388 22.6713C52.4144 22.7452 52.2326 22.8574 52.0934 23.008C51.957 23.1557 51.8888 23.3574 51.8888 23.6131C51.8888 23.9625 52.0181 24.2267 52.2766 24.4057C52.538 24.5819 52.869 24.6699 53.2695 24.6699ZM62.2131 20.3404L61.3097 20.5961C61.2528 20.4455 61.169 20.2992 61.0582 20.1571C60.9503 20.0123 60.8026 19.8929 60.6151 19.7992C60.4276 19.7054 60.1875 19.6586 59.8949 19.6586C59.4943 19.6586 59.1605 19.7509 58.8935 19.9355C58.6293 20.1174 58.4972 20.3489 58.4972 20.6301C58.4972 20.8801 58.5881 21.0776 58.7699 21.2225C58.9517 21.3674 59.2358 21.4881 59.6222 21.5847L60.5938 21.8233C61.179 21.9654 61.6151 22.1827 61.902 22.4753C62.1889 22.7651 62.3324 23.1387 62.3324 23.5961C62.3324 23.9711 62.2244 24.3063 62.0085 24.6017C61.7955 24.8972 61.4972 25.1301 61.1136 25.3006C60.7301 25.4711 60.2841 25.5563 59.7756 25.5563C59.108 25.5563 58.5554 25.4114 58.1179 25.1216C57.6804 24.8319 57.4034 24.4086 57.2869 23.8517L58.2415 23.6131C58.3324 23.9654 58.5043 24.2296 58.7571 24.4057C59.0128 24.5819 59.3466 24.6699 59.7585 24.6699C60.2273 24.6699 60.5994 24.5705 60.875 24.3716C61.1534 24.1699 61.2926 23.9284 61.2926 23.6472C61.2926 23.4199 61.2131 23.2296 61.054 23.0762C60.8949 22.9199 60.6506 22.8034 60.321 22.7267L59.2301 22.4711C58.6307 22.329 58.1903 22.1088 57.9091 21.8105C57.6307 21.5094 57.4915 21.133 57.4915 20.6813C57.4915 20.312 57.5952 19.9853 57.8026 19.7012C58.0128 19.4171 58.2983 19.1941 58.6591 19.0321C59.0227 18.8702 59.4347 18.7892 59.8949 18.7892C60.5426 18.7892 61.0511 18.9313 61.4205 19.2154C61.7926 19.4995 62.0568 19.8745 62.2131 20.3404Z" fill="white"/>
<circle cx="25" cy="58.4199" r="15" fill="#7653BF"/>
<path d="M33 64.343C33 64.5062 32.9352 64.6627 32.8198 64.7781C32.7044 64.8935 32.5478 64.9584 32.3846 64.9584H17.6154C17.4522 64.9584 17.2956 64.8935 17.1802 64.7781C17.0648 64.6627 17 64.5062 17 64.343V52.0353C17 51.8721 17.0648 51.7156 17.1802 51.6002C17.2956 51.4848 17.4522 51.4199 17.6154 51.4199C17.7786 51.4199 17.9351 51.4848 18.0505 51.6002C18.1659 51.7156 18.2308 51.8721 18.2308 52.0353V53.0115L22.5385 57.3192L24.5646 55.2922C24.6218 55.235 24.6896 55.1896 24.7643 55.1587C24.8391 55.1277 24.9191 55.1117 25 55.1117C25.0809 55.1117 25.1609 55.1277 25.2357 55.1587C25.3104 55.1896 25.3782 55.235 25.4354 55.2922L29.9231 59.7807V58.1892C29.9231 58.0259 29.9879 57.8694 30.1033 57.754C30.2187 57.6386 30.3753 57.5738 30.5385 57.5738C30.7017 57.5738 30.8582 57.6386 30.9736 57.754C31.089 57.8694 31.1538 58.0259 31.1538 58.1892V61.2661C31.155 61.2866 31.155 61.3071 31.1538 61.3276C31.1538 61.3361 31.1538 61.3438 31.15 61.3522C31.1462 61.3607 31.15 61.3753 31.1446 61.3876C31.143 61.3972 31.1406 61.4068 31.1377 61.4161C31.1377 61.4261 31.1331 61.4361 31.13 61.4461C31.1269 61.4561 31.1238 61.4638 31.1208 61.473L31.11 61.503L31.0985 61.5268C31.0938 61.5368 31.0892 61.5476 31.0838 61.5576C31.0785 61.5676 31.0754 61.5715 31.0715 61.5792L31.0531 61.6092L31.0369 61.6307L31.0169 61.6576C31.0085 61.6684 30.9985 61.6784 30.9892 61.6884L30.9769 61.7022L30.9638 61.7138C30.9536 61.7239 30.9428 61.7334 30.9315 61.7422C30.9237 61.7491 30.9155 61.7555 30.9069 61.7615L30.8838 61.7784L30.8546 61.7961C30.8472 61.8009 30.8395 61.8053 30.8315 61.8092L30.8031 61.8238L30.7769 61.8353L30.7492 61.8453C30.7397 61.8493 30.73 61.8527 30.72 61.8553L30.6923 61.863C30.6815 61.863 30.6723 61.8684 30.6615 61.8699L30.6292 61.8753L30.6023 61.8792C30.5821 61.8803 30.5618 61.8803 30.5415 61.8792H27.4615C27.2983 61.8792 27.1418 61.8143 27.0264 61.6989C26.911 61.5835 26.8462 61.427 26.8462 61.2638C26.8462 61.1006 26.911 60.944 27.0264 60.8286C27.1418 60.7132 27.2983 60.6484 27.4615 60.6484H29.0531L25 56.5976L22.9738 58.6245C22.9167 58.6818 22.8488 58.7271 22.7741 58.7581C22.6994 58.7891 22.6193 58.805 22.5385 58.805C22.4576 58.805 22.3775 58.7891 22.3028 58.7581C22.2281 58.7271 22.1602 58.6818 22.1031 58.6245L18.2308 54.7515V63.7276H32.3846C32.5478 63.7276 32.7044 63.7924 32.8198 63.9079C32.9352 64.0233 33 64.1798 33 64.343Z" fill="white"/>
<path d="M57.7294 48.7551V50.4483H52.4908V48.7551H57.7294ZM63.2024 55.4199V43.7836H67.5661C68.46 43.7836 69.21 43.9389 69.8161 44.2495C70.4259 44.5601 70.8861 44.9957 71.1967 45.5563C71.5111 46.1131 71.6683 46.7627 71.6683 47.5051C71.6683 48.2514 71.5092 48.8991 71.1911 49.4483C70.8767 49.9938 70.4126 50.4161 69.799 50.7154C69.1854 51.0108 68.4316 51.1586 67.5376 51.1586H64.4297V49.4086H67.2536C67.7763 49.4086 68.2043 49.3366 68.5376 49.1926C68.871 49.0449 69.1172 48.8309 69.2763 48.5506C69.4392 48.2665 69.5206 47.918 69.5206 47.5051C69.5206 47.0923 69.4392 46.74 69.2763 46.4483C69.1134 46.1529 68.8653 45.9294 68.532 45.7779C68.1986 45.6226 67.7687 45.5449 67.2422 45.5449H65.3104V55.4199H63.2024ZM69.2138 50.1472L72.0945 55.4199H69.7422L66.9126 50.1472H69.2138ZM76.87 56.8745V42.329H77.8018V56.8745H76.87ZM79.5575 46.9824C79.5045 46.4862 79.281 46.0998 78.8871 45.8233C78.4969 45.5468 77.9893 45.4086 77.3643 45.4086C76.925 45.4086 76.5481 45.4748 76.2337 45.6074C75.9193 45.74 75.6787 45.9199 75.5121 46.1472C75.3454 46.3745 75.2602 46.6339 75.2564 46.9256C75.2564 47.168 75.3113 47.3783 75.4212 47.5563C75.5348 47.7343 75.6882 47.8858 75.8814 48.0108C76.0746 48.132 76.2886 48.2343 76.5234 48.3176C76.7583 48.401 76.995 48.4711 77.2337 48.5279L78.3246 48.8006C78.764 48.9029 79.1863 49.0411 79.5916 49.2154C80.0007 49.3896 80.3662 49.6093 80.6882 49.8745C81.014 50.1396 81.2715 50.4597 81.4609 50.8347C81.6503 51.2097 81.745 51.6491 81.745 52.1529C81.745 52.8347 81.5708 53.4351 81.2223 53.954C80.8738 54.4692 80.37 54.8726 79.7109 55.1642C79.0556 55.4521 78.2621 55.5961 77.3303 55.5961C76.425 55.5961 75.639 55.4559 74.9723 55.1756C74.3094 54.8953 73.7905 54.4862 73.4155 53.9483C73.0443 53.4105 72.8435 52.7551 72.8132 51.9824H74.8871C74.9174 52.3877 75.0424 52.7248 75.2621 52.9938C75.4818 53.2627 75.7678 53.4635 76.12 53.5961C76.4761 53.7286 76.8738 53.7949 77.3132 53.7949C77.7715 53.7949 78.1731 53.7267 78.5178 53.5904C78.8662 53.4502 79.139 53.257 79.3359 53.0108C79.5329 52.7608 79.6333 52.4692 79.6371 52.1358C79.6333 51.8328 79.5443 51.5828 79.37 51.3858C79.1958 51.1851 78.9515 51.0184 78.6371 50.8858C78.3265 50.7495 77.9628 50.6283 77.5462 50.5222L76.2223 50.1813C75.264 49.9351 74.5064 49.562 73.9496 49.062C73.3965 48.5582 73.12 47.8896 73.12 47.0563C73.12 46.3707 73.3056 45.7703 73.6768 45.2551C74.0518 44.74 74.5613 44.3404 75.2053 44.0563C75.8492 43.7684 76.5784 43.6245 77.3928 43.6245C78.2185 43.6245 78.942 43.7684 79.5632 44.0563C80.1882 44.3404 80.6787 44.7362 81.0348 45.2438C81.3909 45.7476 81.5746 46.3271 81.5859 46.9824H79.5575ZM91.4624 43.7836V55.4199H89.3544V45.8347H89.2862L86.5646 47.5733V45.6415L89.4567 43.7836H91.4624ZM93.8317 53.2608V51.5847L98.7692 43.7836H100.167V46.1699H99.3146L95.9908 51.437V51.5279H102.883V53.2608H93.8317ZM99.3828 55.4199V52.7495L99.4055 51.9995V43.7836H101.394V55.4199H99.3828ZM105.285 55.5449C104.94 55.5449 104.645 55.4237 104.398 55.1813C104.152 54.9389 104.031 54.6434 104.035 54.2949C104.031 53.954 104.152 53.6623 104.398 53.4199C104.645 53.1775 104.94 53.0563 105.285 53.0563C105.618 53.0563 105.908 53.1775 106.154 53.4199C106.404 53.6623 106.531 53.954 106.535 54.2949C106.531 54.526 106.47 54.7362 106.353 54.9256C106.239 55.115 106.088 55.2665 105.898 55.3801C105.713 55.49 105.508 55.5449 105.285 55.5449ZM108.312 55.4199L113.261 45.6245V45.5449H107.516V43.7836H115.442V45.5847L110.499 55.4199H108.312ZM121.634 43.7836V55.4199H119.526V45.8347H119.458L116.737 47.5733V45.6415L119.629 43.7836H121.634ZM124.214 55.4199V53.8972L128.254 49.937C128.64 49.5468 128.962 49.2002 129.219 48.8972C129.477 48.5942 129.67 48.3006 129.799 48.0165C129.928 47.7324 129.992 47.4294 129.992 47.1074C129.992 46.74 129.909 46.4256 129.742 46.1642C129.576 45.8991 129.346 45.6945 129.055 45.5506C128.763 45.4067 128.432 45.3347 128.06 45.3347C127.678 45.3347 127.343 45.4142 127.055 45.5733C126.767 45.7286 126.543 45.9502 126.384 46.2381C126.229 46.526 126.151 46.8688 126.151 47.2665H124.146C124.146 46.5279 124.314 45.8858 124.651 45.3404C124.988 44.7949 125.452 44.3726 126.043 44.0733C126.638 43.7741 127.32 43.6245 128.089 43.6245C128.869 43.6245 129.555 43.7703 130.146 44.062C130.737 44.3536 131.195 44.7533 131.521 45.2608C131.85 45.7684 132.015 46.348 132.015 46.9995C132.015 47.4351 131.932 47.8631 131.765 48.2836C131.598 48.704 131.305 49.1699 130.884 49.6813C130.468 50.1926 129.882 50.812 129.129 51.5392L127.123 53.579V53.6586H132.191V55.4199H124.214ZM136.214 53.829L136.14 54.454C136.087 54.9313 135.992 55.4161 135.856 55.9086C135.723 56.4048 135.583 56.8612 135.435 57.2779C135.288 57.6945 135.168 58.0222 135.077 58.2608H133.691C133.744 58.0298 133.816 57.7154 133.907 57.3176C134.002 56.9199 134.093 56.473 134.18 55.9767C134.267 55.4805 134.326 54.9767 134.356 54.4654L134.396 53.829H136.214ZM141.968 55.6415C141.032 55.6415 140.229 55.4048 139.559 54.9313C138.892 54.454 138.379 53.7665 138.019 52.8688C137.663 51.9673 137.485 50.882 137.485 49.6131C137.489 48.3442 137.669 47.2646 138.025 46.3745C138.385 45.4805 138.898 44.7987 139.565 44.329C140.235 43.8593 141.036 43.6245 141.968 43.6245C142.9 43.6245 143.701 43.8593 144.371 44.329C145.042 44.7987 145.555 45.4805 145.911 46.3745C146.271 47.2684 146.451 48.348 146.451 49.6131C146.451 50.8858 146.271 51.973 145.911 52.8745C145.555 53.7722 145.042 54.4578 144.371 54.9313C143.705 55.4048 142.904 55.6415 141.968 55.6415ZM141.968 53.8631C142.695 53.8631 143.269 53.5051 143.69 52.7892C144.114 52.0695 144.326 51.0108 144.326 49.6131C144.326 48.6889 144.229 47.9123 144.036 47.2836C143.843 46.6548 143.57 46.1813 143.218 45.8631C142.866 45.5411 142.449 45.3801 141.968 45.3801C141.245 45.3801 140.673 45.74 140.252 46.4597C139.832 47.1756 139.62 48.2267 139.616 49.6131C139.612 50.5411 139.705 51.3214 139.894 51.954C140.087 52.5866 140.36 53.0639 140.712 53.3858C141.065 53.704 141.483 53.8631 141.968 53.8631ZM152.697 43.7836V55.4199H150.589V45.8347H150.521L147.799 47.5733V45.6415L150.691 43.7836H152.697Z" fill="white"/>
<path d="M181.255 44.6926V53.4199H180.198V45.8006H180.147L178.016 47.2154V46.1415L180.198 44.6926H181.255ZM183.662 53.4199L187.566 45.6983V45.6301H183.066V44.6926H188.657V45.6813L184.77 53.4199H183.662ZM194.319 51.7836V51.3233C194.319 51.0051 194.384 50.714 194.515 50.4498C194.649 50.1827 194.842 49.9696 195.095 49.8105C195.35 49.6486 195.66 49.5676 196.024 49.5676C196.393 49.5676 196.703 49.6486 196.953 49.8105C197.203 49.9696 197.392 50.1827 197.519 50.4498C197.647 50.714 197.711 51.0051 197.711 51.3233V51.7836C197.711 52.1017 197.646 52.3944 197.515 52.6614C197.387 52.9256 197.197 53.1387 196.944 53.3006C196.694 53.4597 196.387 53.5392 196.024 53.5392C195.654 53.5392 195.343 53.4597 195.09 53.3006C194.838 53.1387 194.646 52.9256 194.515 52.6614C194.384 52.3944 194.319 52.1017 194.319 51.7836ZM195.188 51.3233V51.7836C195.188 52.0478 195.251 52.285 195.376 52.4952C195.501 52.7026 195.717 52.8063 196.024 52.8063C196.322 52.8063 196.532 52.7026 196.654 52.4952C196.779 52.285 196.842 52.0478 196.842 51.7836V51.3233C196.842 51.0591 196.782 50.8233 196.663 50.6159C196.544 50.4057 196.33 50.3006 196.024 50.3006C195.725 50.3006 195.511 50.4057 195.38 50.6159C195.252 50.8233 195.188 51.0591 195.188 51.3233ZM189.972 46.7892V46.329C189.972 46.0108 190.038 45.7196 190.169 45.4554C190.302 45.1884 190.495 44.9753 190.748 44.8162C191.004 44.6543 191.313 44.5733 191.677 44.5733C192.046 44.5733 192.356 44.6543 192.606 44.8162C192.856 44.9753 193.045 45.1884 193.173 45.4554C193.301 45.7196 193.365 46.0108 193.365 46.329V46.7892C193.365 47.1074 193.299 47.4 193.169 47.6671C193.041 47.9313 192.85 48.1444 192.597 48.3063C192.347 48.4654 192.041 48.5449 191.677 48.5449C191.308 48.5449 190.997 48.4654 190.744 48.3063C190.491 48.1444 190.299 47.9313 190.169 47.6671C190.038 47.4 189.972 47.1074 189.972 46.7892ZM190.842 46.329V46.7892C190.842 47.0534 190.904 47.2907 191.029 47.5009C191.154 47.7083 191.37 47.812 191.677 47.812C191.975 47.812 192.186 47.7083 192.308 47.5009C192.433 47.2907 192.495 47.0534 192.495 46.7892V46.329C192.495 46.0648 192.436 45.829 192.316 45.6216C192.197 45.4114 191.984 45.3063 191.677 45.3063C191.379 45.3063 191.164 45.4114 191.034 45.6216C190.906 45.829 190.842 46.0648 190.842 46.329ZM190.296 53.4199L196.296 44.6926H197.268L191.268 53.4199H190.296Z" fill="#ED7D76"/>
<path d="M172.685 53.048C172.725 53.0886 172.758 53.1369 172.78 53.19C172.802 53.2431 172.813 53.3 172.813 53.3575C172.813 53.415 172.802 53.4719 172.78 53.525C172.758 53.5781 172.725 53.6264 172.685 53.6671C172.644 53.7077 172.596 53.7399 172.543 53.7619C172.49 53.7839 172.433 53.7953 172.375 53.7953C172.318 53.7953 172.261 53.7839 172.208 53.7619C172.155 53.7399 172.106 53.7077 172.066 53.6671L168 49.601L163.935 53.6671C163.853 53.7491 163.741 53.7953 163.625 53.7953C163.509 53.7953 163.398 53.7491 163.316 53.6671C163.234 53.585 163.188 53.4736 163.188 53.3575C163.187 53.2414 163.234 53.1301 163.316 53.048L167.691 48.673C167.731 48.6323 167.78 48.6 167.833 48.578C167.886 48.556 167.943 48.5447 168 48.5447C168.058 48.5447 168.115 48.556 168.168 48.578C168.221 48.6 168.269 48.6323 168.31 48.673L172.685 53.048ZM163.935 49.2921L168 45.226L172.066 49.2921C172.106 49.3327 172.155 49.3649 172.208 49.3869C172.261 49.4089 172.318 49.4203 172.375 49.4203C172.433 49.4203 172.49 49.4089 172.543 49.3869C172.596 49.3649 172.644 49.3327 172.685 49.2921C172.725 49.2514 172.758 49.2031 172.78 49.15C172.802 49.0969 172.813 49.04 172.813 48.9825C172.813 48.925 172.802 48.8681 172.78 48.815C172.758 48.7619 172.725 48.7136 172.685 48.673L168.31 44.298C168.269 44.2573 168.221 44.225 168.168 44.203C168.115 44.181 168.058 44.1697 168 44.1697C167.943 44.1697 167.886 44.181 167.833 44.203C167.78 44.225 167.731 44.2573 167.691 44.298L163.316 48.673C163.234 48.7551 163.187 48.8664 163.188 48.9825C163.188 49.0986 163.234 49.21 163.316 49.2921C163.398 49.3741 163.509 49.4203 163.625 49.4203C163.741 49.4203 163.853 49.3741 163.935 49.2921Z" fill="#ED7D76"/>
<path d="M62.8434 67.5108C62.8434 68.1169 62.7354 68.6444 62.5195 69.0932C62.3036 69.5402 62.0063 69.8868 61.6275 70.133C61.2506 70.3773 60.8169 70.4995 60.3263 70.4995C59.8358 70.4995 59.4012 70.3773 59.0224 70.133C58.6455 69.8868 58.3491 69.5402 58.1332 69.0932C57.9192 68.6444 57.8121 68.1169 57.8121 67.5108C57.8121 66.9048 57.9192 66.3783 58.1332 65.9313C58.3491 65.4824 58.6464 65.1358 59.0252 64.8915C59.404 64.6453 59.8377 64.5222 60.3263 64.5222C60.8169 64.5222 61.2506 64.6453 61.6275 64.8915C62.0063 65.1358 62.3036 65.4824 62.5195 65.9313C62.7354 66.3783 62.8434 66.9048 62.8434 67.5108ZM62.3263 67.5108C62.3263 66.99 62.2392 66.544 62.065 66.1728C61.8907 65.7997 61.6531 65.5146 61.3519 65.3176C61.0508 65.1207 60.7089 65.0222 60.3263 65.0222C59.9457 65.0222 59.6048 65.1207 59.3036 65.3176C59.0025 65.5146 58.7638 65.7987 58.5877 66.1699C58.4135 66.5411 58.3263 66.9881 58.3263 67.5108C58.3263 68.0317 58.4135 68.4777 58.5877 68.8489C58.762 69.2201 58.9996 69.5051 59.3008 69.704C59.6019 69.901 59.9438 69.9995 60.3263 69.9995C60.7089 69.9995 61.0508 69.901 61.3519 69.704C61.6549 69.507 61.8936 69.223 62.0678 68.8517C62.2421 68.4786 62.3282 68.0317 62.3263 67.5108ZM63.6481 72.0563V66.0563H64.1396V66.8887H64.1992C64.2598 66.758 64.3432 66.6245 64.4492 66.4881C64.5553 66.3498 64.6954 66.2334 64.8697 66.1387C65.0458 66.044 65.2674 65.9966 65.5344 65.9966C65.8943 65.9966 66.2087 66.0913 66.4776 66.2807C66.7485 66.4682 66.9587 66.7315 67.1083 67.0705C67.2598 67.4076 67.3356 67.8006 67.3356 68.2495C67.3356 68.7002 67.2598 69.0951 67.1083 69.4341C66.9587 69.7731 66.7485 70.0373 66.4776 70.2267C66.2087 70.4161 65.8962 70.5108 65.5401 70.5108C65.2769 70.5108 65.0562 70.4635 64.8782 70.3688C64.7021 70.2741 64.5591 70.1576 64.4492 70.0194C64.3413 69.8792 64.2579 69.7428 64.1992 69.6103H64.1538V72.0563H63.6481ZM64.1481 68.2409C64.1481 68.5932 64.2002 68.9057 64.3043 69.1784C64.4104 69.4493 64.5619 69.6623 64.7589 69.8176C64.9577 69.9711 65.1983 70.0478 65.4805 70.0478C65.7702 70.0478 66.0146 69.9682 66.2134 69.8091C66.4142 69.6481 66.5666 69.4313 66.6708 69.1586C66.7769 68.8858 66.8299 68.58 66.8299 68.2409C66.8299 67.9057 66.7778 67.6036 66.6737 67.3347C66.5714 67.0658 66.4199 66.8527 66.2191 66.6955C66.0183 66.5364 65.7721 66.4569 65.4805 66.4569C65.1964 66.4569 64.9549 66.5336 64.756 66.687C64.5572 66.8385 64.4057 67.0487 64.3015 67.3176C64.1992 67.5847 64.1481 67.8925 64.1481 68.2409ZM69.8342 70.5108C69.427 70.5108 69.0747 70.4161 68.7773 70.2267C68.48 70.0355 68.2499 69.7712 68.087 69.4341C67.926 69.0951 67.8455 68.705 67.8455 68.2637C67.8455 67.8243 67.926 67.4341 68.087 67.0932C68.2499 66.7504 68.4743 66.4824 68.7603 66.2892C69.0482 66.0942 69.3806 65.9966 69.7575 65.9966C69.9942 65.9966 70.2224 66.0402 70.4421 66.1273C70.6618 66.2125 70.8588 66.3442 71.033 66.5222C71.2092 66.6983 71.3484 66.9209 71.4506 67.1898C71.5529 67.4569 71.604 67.7731 71.604 68.1387V68.3887H68.195V67.9426H71.087C71.087 67.6623 71.0302 67.4105 70.9165 67.187C70.8048 66.9616 70.6486 66.7836 70.4478 66.6529C70.2489 66.5222 70.0188 66.4569 69.7575 66.4569C69.4809 66.4569 69.2376 66.5307 69.0273 66.6784C68.8171 66.8262 68.6523 67.0212 68.533 67.2637C68.4156 67.5061 68.3559 67.7712 68.354 68.0591V68.3262C68.354 68.6728 68.4137 68.9758 68.533 69.2353C68.6542 69.4928 68.8256 69.6926 69.0472 69.8347C69.2688 69.9767 69.5311 70.0478 69.8342 70.0478C70.0406 70.0478 70.2215 70.0156 70.3768 69.9512C70.534 69.8868 70.6656 69.8006 70.7717 69.6926C70.8796 69.5828 70.9611 69.4625 71.016 69.3319L71.4961 69.4881C71.4298 69.6718 71.3209 69.8413 71.1694 69.9966C71.0198 70.1519 70.8323 70.2769 70.6069 70.3716C70.3834 70.4644 70.1258 70.5108 69.8342 70.5108ZM72.8491 67.6926V70.4199H72.3434V66.0563H72.8349V66.7409H72.8803C72.9826 66.5175 73.1417 66.3385 73.3576 66.204C73.5754 66.0676 73.8443 65.9995 74.1644 65.9995C74.458 65.9995 74.7156 66.061 74.9371 66.1841C75.1606 66.3053 75.3339 66.4843 75.457 66.7211C75.582 66.9578 75.6445 67.2485 75.6445 67.5932V70.4199H75.1388V67.6245C75.1388 67.2665 75.0385 66.9834 74.8377 66.775C74.6388 66.5667 74.3718 66.4625 74.0366 66.4625C73.8074 66.4625 73.6038 66.5118 73.4258 66.6103C73.2478 66.7087 73.1067 66.8508 73.0025 67.0364C72.9002 67.2201 72.8491 67.4389 72.8491 67.6926ZM76.7063 70.4199V64.6017H78.6694C79.0482 64.6017 79.3635 64.668 79.6154 64.8006C79.8692 64.9332 80.0595 65.1141 80.1864 65.3432C80.3133 65.5724 80.3768 65.8328 80.3768 66.1245C80.3768 66.3669 80.3361 66.5743 80.2546 66.7466C80.1732 66.919 80.0624 67.0582 79.9222 67.1642C79.7821 67.2703 79.6258 67.347 79.4535 67.3944V67.4398C79.641 67.4531 79.8228 67.5194 79.9989 67.6387C80.1751 67.7561 80.32 67.9209 80.4336 68.133C80.5472 68.3451 80.604 68.5989 80.604 68.8944C80.604 69.1879 80.5387 69.4502 80.408 69.6813C80.2773 69.9105 80.0766 70.0913 79.8058 70.2239C79.5368 70.3546 79.194 70.4199 78.7773 70.4199H76.7063ZM77.2376 69.9426H78.7773C79.2262 69.9426 79.5576 69.8432 79.7717 69.6444C79.9876 69.4455 80.0955 69.1955 80.0955 68.8944C80.0955 68.6728 80.0415 68.472 79.9336 68.2921C79.8275 68.1103 79.677 67.9663 79.4819 67.8603C79.2887 67.7542 79.0614 67.7012 78.8001 67.7012H77.2376V69.9426ZM77.2376 67.2296H78.7177C78.9469 67.2296 79.1476 67.1822 79.32 67.0875C79.4923 66.9928 79.6268 66.8622 79.7234 66.6955C79.82 66.5288 79.8683 66.3385 79.8683 66.1245C79.8683 65.8158 79.7679 65.5648 79.5671 65.3716C79.3664 65.1766 79.0671 65.079 78.6694 65.079H77.2376V67.2296ZM82.0423 64.6017V70.4199H81.511V64.6017H82.0423ZM85.0891 70.4199V64.6017H85.6204V69.9426H88.3931V70.4199H85.0891ZM88.0884 65.079V64.6017H92.3072V65.079H90.4634V70.4199H89.9322V65.079H88.0884ZM94.8327 70.4199H93.1282V64.6017H94.935C95.4899 64.6017 95.9644 64.7173 96.3583 64.9483C96.7541 65.1794 97.0572 65.5108 97.2674 65.9426C97.4776 66.3745 97.5827 66.8925 97.5827 67.4966C97.5827 68.1065 97.4748 68.6301 97.2589 69.0676C97.0449 69.5033 96.7324 69.8375 96.3214 70.0705C95.9123 70.3034 95.4161 70.4199 94.8327 70.4199ZM93.6594 69.9426H94.8015C95.3015 69.9426 95.7201 69.8442 96.0572 69.6472C96.3943 69.4502 96.6471 69.169 96.8157 68.8034C96.9843 68.4379 97.0685 68.0023 97.0685 67.4966C97.0666 66.9947 96.9833 66.5629 96.8185 66.2012C96.6557 65.8394 96.4132 65.562 96.0913 65.3688C95.7712 65.1756 95.3754 65.079 94.9038 65.079H93.6594V69.9426ZM98.2305 70.4199H97.6737L99.7901 64.6017H100.358L102.475 70.4199H101.918L100.094 65.2921H100.054L98.2305 70.4199ZM98.631 68.1898H101.517V68.6671H98.631V68.1898Z" fill="#B1ACAC"/>
<defs>
<linearGradient id="paint0_linear_114_112" x1="134.5" y1="0.419922" x2="134.5" y2="88.4199" gradientUnits="userSpaceOnUse">
<stop stop-color="#1C2025"/>
<stop offset="1" stop-color="#141618"/>
</linearGradient>
</defs>
</svg>
